<?xml version="1.0" standalone="no"?>
<!DOCTYPE svg PUBLIC "-//W3C//DTD SVG 20010904//EN"
 "http://www.w3.org/TR/2001/REC-SVG-20010904/DTD/svg10.dtd">
<svg version="1.0" xmlns="http://www.w3.org/2000/svg"
 width="1164.000000pt" height="1164.000000pt" viewBox="0 0 1164.000000 1164.000000"
 preserveAspectRatio="xMidYMid meet">
<metadata>
Created by potrace 1.11, written by Peter Selinger 2001-2013
</metadata>
<g transform="translate(0.000000,1164.000000) scale(0.100000,-0.100000)"
fill="#000000" stroke="none">
<path d="M5291 8338 c-24 -10 -96 -60 -160 -111 -145 -115 -151 -120 -165
-132 -23 -20 -136 -96 -136 -91 0 3 -20 -4 -45 -15 -24 -11 -73 -22 -107 -25
-150 -12 -150 -12 -185 -49 -38 -41 -70 -45 -112 -14 -22 16 -32 19 -47 10
-11 -6 -45 -20 -76 -32 -38 -13 -58 -26 -59 -37 -1 -9 -3 -35 -4 -57 -1 -22
-3 -46 -4 -53 -1 -14 -41 -7 -51 8 -3 4 -22 19 -43 33 -41 28 -56 27 -134 -12
-57 -29 -79 -27 -181 15 -112 45 -113 46 -201 45 -89 -1 -111 -7 -111 -29 0
-9 -8 -44 -18 -76 -16 -54 -21 -60 -56 -73 -29 -10 -42 -10 -53 -2 -7 7 -28
59 -45 116 l-32 105 -82 38 c-45 22 -92 51 -103 66 -12 15 -36 36 -53 46 -34
21 -75 20 -70 -1 2 -8 -7 -24 -19 -37 l-22 -24 -48 45 c-45 42 -50 44 -76 33
-15 -6 -58 -33 -94 -59 -56 -40 -131 -82 -149 -84 -43 -6 -87 -26 -140 -65
-124 -90 -147 -87 -76 10 24 33 52 80 61 105 l17 44 -51 118 c-76 174 -72 168
-112 167 -37 0 -39 -1 -234 -38 -192 -38 -175 -30 -163 -70 18 -57 7 -69 -55
-62 l-53 7 -80 -63 c-43 -34 -86 -70 -95 -80 -9 -10 -19 -18 -22 -18 -5 0 -26
-17 -100 -81 -26 -22 -30 -32 -31 -85 -1 -56 -2 -59 -28 -62 -15 -2 -36 2 -48
8 -19 10 -29 3 -97 -67 -140 -146 -192 -203 -210 -230 -10 -16 -20 -30 -23
-33 -11 -11 -40 -69 -74 -153 -40 -97 -122 -270 -134 -281 -4 -4 -7 -11 -7
-14 0 -4 -20 -41 -44 -82 -24 -41 -51 -88 -60 -105 -9 -16 -18 -32 -21 -35 -3
-3 -34 -63 -70 -134 -59 -115 -82 -148 -96 -134 -2 3 -7 25 -10 49 -8 55 -19
76 -44 84 -34 11 -52 -10 -81 -96 -15 -46 -32 -92 -38 -104 -6 -11 -15 -33
-21 -48 -6 -18 -23 -33 -45 -43 -19 -8 -35 -20 -36 -27 0 -6 -2 -73 -3 -147
-2 -82 -10 -172 -21 -230 -19 -95 -26 -278 -13 -333 4 -15 19 -57 33 -93 26
-66 45 -145 31 -132 -4 3 -9 12 -10 20 -10 47 -21 67 -43 77 -62 28 -94 -46
-157 -359 -28 -141 -33 -172 -31 -195 2 -14 6 -70 9 -123 17 -265 21 -281 92
-395 47 -78 51 -92 39 -180 -4 -32 -8 -77 -10 -100 -2 -23 -6 -60 -10 -82 -24
-154 4 -319 67 -395 14 -18 88 -65 88 -57 0 3 14 1 32 -4 64 -18 147 -23 378
-22 218 1 376 7 510 19 52 4 141 10 295 19 39 2 138 7 220 10 83 3 161 8 174
10 48 8 73 37 118 133 25 54 49 100 54 103 5 3 31 4 57 2 76 -5 543 -4 587 2
32 4 49 15 84 52 24 27 49 48 55 48 15 1 35 -35 36 -61 0 -46 4 -46 462 -42
488 3 446 10 519 -80 24 -29 50 -53 58 -53 23 -2 41 -2 191 5 74 4 221 9 325
12 282 7 257 0 349 94 43 44 83 80 87 80 12 0 18 -28 24 -119 5 -70 11 -90 34
-125 54 -78 38 -74 326 -81 355 -8 543 -15 805 -31 191 -12 906 -4 942 11 9 4
20 20 23 36 4 16 11 32 16 35 6 3 58 7 117 9 59 2 206 6 327 10 121 3 250 8
287 9 74 3 82 0 86 -29 7 -45 24 -84 40 -90 9 -4 69 -9 132 -11 319 -9 434
-13 533 -18 107 -6 107 -6 131 22 14 15 37 41 53 59 26 30 44 37 84 34 25 -2
31 -26 34 -129 4 -126 11 -157 38 -169 57 -25 955 -23 1086 2 9 2 37 4 62 4
l45 1 0 82 c-1 117 7 115 130 -24 l41 -46 134 4 c74 2 190 6 259 8 69 3 211 8
315 11 290 9 364 14 384 25 30 15 51 97 57 215 5 92 3 114 -15 159 -17 44 -33
95 -48 156 -20 80 1 147 68 220 50 55 74 96 83 141 2 13 8 42 13 64 9 39 9
156 0 225 -10 73 -18 126 -22 150 -9 48 -14 85 -20 145 -3 33 -8 67 -10 75
-11 38 -18 123 -18 210 0 113 22 185 87 293 52 86 65 122 80 217 13 83 12 115
-2 170 -8 30 -16 62 -17 70 -2 8 -13 42 -25 75 -30 85 -47 181 -44 248 4 67
-11 81 -58 54 -26 -15 -28 -15 -29 1 -1 9 -3 26 -4 37 -2 11 -6 49 -10 85 -17
177 -34 261 -75 370 -23 63 -44 133 -46 155 -3 22 -6 49 -8 60 -3 11 -5 37 -5
58 -1 60 -29 49 -136 -59 -113 -113 -158 -137 -259 -138 l-68 -1 -24 45 c-114
221 -307 629 -324 688 -27 95 -62 133 -164 182 -95 45 -122 51 -279 55 l-118
4 -6 -29 c-6 -33 -18 -38 -83 -41 -62 -3 -86 7 -100 40 -15 37 -42 50 -120 55
-62 5 -67 7 -105 50 -49 54 -65 74 -65 80 0 3 -15 31 -34 63 -41 71 -113 143
-175 176 -97 53 -296 91 -344 66 -12 -7 -40 -27 -63 -46 -41 -33 -77 -42 -89
-23 -11 18 -39 10 -74 -19 -27 -22 -39 -26 -51 -18 -13 7 -35 3 -89 -18 -117
-44 -166 -54 -244 -48 -40 3 -96 6 -126 7 -60 1 -62 -1 -74 -91 -10 -70 -14
-75 -50 -57 -22 12 -44 14 -78 10 -54 -7 -74 7 -109 75 -29 55 -44 64 -75 43
-53 -35 -124 -24 -300 44 -88 34 -182 73 -210 86 -68 33 -85 37 -152 37 -69 0
-119 -7 -193 -27 -86 -23 -250 -94 -300 -129 -53 -37 -108 -65 -127 -65 -8 0
-13 12 -13 34 0 19 -4 37 -9 40 -4 3 -54 6 -111 7 -91 1 -104 -1 -114 -17 -6
-11 -11 -21 -11 -24 -3 -18 -45 -99 -55 -105 -17 -11 -24 5 -39 90 -8 41 -16
76 -20 76 -3 1 -15 3 -26 4 -22 3 -74 12 -120 21 -16 3 -67 26 -113 51 -81 43
-83 44 -114 29 -43 -22 -52 -20 -91 13 -37 33 -37 33 -122 -18 -20 -13 -37
-16 -51 -11 -20 8 -84 96 -84 117 0 5 15 17 33 26 l32 16 -65 -1 c-39 -1 -83
-9 -109 -20z m227 -235 c23 -14 40 -28 38 -31 -12 -23 -298 -608 -299 -612 -4
-18 -44 -82 -51 -83 -10 -2 -51 101 -66 166 -8 38 -7 40 58 109 36 38 72 77
78 87 12 17 12 101 -1 181 -7 50 -10 128 -5 133 3 3 41 23 85 46 86 44 92 45
163 4z m-3447 -5 c-5 -13 -52 -109 -105 -215 -53 -105 -96 -198 -96 -206 0
-17 38 -34 95 -43 22 -3 43 -8 47 -10 5 -4 -31 -107 -63 -179 -20 -44 -39
-109 -39 -130 0 -16 10 -28 34 -39 19 -9 38 -16 43 -16 22 0 30 -23 22 -64 -4
-23 -10 -64 -13 -92 -4 -27 -8 -58 -10 -69 -14 -73 -27 -167 -30 -205 -3 -47
-25 -99 -58 -134 -19 -21 -26 -21 -441 -21 -232 -1 -460 -4 -506 -9 l-83 -8
32 59 c18 32 38 64 44 72 16 20 35 54 42 74 9 24 33 25 83 5 62 -26 99 -32
115 -19 16 14 5 89 -26 165 -19 47 -27 131 -30 323 0 20 10 47 29 72 35 48 30
51 109 -69 27 -41 54 -78 59 -82 12 -9 118 -2 163 11 24 7 34 7 37 -2 44 -135
102 -285 114 -295 20 -16 37 -10 33 14 -5 28 -113 327 -124 341 -7 9 -23 7
-65 -8 -31 -10 -58 -19 -60 -19 -2 0 -20 34 -39 75 -23 51 -33 83 -28 97 12
39 197 330 213 336 9 3 34 18 56 32 22 15 78 46 125 69 47 23 137 80 200 126
63 46 118 84 122 84 4 1 4 -9 -1 -21z m7011 -110 l98 -102 -6 -65 c-3 -37 -7
-82 -10 -101 -13 -118 -16 -198 -7 -203 11 -7 66 -18 98 -21 16 -1 20 -8 19
-36 0 -19 -4 -51 -7 -70 -11 -53 -20 -128 -26 -199 -1 -19 -291 428 -291 450
0 5 -4 9 -10 9 -5 0 -10 4 -10 9 0 5 -31 61 -70 125 -38 64 -70 120 -70 125 0
5 -3 11 -7 13 -5 2 -16 18 -26 36 l-18 32 103 49 c57 27 112 50 122 50 13 1
57 -37 118 -101z m-1932 -61 c60 -144 158 -375 177 -417 9 -19 38 -82 66 -140
27 -58 66 -141 87 -185 20 -44 61 -129 90 -190 131 -274 199 -426 214 -480 3
-11 8 -132 12 -270 3 -137 7 -261 8 -275 2 -14 4 -32 4 -41 3 -25 48 -38 144
-42 50 -2 93 -9 102 -16 20 -17 270 -431 263 -437 -3 -3 -80 -6 -172 -7 l-168
-2 -118 235 c-99 196 -172 351 -220 465 -5 11 -33 84 -64 163 -30 79 -82 205
-116 280 -66 148 -77 173 -104 242 -10 25 -29 69 -42 98 -13 29 -23 54 -23 56
0 2 -33 73 -73 157 -87 181 -107 225 -107 233 0 8 -88 215 -122 286 -32 66
-128 315 -128 330 0 20 218 84 236 69 7 -5 31 -56 54 -112z m-1472 72 c23 -17
42 -35 42 -40 0 -13 -102 -224 -315 -652 -107 -213 -197 -397 -200 -408 -4
-11 -21 -50 -38 -87 -17 -37 -31 -69 -32 -72 -1 -3 -7 -16 -13 -30 -5 -14 -28
-67 -50 -118 l-39 -93 -41 46 c-46 51 -46 37 -2 140 7 17 26 58 42 93 15 34
28 64 28 66 0 2 16 39 36 83 20 43 42 92 49 108 7 17 24 55 38 85 14 30 34 76
46 102 57 127 233 490 241 498 3 3 39 74 80 158 41 83 77 152 80 152 3 0 25
-14 48 -31z m1564 -21 c7 -7 65 -46 128 -87 170 -110 156 -87 133 -233 -15
-98 -17 -126 -7 -135 7 -7 17 -13 22 -13 5 0 33 -10 61 -22 l52 -21 -5 -71
c-4 -39 -9 -102 -13 -141 -3 -38 -7 -80 -7 -92 -1 -12 -4 -24 -7 -27 -5 -5
-97 180 -163 327 -14 31 -37 81 -51 111 -27 60 -148 358 -159 394 -8 25 -4 28
16 10z m-454 -55 c6 -16 20 -55 32 -88 12 -33 28 -73 35 -90 75 -165 155 -346
155 -350 0 -5 17 -43 64 -150 13 -27 48 -103 79 -168 32 -65 57 -120 57 -123
0 -3 9 -24 19 -47 10 -23 44 -100 74 -172 30 -71 84 -199 121 -283 71 -163 75
-187 56 -292 -6 -36 -14 -81 -18 -100 -3 -19 -6 -50 -6 -69 -1 -31 3 -35 49
-53 28 -11 54 -23 58 -28 12 -11 -10 -50 -28 -50 -8 0 -15 -5 -15 -12 0 -6 -3
-9 -6 -5 -4 3 -24 -3 -45 -13 -21 -11 -45 -20 -53 -20 -8 0 -34 35 -57 77
l-42 77 -3 247 c-3 337 -7 367 -65 499 -15 36 -65 153 -110 260 -44 107 -94
223 -110 258 -16 35 -29 65 -29 67 0 1 -20 45 -44 96 -24 52 -72 157 -106 234
-134 300 -135 304 -100 318 25 9 27 8 38 -20z m-943 -28 c24 -14 48 -31 53
-38 7 -9 -2 -44 -33 -119 -39 -98 -53 -140 -61 -175 -4 -19 11 -24 89 -30 40
-3 74 -7 76 -9 2 -2 6 -59 7 -126 2 -68 4 -123 4 -123 1 0 2 -34 3 -75 2 -67
4 -75 22 -77 37 -5 55 24 105 167 47 134 80 200 100 200 5 0 22 12 39 26 l31
26 11 -29 c6 -15 49 -129 95 -253 47 -124 89 -234 93 -245 22 -51 51 -129 51
-137 0 -12 -778 -4 -789 8 -4 5 -16 36 -26 69 -22 76 -40 105 -65 105 -14 0
-21 9 -25 38 -11 66 -21 80 -62 87 -21 3 -55 10 -75 16 l-37 9 58 123 c32 67
75 158 96 202 21 44 67 141 103 215 36 74 66 137 67 140 1 9 16 30 21 30 3 0
25 -11 49 -25z m-3151 -52 c28 -16 53 -29 54 -30 4 -2 -25 -56 -135 -251 -86
-153 -85 -129 -17 -307 4 -11 8 -23 9 -27 2 -5 4 -10 5 -13 1 -3 4 -8 5 -12
17 -57 29 -73 53 -73 15 1 38 7 51 14 14 8 30 12 37 9 7 -2 36 -54 65 -114 37
-77 58 -109 70 -109 25 0 28 20 9 60 -10 19 -37 77 -61 128 -48 104 -37 97
-132 76 l-28 -6 22 53 c11 30 32 82 45 117 13 34 31 79 40 100 9 20 20 46 24
57 11 29 78 168 89 184 7 11 15 9 42 -10 19 -13 36 -26 39 -29 20 -22 142 -88
173 -94 44 -8 52 -23 117 -211 22 -66 45 -124 50 -129 4 -4 26 -8 47 -7 21 1
49 2 62 2 33 1 39 -9 107 -172 l57 -141 -24 -45 c-36 -66 -47 -72 -54 -26 -13
83 -14 85 -98 111 -79 26 -96 24 -101 -12 -4 -27 -45 -66 -76 -72 -38 -8 -46
-19 -57 -74 l-9 -45 -339 -1 c-187 0 -392 -2 -455 -4 -65 -2 -114 1 -113 6 1
5 21 45 46 89 24 44 62 114 84 155 22 41 64 119 93 174 51 96 52 99 39 138
-21 66 -13 76 -144 -167 -139 -257 -211 -385 -232 -412 -26 -33 -29 -49 -38
-193 -6 -96 -7 -160 -5 -668 1 -200 -3 -369 -8 -375 -5 -7 -17 -34 -27 -62
-23 -64 -35 -77 -36 -39 0 16 -2 47 -4 69 -7 77 -22 391 -30 625 -11 331 -17
457 -20 475 -3 11 -8 37 -13 57 -8 32 -6 42 15 73 28 42 121 200 134 230 5 11
29 56 52 100 24 44 76 143 116 220 41 77 82 152 92 167 11 14 48 82 82 150 35
67 74 140 85 161 12 21 36 65 52 97 17 33 33 60 36 60 3 0 29 -12 58 -27z
m2201 -13 c3 -5 8 -18 9 -27 2 -10 7 -36 11 -58 4 -22 9 -49 11 -60 14 -76 24
-109 35 -116 8 -5 39 -8 69 -7 53 3 54 2 61 -27 4 -16 23 -77 42 -135 18 -58
33 -113 32 -121 -4 -21 -125 -300 -137 -316 -6 -7 -7 -13 -4 -13 4 0 0 -12 -8
-27 -8 -16 -40 -85 -72 -155 -31 -70 -62 -132 -69 -138 -17 -14 -465 -19 -478
-5 -5 5 -32 55 -61 110 -43 84 -57 103 -89 118 l-37 19 41 76 c87 159 98 179
138 260 37 72 61 101 61 73 0 -5 18 -39 40 -75 l41 -66 -32 -71 c-21 -49 -27
-75 -21 -81 18 -18 37 -2 62 51 14 28 32 51 40 52 8 0 31 1 50 2 58 3 43 38
-22 51 -27 6 -64 56 -120 163 l-22 42 83 173 c88 183 108 212 156 234 17 8 37
18 45 23 21 13 124 60 132 60 4 1 10 -3 13 -9z m3544 -165 c91 -145 276 -445
330 -537 21 -36 229 -380 258 -427 13 -20 26 -43 30 -51 4 -8 34 -58 68 -110
92 -142 88 -123 42 -222 -22 -49 -43 -88 -46 -88 -6 0 -60 94 -62 108 0 4 -6
14 -12 22 -23 29 -37 59 -42 92 -13 78 -18 95 -41 130 -13 21 -24 40 -24 43 0
3 -39 72 -86 153 -48 81 -94 161 -104 177 -9 17 -58 97 -109 178 -50 82 -91
153 -91 158 0 5 -4 9 -10 9 -5 0 -10 4 -10 10 0 5 -26 49 -57 97 -32 48 -58
90 -58 93 0 3 -12 23 -26 45 -64 100 -151 256 -145 262 15 15 53 31 70 30 12
-1 54 -59 125 -172z m-1992 124 c21 -12 58 -33 83 -47 89 -50 97 -57 94 -99
-7 -91 -6 -125 4 -135 6 -6 57 -26 113 -44 56 -18 107 -39 114 -46 6 -7 26
-49 45 -93 31 -73 60 -141 96 -220 71 -159 214 -498 211 -501 -2 -3 -66 -6
-142 -7 -113 -2 -141 0 -155 13 -9 8 -36 62 -60 120 -24 58 -52 125 -63 150
-36 83 -45 105 -72 170 -14 36 -34 83 -44 105 -29 64 -218 511 -226 535 -1 3
-5 14 -10 25 -26 64 -35 88 -35 91 0 7 10 4 47 -17z m2053 -11 c0 -4 6 -8 14
-8 7 0 26 -7 42 -15 25 -13 31 -13 49 0 65 48 58 47 110 28 54 -20 90 -52 122
-109 34 -58 151 -247 160 -259 5 -5 22 -32 38 -60 16 -27 48 -78 72 -113 24
-35 43 -67 43 -71 0 -4 9 -16 20 -26 11 -10 20 -22 20 -26 0 -5 60 -98 133
-209 207 -314 292 -449 285 -456 -3 -3 -116 -12 -246 -19 l-64 -4 6 37 c28
176 39 304 27 321 -6 9 -29 15 -59 16 -59 3 -72 9 -72 38 0 12 -4 29 -10 37
-9 14 -15 14 -136 -15 -23 -5 -32 6 -104 125 -19 30 -52 84 -74 120 -54 86
-58 94 -108 173 -24 37 -47 76 -53 85 -16 27 -173 279 -220 352 -23 36 -45 70
-48 77 -5 8 0 9 23 0 16 -6 30 -15 30 -19z m-2159 -35 c11 -27 27 -61 34 -78
8 -16 41 -95 74 -175 33 -80 67 -163 77 -185 10 -22 19 -44 20 -50 3 -10 172
-409 199 -470 52 -116 85 -198 85 -212 0 -9 -17 -41 -37 -70 -44 -63 -36 -70
-103 98 -23 57 -49 112 -57 121 -12 13 -14 30 -8 76 6 52 3 68 -28 148 -19 49
-74 190 -121 314 -48 124 -91 234 -96 245 -38 85 -100 260 -96 271 11 29 37
13 57 -33z m1821 20 c12 -15 48 -72 103 -165 6 -9 26 -43 45 -75 19 -32 38
-65 43 -73 4 -8 27 -46 52 -85 110 -174 110 -175 109 -245 -3 -186 -15 -250
-50 -250 -7 0 -20 -8 -29 -17 -20 -19 -16 -56 16 -154 43 -132 45 -156 17
-161 -42 -7 -552 1 -583 10 -31 9 -49 35 -94 141 -24 56 -56 126 -112 246 -36
75 -40 117 -26 285 6 83 9 87 97 127 84 39 106 64 115 136 2 15 7 47 11 70 4
23 7 59 8 79 1 20 6 42 11 47 11 11 163 69 203 78 12 3 25 9 28 14 8 14 19 11
36 -8z m-3645 -120 c-2 -5 -32 -66 -67 -138 -35 -71 -66 -132 -69 -135 -3 -3
-60 -113 -126 -245 -66 -132 -124 -243 -128 -246 -5 -3 -8 -9 -8 -13 1 -3 -21
-53 -49 -111 -27 -57 -50 -110 -50 -117 -1 -22 -23 -54 -83 -121 -32 -36 -69
-78 -82 -93 -14 -16 -25 -23 -25 -16 0 11 103 279 143 372 6 14 11 27 12 30 0
3 7 16 15 30 7 14 12 25 10 25 -5 0 140 311 161 345 5 8 13 24 18 35 68 149
153 314 169 328 39 35 172 93 159 70z m-979 -96 c2 -4 -15 -65 -38 -137 -29
-90 -46 -130 -58 -134 -56 -15 -71 -15 -85 -1 -15 15 -100 255 -93 262 2 3 39
7 83 10 43 3 79 6 80 7 7 6 108 0 111 -7z m590 -26 c13 -7 40 -15 61 -19 l38
-7 -112 -228 c-62 -125 -140 -293 -174 -375 -34 -81 -66 -156 -71 -167 -4 -11
-38 -96 -75 -189 -37 -94 -97 -235 -134 -315 -38 -80 -74 -161 -81 -179 -9
-23 -15 -29 -21 -21 -4 7 -6 16 -3 20 2 4 6 155 9 335 l6 329 66 115 c36 63
71 124 77 135 6 11 14 22 17 25 3 3 12 16 19 30 7 14 29 48 50 75 20 28 55 84
76 125 38 74 167 293 186 317 12 14 33 12 66 -6z m5786 -20 c24 -17 68 -40 97
-51 53 -21 119 -57 129 -71 3 -3 15 -9 27 -13 25 -8 34 -37 28 -88 -9 -72 -13
-103 -20 -145 -9 -53 2 -68 55 -77 46 -7 45 4 15 -161 -3 -16 -9 -45 -13 -64
l-7 -34 -50 84 c-27 46 -100 169 -162 273 -62 104 -113 193 -113 197 0 4 -6
14 -13 21 -16 17 -87 137 -87 148 0 5 6 11 13 13 23 9 56 -1 101 -32z m-7740
13 c3 -9 6 -28 6 -44 0 -38 17 -48 77 -45 l53 2 -19 -31 c-19 -31 -67 -123
-194 -366 -38 -74 -72 -137 -74 -140 -4 -5 7 113 12 120 2 3 6 34 10 69 3 35
9 78 12 95 6 37 5 95 -3 107 -2 5 -23 13 -44 19 -54 15 -54 28 -4 148 18 45
39 59 99 69 17 3 32 7 34 9 10 9 29 3 35 -12z m7633 -160 c46 -76 86 -146 90
-154 20 -42 360 -604 439 -725 12 -19 11 -20 -34 -20 l-47 0 -34 -70 c-29 -59
-34 -80 -33 -135 1 -72 16 -110 44 -110 10 0 18 -2 18 -5 0 -3 -21 -31 -46
-63 -25 -31 -55 -70 -67 -85 -42 -55 -59 -54 -97 3 -8 13 -33 46 -56 74 -101
126 -200 264 -306 426 -169 258 -212 324 -213 330 -1 5 -92 147 -140 220 -29
42 -43 79 -40 101 2 8 6 42 10 74 3 33 11 67 16 77 5 10 51 49 102 88 85 64
100 71 192 94 55 13 104 23 110 22 5 -2 47 -65 92 -142z m530 -200 c6 -10 68
-111 136 -224 155 -254 165 -271 174 -290 14 -31 126 -216 143 -235 33 -38 31
-41 -27 -43 -31 -1 -58 -3 -60 -6 -3 -2 -18 0 -34 4 -16 5 -29 6 -29 2 0 -4
-29 -5 -65 -4 -69 4 -67 2 -135 102 -8 12 -27 40 -42 61 -16 21 -28 43 -28 48
0 5 -3 11 -7 13 -18 7 -86 119 -89 144 -1 15 4 68 12 118 8 50 17 105 20 121
2 17 7 42 10 56 8 43 -11 79 -43 79 -39 0 -53 12 -48 40 2 14 6 43 9 65 3 22
8 49 10 60 3 11 5 22 5 25 1 4 31 -42 88 -136z m-4856 -9 c87 -11 82 -7 96
-76 13 -63 12 -64 -14 -91 l-26 -27 -24 31 c-30 41 -71 67 -111 70 -18 1 -32
6 -32 11 0 16 52 97 59 93 4 -3 27 -7 52 -11z m3188 -205 c93 -157 102 -174
136 -235 69 -124 78 -141 87 -152 5 -6 5 -13 1 -16 -11 -6 -333 0 -339 6 -7 7
-72 227 -67 227 2 0 -1 9 -7 20 -9 17 -6 23 22 40 18 11 37 21 42 23 5 2 10
43 12 92 2 50 5 99 8 110 2 11 5 24 5 28 2 17 29 -21 100 -143z m-2486 -154
c232 -4 343 -9 353 -17 10 -9 12 -35 8 -122 -18 -395 -24 -563 -29 -784 -2
-95 -6 -181 -10 -193 -3 -11 -60 -63 -126 -115 -65 -52 -119 -97 -119 -100 0
-2 8 -12 18 -22 19 -18 209 -262 227 -291 6 -9 18 -25 28 -36 11 -13 17 -38
18 -75 1 -89 -3 -351 -6 -406 -2 -27 -6 -169 -10 -315 -6 -286 -10 -345 -20
-372 -9 -23 -4 -23 -335 -14 -399 12 -601 21 -720 32 -30 3 -79 7 -107 8 -29
1 -58 7 -65 14 -6 6 -15 35 -18 64 -10 77 2 1008 14 1123 4 35 15 49 83 113
43 40 88 80 101 89 37 25 40 21 -106 181 -37 41 -72 87 -79 102 -7 15 -15 90
-18 167 -32 838 -34 923 -28 941 3 7 17 19 31 26 26 14 115 14 915 2z m5011
-161 c10 -57 17 -131 21 -230 4 -97 14 -155 33 -178 34 -43 56 -236 37 -317
-3 -14 -8 -50 -11 -80 -3 -30 -7 -63 -9 -72 -11 -57 90 25 106 85 6 23 17 50
24 60 13 18 14 18 25 -3 8 -14 9 -45 5 -88 -4 -37 -8 -133 -11 -214 -4 -155
-12 -185 -86 -323 -44 -80 -77 -150 -73 -153 2 -2 -1 -18 -7 -35 -15 -51 -22
-241 -9 -266 20 -37 87 -23 104 22 3 9 12 17 18 17 12 0 8 -106 -6 -174 -3
-16 -7 -59 -9 -96 -2 -37 -9 -78 -16 -91 -6 -13 -45 -56 -86 -94 l-75 -71 -1
-284 c0 -157 2 -322 5 -367 4 -49 2 -85 -4 -88 -11 -7 -751 -7 -858 0 -41 3
-80 10 -88 16 -7 7 -56 97 -108 200 l-95 189 30 1 c26 1 44 3 79 8 5 0 16 8
25 16 13 14 22 1 85 -122 38 -76 79 -148 90 -159 19 -21 25 -21 367 -21 323 0
349 2 366 19 10 10 18 26 19 36 6 160 21 1179 22 1547 0 154 -3 370 -8 480 -4
110 -7 243 -6 297 l2 96 -36 37 c-20 19 -50 38 -66 42 -17 3 -37 16 -45 29
-14 20 -14 26 0 53 9 17 26 35 37 41 50 27 96 95 127 189 36 105 72 125 86 46z
m-8044 36 c168 -1 311 -5 319 -10 16 -10 16 -29 7 -176 -4 -60 -9 -225 -11
-365 -2 -140 -4 -260 -4 -267 -1 -15 -45 -63 -59 -63 -6 0 -12 -4 -14 -8 -1
-4 -51 -45 -110 -91 -106 -83 -126 -109 -110 -149 7 -21 154 -142 171 -142 5
0 11 -4 13 -8 2 -5 46 -34 99 -66 53 -31 101 -67 106 -79 6 -13 10 -198 11
-464 0 -405 -1 -443 -16 -447 -9 -3 -69 -8 -132 -11 -63 -3 -159 -7 -212 -10
-86 -4 -99 -3 -107 13 -5 10 -13 162 -16 338 -4 175 -8 340 -9 366 -1 35 -7
53 -26 73 -47 50 -72 57 -211 56 -71 -1 -135 -4 -142 -7 -7 -2 -13 -22 -14
-47 -1 -23 -4 -143 -7 -267 -4 -124 -8 -301 -11 -393 -2 -93 -6 -172 -10 -175
-15 -16 -413 2 -429 18 -6 6 -11 112 -12 263 -1 138 -5 369 -9 512 -11 347
-11 1199 -1 1355 4 69 9 144 10 168 4 60 19 71 106 78 41 3 76 7 77 8 2 1 103
1 225 0 123 -1 360 -3 528 -3z m-1268 -85 c25 -7 47 -42 46 -76 -1 -75 14
-585 17 -591 3 -4 7 -89 10 -190 2 -101 7 -259 10 -350 5 -145 4 -169 -10
-183 -9 -9 -22 -17 -28 -17 -63 -6 -102 -9 -232 -15 -82 -3 -222 -8 -310 -9
-88 -1 -164 -3 -169 -4 -5 0 -6 -15 -2 -31 6 -33 25 -79 156 -375 35 -77 82
-185 105 -240 24 -55 64 -144 89 -199 59 -125 72 -178 55 -216 -4 -8 -10 -36
-13 -63 -9 -65 -21 -93 -43 -99 -46 -10 -1063 5 -1083 17 -9 5 -10 33 -6 104
4 53 8 108 11 121 2 14 6 61 10 105 10 128 22 274 30 350 3 28 8 75 10 105 2
30 6 87 10 125 3 39 8 90 10 115 5 59 14 246 20 445 11 328 15 415 30 708 8
150 12 170 47 211 4 6 45 62 89 124 45 63 87 115 93 117 6 2 186 6 399 9 214
2 390 6 392 8 7 6 231 1 257 -6z m3279 -82 c-1 -49 -1 -96 -2 -104 0 -8 0 -62
0 -120 1 -58 1 -112 0 -120 -3 -104 7 -464 13 -494 7 -31 43 -92 68 -116 3 -3
29 -37 58 -76 47 -65 64 -104 45 -104 -5 0 -21 -12 -38 -26 -16 -14 -50 -42
-74 -62 -23 -20 -48 -48 -53 -62 -6 -14 -12 -124 -13 -246 l-3 -220 -31 -61
c-17 -34 -35 -64 -40 -68 -14 -8 -14 10 -6 1040 6 802 4 766 52 893 9 23 18
41 20 38 2 -2 4 -44 4 -92z m-258 42 c15 -10 27 -21 27 -25 0 -3 17 -24 36
-46 20 -22 40 -49 44 -60 4 -11 6 -459 5 -995 -2 -971 -2 -975 -23 -1015 -11
-22 -32 -53 -46 -70 -14 -16 -37 -45 -52 -62 -45 -54 -62 -55 -464 -39 -80 4
-207 8 -284 11 -87 3 -144 9 -153 17 -8 6 -38 46 -66 87 l-52 76 0 925 c0 660
3 933 11 957 12 33 92 138 157 206 20 20 38 37 39 38 2 0 64 3 138 6 74 2 136
6 137 7 1 1 118 2 260 1 234 0 261 -2 286 -19z m1784 -123 c27 -47 28 -51 24
-173 -10 -342 -2 -1011 14 -1220 3 -36 8 -96 11 -135 12 -158 16 -583 5 -589
-6 -4 -11 -1 -11 6 0 8 -20 62 -43 122 -43 105 -44 110 -41 209 3 141 5 331 4
397 0 53 -3 58 -75 150 -41 52 -80 101 -87 109 -43 49 -98 125 -98 135 0 7 15
24 33 38 17 15 42 35 53 45 12 10 38 31 59 47 35 28 52 56 61 100 2 11 6 182
10 380 6 347 10 468 14 511 1 12 9 -1 20 -32 10 -28 31 -73 47 -100z m554 130
c8 -8 11 -216 11 -770 -1 -755 -1 -758 20 -789 12 -17 33 -35 47 -41 14 -5 94
-10 176 -11 83 -1 162 -5 177 -8 34 -7 45 -39 53 -154 3 -47 8 -107 10 -135 2
-27 7 -93 10 -145 3 -52 9 -117 12 -145 8 -83 6 -102 -17 -150 -14 -29 -32
-50 -48 -56 -25 -9 -608 -17 -779 -10 -108 5 -100 -14 -107 261 -7 262 -14
453 -21 520 -5 56 -9 267 -20 930 -7 374 -8 457 -6 496 1 31 127 191 159 201
15 5 63 10 107 12 44 2 81 4 82 5 8 7 125 -2 134 -11z m1214 -98 c99 -3 238
-7 309 -9 173 -5 168 1 160 -196 -7 -200 -8 -367 0 -625 3 -121 3 -233 0 -250
-4 -20 -20 -41 -51 -64 -85 -65 -103 -87 -103 -123 0 -60 19 -104 69 -156 58
-61 69 -96 71 -242 1 -58 3 -170 6 -250 10 -313 10 -406 1 -427 -5 -11 -21
-23 -36 -26 -14 -3 -120 -3 -236 -1 -115 2 -315 6 -443 8 -168 3 -237 8 -248
17 -13 10 -15 40 -12 182 4 223 -18 205 262 206 118 0 221 4 230 7 10 4 35 33
56 65 l39 58 -4 107 c-2 58 -7 116 -11 127 -4 12 -25 38 -48 57 -22 19 -56 50
-76 68 -42 40 -46 41 -185 47 -169 8 -183 9 -191 18 -5 4 -9 73 -10 153 -1
130 1 146 17 154 10 6 92 11 183 13 122 3 170 7 186 18 12 8 47 55 77 104 l54
90 -6 105 c-4 58 -8 123 -10 145 -2 33 -10 47 -52 85 -45 41 -54 45 -103 46
-106 3 -385 16 -414 19 -52 5 -56 20 -50 214 6 217 9 252 24 261 12 8 179 6
545 -5z m1192 -112 c12 -7 25 -23 29 -35 4 -13 14 -30 23 -38 9 -8 32 -35 51
-60 19 -25 37 -47 40 -50 3 -3 21 -30 40 -60 19 -30 45 -66 57 -80 13 -14 23
-30 23 -37 0 -6 4 -13 8 -15 5 -1 41 -44 81 -95 40 -51 78 -90 84 -87 7 2 24
21 38 42 51 71 324 355 408 425 l33 28 154 -2 c127 -1 156 -4 172 -17 10 -10
21 -22 23 -27 2 -6 24 -46 49 -90 l45 -80 -1 -460 c-4 -1132 -13 -1758 -26
-1767 -7 -4 -51 -8 -98 -9 -47 -1 -119 -3 -160 -4 -240 -9 -271 -8 -283 4 -9
9 -12 147 -12 592 0 630 3 599 -56 594 -38 -3 -63 -26 -91 -84 -39 -81 -119
-214 -136 -227 -10 -7 -54 -12 -113 -12 -79 -1 -100 2 -112 16 -14 15 -125
240 -129 259 -3 19 -33 29 -71 24 l-42 -6 2 -195 c2 -266 15 -670 28 -895 8
-123 5 -126 -110 -126 -242 0 -331 3 -343 10 -10 6 -14 92 -18 392 -2 211 -6
449 -9 529 -4 165 -16 1032 -18 1311 l-1 185 37 60 c43 71 63 91 97 96 67 9
286 2 307 -9z m-5836 -165 c2 -262 0 -313 -15 -354 -8 -21 -29 -85 -48 -141
-18 -57 -36 -103 -40 -103 -4 0 -19 23 -34 50 -23 42 -32 50 -56 50 -24 0 -32
6 -44 37 -18 43 -13 92 15 155 23 51 35 80 90 213 56 133 114 255 124 255 4 0
8 -73 8 -162z m5225 45 c9 -21 30 -50 45 -64 31 -29 31 -25 30 -341 -1 -210 4
-196 -82 -232 l-36 -15 2 312 c2 371 3 377 14 377 5 0 17 -17 27 -37z m-8566
-43 c17 -16 38 -30 46 -30 16 0 16 -64 0 -340 -3 -36 -7 -128 -11 -205 -3 -77
-8 -162 -10 -190 -5 -63 -13 -159 -20 -255 -4 -41 -8 -97 -11 -125 -2 -27 -6
-84 -9 -125 -3 -41 -7 -97 -9 -125 -3 -27 -8 -104 -11 -170 -4 -66 -8 -149
-11 -185 -3 -36 -6 -90 -8 -120 -4 -53 -14 -163 -21 -225 -2 -16 -7 -68 -10
-115 -4 -47 -8 -95 -10 -107 -2 -14 3 -24 13 -27 21 -6 228 -1 802 19 328 12
491 24 507 37 7 5 43 69 81 141 86 163 265 512 304 590 15 31 29 57 31 57 4 0
8 -137 11 -332 0 -64 4 -119 8 -123 3 -3 134 -7 290 -7 258 0 288 1 314 18 52
32 117 107 189 217 39 59 73 107 76 107 3 0 5 -68 4 -150 -1 -108 2 -156 11
-169 10 -14 28 -18 86 -20 40 -1 123 -5 183 -8 61 -3 165 -7 232 -7 139 -1
148 3 158 70 3 22 10 55 15 72 5 18 6 32 4 32 -3 0 -2 6 3 13 4 6 9 21 10 31
2 10 13 55 24 100 12 45 22 88 24 96 10 50 38 146 43 152 4 4 7 -75 6 -175 0
-100 4 -191 9 -202 14 -28 120 -166 144 -188 25 -22 42 -25 173 -32 58 -2 166
-8 240 -11 125 -7 277 -8 458 -5 70 1 76 3 105 34 39 40 67 75 67 83 0 3 16
25 36 49 20 24 53 86 74 137 21 51 42 94 48 96 6 2 9 -110 8 -323 -2 -258 0
-328 11 -336 7 -6 46 -13 85 -14 201 -9 412 -16 588 -20 107 -3 258 -7 335
-10 419 -16 422 -16 446 4 21 17 22 23 20 152 -6 273 -6 299 -1 299 3 0 27
-48 54 -106 28 -59 59 -110 70 -117 15 -7 176 -11 524 -13 l503 -2 16 24 c13
21 15 48 9 187 -3 89 -9 187 -11 217 -11 118 -12 131 -5 135 4 2 18 -26 31
-63 23 -63 24 -79 24 -294 0 -255 0 -254 72 -267 65 -12 971 -22 1030 -11 49
8 43 17 103 -150 23 -63 46 -128 52 -143 12 -32 46 -50 65 -35 8 6 123 10 295
10 155 0 293 4 306 9 22 9 23 11 18 111 -6 109 -14 375 -20 671 -3 97 -1 177
4 177 4 0 13 -12 19 -27 20 -52 93 -169 220 -353 48 -69 93 -137 100 -151 19
-39 2 -64 -45 -67 -21 -2 -40 -5 -42 -7 -2 -2 -16 1 -31 6 -18 6 -34 25 -50
59 -29 61 -44 74 -75 66 -36 -9 -39 -40 -21 -236 3 -41 8 -95 10 -120 3 -25 7
-83 10 -129 3 -46 8 -87 10 -91 9 -15 -17 -35 -47 -37 -86 -6 -705 -12 -719
-8 -9 3 -23 20 -30 38 -22 56 -90 221 -105 254 -12 26 -64 60 -76 48 -1 -2
-39 -6 -83 -10 -44 -3 -105 -9 -135 -12 -48 -5 -753 -5 -820 0 -17 1 -29 11
-39 34 -8 17 -23 35 -35 40 -11 6 -97 11 -191 12 -171 3 -330 8 -330 11 0 0
-109 3 -242 6 -257 5 -292 0 -294 -40 -1 -12 -3 -48 -4 -81 -1 -33 -3 -65 -3
-71 -3 -16 -58 -18 -562 -16 -579 1 -1083 11 -1092 20 -4 4 -10 68 -13 142 -4
74 -12 146 -18 160 -20 41 -55 37 -124 -13 -33 -25 -70 -50 -82 -56 -31 -17
-403 -13 -511 5 -19 3 -115 7 -213 9 -204 4 -206 5 -258 87 -67 106 -100 124
-131 71 -11 -17 -21 -44 -24 -60 -7 -35 -5 -34 -50 -35 -95 -2 -699 14 -704
19 -6 6 -7 13 -9 72 -1 63 -27 99 -59 82 -11 -6 -42 -39 -68 -74 -26 -34 -53
-67 -60 -72 -22 -19 -684 -26 -706 -8 -7 6 -13 29 -12 52 1 77 -52 78 -99 4
-13 -21 -70 -111 -126 -201 -72 -113 -109 -163 -124 -167 -47 -9 -444 -23
-897 -31 -368 -6 -386 -7 -395 -16 -14 -14 6 -78 31 -102 l26 -23 -48 3 c-145
12 -194 89 -185 290 1 11 8 29 15 40 14 18 15 18 26 -13 7 -18 16 -33 21 -33
5 0 9 15 10 33 0 17 2 48 4 67 17 166 15 193 -17 285 -17 50 -46 108 -63 130
-45 57 -54 76 -60 137 -4 29 -8 58 -10 65 -2 6 3 17 11 24 13 11 22 6 56 -29
54 -57 73 -57 44 0 -53 100 -82 240 -90 430 -3 66 -1 90 10 99 11 9 18 6 34
-12 10 -13 19 -27 20 -31 0 -6 31 -19 58 -24 7 -1 25 8 41 21 36 31 75 156 68
218 -6 59 -8 63 -51 147 -28 53 -41 90 -42 125 -2 28 -5 67 -7 88 -4 38 15
154 32 193 7 16 16 20 40 16 85 -12 108 26 78 128 -19 67 -34 180 -24 180 4 0
20 -13 37 -30z m7241 -385 c50 -99 117 -232 151 -295 51 -97 61 -123 63 -175
2 -33 6 -116 10 -185 5 -114 17 -179 34 -181 3 0 23 -2 44 -4 22 -1 51 -11 65
-22 15 -11 72 -96 129 -189 93 -154 118 -204 94 -190 -4 3 -89 6 -188 6 -175
1 -181 2 -191 23 -33 65 -115 288 -118 322 -5 45 -23 95 -34 95 -6 0 -37 62
-102 210 -11 25 -34 74 -50 108 -84 180 -91 218 -59 314 20 62 54 200 66 268
8 44 -6 62 -68 85 -48 17 -48 18 -43 54 3 20 10 53 15 74 5 20 7 37 4 37 -2 0
-1 5 3 11 4 7 24 -33 46 -87 21 -55 80 -180 129 -279z m677 74 c36 -22 44 -50
47 -161 3 -105 2 -111 -23 -149 -15 -21 -30 -38 -34 -39 -3 0 -31 39 -61 88
-98 158 -167 272 -167 277 0 10 220 -5 238 -16z m-1003 -193 c1 -6 7 -24 14
-41 7 -16 30 -75 52 -130 22 -55 46 -113 53 -130 37 -81 68 -150 115 -249 29
-60 50 -110 48 -113 -3 -2 -77 -5 -165 -6 -144 -2 -161 -1 -165 14 -5 18 -6
68 -12 518 l-4 264 31 -58 c16 -32 31 -63 33 -69z m-3847 -4 c14 -29 24 -38
51 -42 26 -4 38 -14 55 -45 37 -65 37 -79 0 -172 -19 -47 -35 -88 -37 -90 -2
-1 -17 7 -34 20 -16 12 -41 30 -54 40 -98 72 -166 117 -190 127 -39 16 -41 31
-10 65 52 59 177 147 194 138 4 -3 15 -21 25 -41z m267 -224 c-4 -84 -7 -187
-7 -228 0 -58 -13 -127 -59 -310 -32 -129 -62 -243 -66 -253 -5 -9 -9 54 -11
140 -1 87 -4 222 -6 300 -3 147 0 162 54 278 10 21 33 77 35 85 0 3 7 16 15
30 7 14 13 26 12 27 -2 4 33 83 36 83 2 0 1 -69 -3 -152z m5306 95 c0 -10 3
-52 6 -93 7 -106 9 -1450 3 -1486 l-6 -29 -12 35 c-7 19 -12 38 -12 43 0 4 -6
23 -14 42 -9 20 -16 39 -17 43 -2 9 -8 29 -19 62 -18 55 -22 92 -25 294 -6
295 -17 475 -31 519 -6 19 -21 38 -82 108 -61 69 -54 98 43 192 59 57 57 49
56 185 0 61 2 72 17 72 9 1 28 7 42 15 34 19 50 18 51 -2z m-6997 -436 l0
-182 -59 -145 c-32 -80 -71 -166 -86 -191 -15 -26 -65 -122 -112 -215 -100
-200 -130 -256 -142 -258 -4 0 -14 15 -20 35 -13 36 -101 247 -135 324 -80
178 -231 539 -233 557 -2 19 3 23 28 24 17 1 96 4 178 8 81 4 147 4 145 -1 -1
-4 2 -32 6 -61 10 -68 15 -153 9 -169 -5 -12 -57 -45 -148 -94 -57 -31 -75
-53 -58 -70 8 -8 20 -6 47 6 34 16 38 16 55 1 10 -9 28 -35 40 -59 46 -88 40
-86 133 -30 l83 49 -1 105 c-1 57 -4 119 -7 137 -5 30 -3 32 25 32 43 0 66 16
73 52 21 108 29 127 56 138 39 17 53 35 83 118 15 39 31 72 35 72 3 0 6 -82 5
-183z m867 -48 c5 -11 12 -74 15 -142 3 -67 7 -133 8 -147 1 -14 -8 -41 -20
-61 -66 -107 -234 -358 -244 -364 -10 -6 -11 45 -5 226 4 129 8 254 10 279 2
25 4 82 5 128 3 100 11 111 80 109 27 0 52 2 55 5 11 11 86 -15 96 -33z
m-1075 -21 c-11 -65 -27 -84 -75 -86 -22 -1 -44 -2 -48 -3 -33 -6 -47 15 -58
89 l-6 40 97 1 97 2 -7 -43z m6437 -117 c36 -14 97 -82 98 -110 6 -113 1 -189
-16 -214 -9 -15 -20 -27 -24 -27 -3 0 -15 17 -27 38 -11 20 -36 64 -54 97 -19
33 -58 100 -87 149 l-54 88 71 -6 c39 -4 81 -11 93 -15z m1991 -225 c-1 -33
-5 -108 -8 -165 -3 -58 -10 -109 -15 -114 -6 -6 -34 -19 -63 -31 -56 -22 -75
-48 -83 -107 -4 -30 -12 -47 -18 -38 -2 2 -33 45 -70 95 -37 50 -67 96 -67
102 0 6 -4 12 -8 14 -9 3 -72 111 -72 122 0 3 48 6 108 6 171 0 196 13 257
137 17 34 33 56 36 51 4 -6 5 -38 3 -72z m-19 -541 c0 -113 -2 -205 -5 -205
-3 0 -27 42 -54 93 -54 100 -65 160 -42 236 14 49 18 53 64 67 20 7 37 12 37
13 0 1 0 -91 0 -204z"/>
<path d="M1170 7263 c5 -55 6 -58 30 -55 42 4 44 18 11 66 -18 25 -35 46 -39
46 -4 0 -5 -26 -2 -57z"/>
<path d="M5305 6527 c4 -106 9 -226 10 -267 2 -41 6 -138 9 -215 4 -77 8 -193
11 -259 3 -98 7 -122 23 -140 10 -11 34 -39 53 -60 19 -21 41 -46 50 -55 50
-49 109 -124 109 -136 0 -15 -15 -31 -150 -159 l-73 -69 -3 -71 c-19 -540 -20
-1032 -2 -1062 9 -14 93 -17 117 -4 11 5 38 40 61 77 60 95 75 110 134 124 28
6 54 17 58 22 8 13 -1 139 -11 149 -3 4 -21 8 -39 10 -18 1 -41 10 -52 20 -18
17 -19 30 -14 190 3 95 5 196 6 223 1 63 4 70 81 146 158 158 205 199 230 199
24 0 53 -29 168 -165 19 -22 39 -46 46 -53 7 -7 29 -33 49 -58 42 -51 41 -34
29 -334 -6 -158 -10 -177 -40 -182 -22 -5 -176 -2 -319 5 l-68 4 5 -94 c5 -84
4 -96 -14 -114 -10 -10 -27 -20 -36 -20 -10 -1 -22 -2 -28 -4 -5 -1 -21 -3
-34 -3 -28 -2 -25 -12 27 -92 59 -92 19 -84 467 -95 143 -3 261 -8 264 -10 2
-2 11 0 21 5 16 8 18 31 20 207 2 202 6 336 14 478 15 240 6 401 -23 425 -3 3
-26 32 -51 65 -25 33 -79 103 -122 156 -108 135 -110 163 -12 233 l54 40 -22
25 c-34 38 -39 40 -83 34 -38 -5 -43 -2 -92 48 l-51 52 -82 -81 c-93 -93 -112
-107 -137 -93 -10 5 -52 45 -93 89 -101 106 -119 127 -170 196 l-44 58 -1 147
c-1 80 3 159 8 174 18 54 30 57 330 63 268 6 276 5 286 -14 12 -23 17 -346 6
-404 -4 -20 -15 -45 -26 -57 -26 -28 -24 -36 17 -77 24 -25 40 -34 52 -29 44
18 56 14 102 -34 46 -48 48 -48 73 -33 14 9 30 25 36 36 5 12 12 113 16 226 3
113 8 225 9 250 13 174 22 465 17 535 -1 13 -12 14 -644 19 l-538 5 6 -192z"/>
<path d="M5965 6232 c-2 -2 -80 -4 -174 -4 -120 0 -171 -4 -172 -12 -7 -55 -3
-265 4 -281 8 -17 80 -109 97 -125 3 -3 37 -41 74 -85 38 -44 73 -81 77 -83
16 -6 239 221 247 251 8 32 6 311 -2 333 -4 10 -25 13 -76 11 -39 -1 -73 -3
-75 -5z m-149 -257 l5 -168 -46 49 c-42 44 -46 53 -41 88 2 21 10 42 16 46 6
4 11 11 10 16 -2 14 41 146 46 141 3 -3 7 -80 10 -172z m130 133 c4 -13 24
-60 45 -106 22 -45 39 -84 39 -86 0 -8 -121 -129 -125 -125 -6 7 -13 347 -7
353 9 10 41 -14 48 -36z m101 -10 c-3 -22 -4 -21 -16 6 -9 23 -9 31 1 37 15
10 21 -9 15 -43z m-327 33 c0 -6 -4 -13 -10 -16 -5 -3 -10 1 -10 9 0 9 5 16
10 16 6 0 10 -4 10 -9z"/>
<path d="M5777 4998 l-123 -123 0 -192 c1 -105 3 -194 6 -196 11 -11 440 -30
465 -21 6 3 12 10 12 17 0 7 4 93 7 192 l7 180 -37 40 c-20 22 -57 63 -83 91
-26 28 -63 70 -81 93 -18 22 -37 41 -41 41 -4 0 -63 -55 -132 -122z m238 -133
c37 -53 37 -54 40 -169 3 -71 0 -114 -6 -111 -5 4 -9 12 -9 18 0 7 -25 88 -55
182 -30 93 -55 174 -55 180 0 13 38 -32 85 -100z m-199 -4 c-8 -33 -29 -90
-46 -127 -16 -37 -30 -74 -30 -83 0 -13 -2 -14 -9 -2 -5 8 -8 24 -6 35 2 12 6
53 9 92 5 66 8 74 48 118 23 26 44 43 46 37 2 -6 -4 -37 -12 -70z m125 -193
c21 -64 39 -119 39 -122 0 -9 -167 -4 -180 4 -9 6 14 82 49 165 5 11 17 40 27
65 14 32 20 39 23 25 2 -11 21 -72 42 -137z"/>
<path d="M5571 4066 c-12 -18 -21 -37 -21 -42 0 -5 27 -10 60 -12 l61 -2 -33
45 c-18 24 -36 44 -40 45 -3 0 -16 -15 -27 -34z"/>
<path d="M2597 6603 c-1 -1 -70 -4 -152 -8 -82 -3 -153 -9 -158 -14 -12 -12
-15 -39 -23 -183 -8 -148 -7 -268 1 -277 3 -3 9 -1 13 4 11 16 88 55 108 55
11 0 32 -13 47 -30 16 -16 35 -30 43 -30 25 0 108 22 119 31 5 5 10 33 11 62
1 28 2 61 3 73 1 11 11 31 22 43 22 23 22 23 249 18 136 -3 235 -9 247 -16 12
-6 25 -23 30 -38 11 -31 9 -338 -2 -372 -4 -14 -30 -34 -73 -55 -133 -65 -288
-150 -318 -173 -51 -38 -71 -32 -135 45 -40 46 -39 44 -26 258 2 28 0 60 -4
71 -7 20 -9 20 -62 6 l-54 -16 -14 -54 c-9 -42 -20 -61 -45 -80 -32 -24 -33
-27 -36 -106 -3 -78 -4 -81 -33 -97 -16 -9 -47 -22 -67 -29 l-37 -12 5 -187
c3 -103 7 -261 10 -352 2 -91 6 -309 9 -484 2 -176 8 -323 12 -327 4 -4 45
-10 89 -13 45 -3 116 -9 158 -12 59 -4 76 -3 77 8 1 7 2 138 4 290 4 383 13
560 30 577 13 14 48 22 96 22 37 1 49 33 49 128 0 51 4 82 13 88 15 12 101 38
192 58 109 24 112 26 117 86 4 36 11 57 24 66 11 8 28 21 39 31 11 9 63 50
115 91 52 40 100 80 107 88 8 10 11 55 11 132 -1 64 2 204 7 311 4 107 8 221
9 253 2 46 0 57 -13 57 -9 1 -162 3 -341 5 -179 2 -358 5 -398 7 -41 2 -74 2
-75 1z"/>
<path d="M2678 6292 c-13 -2 -18 -14 -19 -40 0 -20 -3 -130 -5 -243 l-5 -207
27 -31 c14 -17 31 -31 36 -31 6 0 34 15 62 34 28 18 76 45 106 60 30 15 62 31
70 36 8 4 40 20 70 35 68 33 76 43 80 102 7 89 1 266 -9 276 -9 9 -374 17
-413 9z m200 -71 c-46 -96 -134 -255 -144 -258 -12 -4 -6 250 6 257 12 8 141
9 138 1z m150 -103 l-3 -113 -100 -52 c-55 -28 -108 -53 -118 -56 -17 -5 10
51 96 203 11 19 29 53 40 75 22 46 33 55 65 55 22 0 23 -1 20 -112z"/>
<path d="M2312 6088 l-62 -32 -1 -65 c0 -36 -1 -106 -2 -154 -1 -49 1 -91 5
-93 4 -3 24 3 44 13 l38 18 0 75 c1 74 1 75 42 116 43 43 59 91 40 115 -30 39
-40 39 -104 7z"/>
<path d="M3010 5428 c-94 -22 -140 -37 -140 -47 0 -3 21 -28 47 -56 98 -106
139 -153 177 -197 l39 -46 3 -178 c2 -99 6 -231 8 -294 3 -63 5 -146 5 -184
l1 -68 83 6 c45 3 125 9 177 12 52 3 97 8 100 11 10 9 0 788 -11 814 -6 15
-21 31 -34 37 -13 6 -89 56 -169 111 -104 72 -153 101 -173 100 -15 0 -66 -10
-113 -21z"/>
<path d="M2846 5268 c1 -24 3 -46 3 -50 1 -10 81 -11 81 -2 0 11 -70 94 -79
94 -4 0 -7 -19 -5 -42z"/>
<path d="M1568 6513 c-6 -7 -7 -13 -4 -13 4 0 2 -10 -5 -21 -15 -29 2 -39 50
-28 31 7 81 50 81 70 0 12 -112 4 -122 -8z"/>
<path d="M1752 6491 c-59 -80 -110 -112 -165 -104 -23 3 -38 -5 -78 -42 -26
-25 -55 -45 -63 -45 -22 0 -47 -43 -42 -71 3 -13 5 -27 5 -31 1 -3 50 -6 110
-6 113 0 143 -8 162 -44 14 -25 22 -609 9 -643 -15 -39 -30 -41 -355 -50 -282
-8 -269 -19 -281 245 -16 354 -18 332 50 413 52 62 80 76 161 81 36 2 67 5 70
7 2 3 5 23 6 44 3 55 19 77 83 114 37 20 56 38 56 50 0 10 7 35 15 54 8 20 15
40 15 45 0 11 -627 8 -652 -3 -10 -4 -18 -10 -18 -15 0 -4 -33 -52 -74 -108
-41 -55 -80 -110 -86 -122 -6 -12 -13 -65 -15 -118 -5 -132 -16 -365 -21 -432
-2 -30 -6 -165 -8 -300 -2 -135 -7 -267 -10 -295 -3 -27 -8 -82 -11 -121 -3
-40 -8 -91 -10 -115 -14 -131 -17 -169 -18 -224 -2 -69 0 -70 93 -47 111 28
137 22 205 -48 60 -62 65 -63 112 -22 51 47 134 111 166 130 21 13 28 13 41 3
21 -18 12 -33 -52 -84 -31 -25 -79 -66 -106 -90 l-49 -45 35 -42 c20 -23 35
-48 34 -55 -2 -15 -31 -53 -81 -110 -52 -58 -51 -59 60 -172 l102 -103 196 1
c220 1 196 -9 214 85 12 67 8 98 -24 164 -35 72 -43 90 -138 310 -37 85 -78
179 -91 208 -13 29 -24 55 -24 57 0 3 -13 33 -29 67 -93 202 -114 272 -93 305
9 14 88 44 95 37 7 -8 125 -7 347 1 346 12 321 7 315 63 -7 69 -32 789 -39
1129 -1 62 -6 116 -10 120 -4 4 -25 8 -47 9 -35 1 -44 -4 -67 -35z"/>
<path d="M1280 6132 l-75 -2 -51 -56 -51 -55 3 -112 c11 -360 15 -396 43 -398
46 -4 426 9 466 15 18 3 20 12 23 77 1 41 3 79 3 84 2 63 -14 432 -20 437 -8
9 -219 15 -341 10z m140 -74 c0 -4 -14 -34 -31 -65 -18 -32 -61 -114 -96 -183
-69 -132 -82 -153 -84 -129 0 7 -2 23 -4 34 -1 11 -5 54 -9 95 -3 41 -9 100
-12 131 -5 54 -4 57 26 83 39 32 73 41 162 41 26 0 48 -3 48 -7z m131 -5 c13
-73 20 -431 10 -437 -5 -4 -60 -9 -123 -12 -62 -4 -122 -7 -133 -8 -11 -1 -23
-1 -27 1 -6 3 62 144 112 233 5 8 30 58 56 110 26 52 51 101 57 108 10 13 46
17 48 5z"/>
<path d="M735 4560 c-11 -5 -45 -13 -75 -19 -30 -6 -60 -15 -67 -19 -6 -4 -14
-32 -18 -62 -3 -30 -8 -71 -10 -90 -2 -19 -7 -62 -10 -95 -3 -33 -8 -73 -11
-90 -2 -16 -7 -68 -10 -115 l-6 -86 144 -3 c78 -1 196 -4 261 -5 84 -2 117 1
117 9 0 11 -28 39 -152 152 -44 41 -44 41 39 144 29 36 53 71 53 77 0 12 -185
201 -197 203 -5 0 -15 2 -23 3 -8 2 -24 0 -35 -4z"/>
<path d="M4407 6494 c-1 -1 -63 -4 -137 -5 -74 -1 -144 -7 -155 -12 -11 -5
-42 -36 -70 -69 -27 -33 -63 -75 -79 -93 l-28 -34 1 -268 c2 -397 2 -458 0
-688 -2 -305 2 -581 10 -593 4 -6 35 15 76 53 78 72 98 77 152 40 40 -27 43
-26 121 27 l43 30 -27 26 c-15 15 -47 58 -72 96 l-45 69 -3 201 c-2 111 -4
297 -6 415 l-3 213 45 40 c71 62 95 71 193 74 49 1 91 5 93 7 13 12 91 -17
129 -48 23 -19 47 -35 54 -35 7 0 32 19 57 42 75 70 89 77 140 66 25 -6 48 -7
51 -4 3 3 7 71 8 151 2 81 6 149 9 152 8 8 -19 53 -62 102 l-39 45 -227 1
c-125 0 -228 0 -229 -1z"/>
<path d="M4796 5935 l-68 -61 2 -90 c3 -138 8 -294 15 -469 12 -268 10 -284
-39 -342 -37 -44 -80 -60 -176 -67 -83 -6 -85 -6 -128 -49 l-43 -43 85 -58
c101 -69 97 -61 123 -255 6 -47 -8 -67 -37 -51 -12 6 -20 36 -29 105 -15 107
-10 99 -143 188 l-57 39 -44 -26 -44 -26 -39 28 c-22 16 -46 27 -54 24 -18 -6
-113 -84 -152 -124 -22 -23 -27 -38 -28 -86 -1 -31 -2 -68 -3 -82 -1 -32 34
-105 71 -146 34 -39 50 -42 247 -49 88 -3 205 -8 260 -11 243 -13 269 -12 307
3 20 8 40 22 43 31 3 10 24 37 46 62 23 25 44 54 48 65 7 20 5 1056 -2 1353
-3 90 -9 168 -14 173 -6 6 -26 14 -45 18 -32 7 -38 4 -102 -54z"/>
<path d="M4430 5959 c-85 -7 -126 -24 -163 -68 l-25 -30 4 -383 4 -382 43 -62
c23 -35 51 -67 62 -71 29 -13 216 -6 244 9 24 13 54 36 90 69 13 12 17 29 16
65 -16 332 -33 632 -40 689 -2 17 -4 43 -4 58 -1 18 -13 39 -33 58 -55 51 -86
58 -198 48z m43 -79 c59 8 106 -7 114 -38 7 -28 -4 -63 -52 -167 -18 -38 -43
-95 -55 -125 -21 -52 -31 -74 -92 -210 -14 -30 -31 -72 -39 -92 -7 -21 -16
-38 -19 -38 -4 0 -7 17 -8 38 0 20 -3 132 -7 247 -11 340 -12 328 17 355 25
23 79 41 91 30 4 -3 26 -4 50 0z m132 -528 c0 -305 -1 -307 -131 -315 -80 -5
-99 8 -90 62 12 74 194 501 214 501 4 0 7 -111 7 -248z"/>
<path d="M7107 6494 c-2 -2 -42 -5 -90 -7 l-87 -3 -55 -73 c-30 -40 -56 -82
-56 -94 -5 -74 0 -180 9 -189 5 -5 37 -11 71 -14 35 -2 69 -11 76 -18 35 -34
69 -116 80 -190 7 -49 10 -54 49 -70 18 -8 43 -24 54 -37 12 -12 24 -21 26
-18 2 2 6 164 8 359 l3 355 -43 1 c-23 0 -44 -1 -45 -2z"/>
<path d="M6824 5805 c2 -135 5 -248 8 -251 3 -3 30 7 60 21 l54 26 23 87 c12
48 22 90 22 94 0 4 4 21 9 37 4 16 5 32 2 36 -4 4 -7 12 -7 18 -1 22 -27 101
-42 132 -21 40 -30 45 -85 45 l-47 0 3 -245z"/>
<path d="M7056 5748 c-7 -18 -21 -66 -31 -106 -19 -80 -38 -105 -94 -123 -20
-7 -49 -20 -66 -29 l-30 -17 2 -174 c3 -238 11 -565 18 -734 4 -77 8 -190 9
-252 1 -62 5 -115 8 -118 8 -8 735 -13 773 -5 52 10 57 47 40 275 -3 39 -8 97
-10 130 -9 160 -16 241 -20 256 -4 11 -19 15 -58 16 -28 0 -109 1 -180 2 -116
1 -129 3 -145 22 -9 12 -32 36 -49 55 -37 38 -35 29 -32 234 2 176 2 256 -2
379 l-2 94 -46 60 c-25 34 -52 63 -59 65 -7 2 -18 -11 -26 -30z"/>
<path d="M7955 6388 c-7 -22 -13 -335 -6 -346 6 -9 114 -18 359 -27 112 -5
125 -9 194 -69 50 -43 59 -63 63 -141 2 -27 6 -92 9 -143 4 -67 2 -101 -8
-125 -24 -56 -127 -201 -153 -215 -17 -10 -76 -15 -180 -18 -84 -2 -158 -6
-163 -9 -12 -7 -14 -205 -2 -206 4 0 16 -2 27 -5 11 -2 74 -6 141 -7 143 -4
132 2 302 -155 38 -35 38 -35 47 -217 l5 -100 -36 -58 c-19 -31 -37 -68 -40
-80 -4 -25 26 -66 51 -68 8 -1 20 -3 25 -4 6 -1 17 -3 25 -4 9 0 23 -17 32
-37 12 -23 22 -34 33 -30 53 17 106 39 115 47 5 5 17 9 26 9 44 0 47 18 43
232 -6 303 -8 311 -90 400 -24 26 -45 53 -45 60 -14 124 1 200 41 213 8 3 36
24 61 47 l45 43 -2 135 c-9 429 -11 473 -30 487 -10 7 -23 13 -29 13 -13 0
-28 28 -44 81 -11 33 -16 37 -108 70 -57 20 -101 42 -109 54 -7 11 -14 46 -16
78 -2 34 -9 63 -16 70 -8 6 -42 12 -75 14 -34 1 -93 5 -132 7 -225 15 -355 16
-360 4z"/>
<path d="M8592 6316 c4 -57 20 -86 48 -86 9 0 20 -3 24 -7 4 -5 11 -8 14 -8
21 -2 112 -38 120 -48 6 -7 16 -31 22 -54 15 -50 40 -65 41 -25 0 15 3 84 5
155 l5 127 -141 0 -141 0 3 -54z"/>
<path d="M8165 4432 c-82 -1 -154 -7 -159 -12 -7 -7 -11 -124 -7 -230 2 -53
-4 -52 335 -57 257 -3 316 -2 316 9 -1 30 -56 172 -70 179 -8 4 -27 10 -41 13
-17 4 -40 24 -61 52 l-35 47 -64 1 c-35 0 -131 0 -214 -2z"/>
<path d="M8768 4292 c-43 -20 -77 -42 -78 -48 0 -22 43 -114 54 -115 130 -9
128 -10 122 103 -2 51 -5 94 -5 96 -2 6 -22 -1 -93 -36z"/>
<path d="M9359 6278 c-24 -8 -69 -65 -77 -97 -6 -23 -8 -941 -2 -941 3 0 5
-102 6 -226 0 -135 4 -228 10 -232 5 -4 25 -31 43 -60 28 -44 39 -53 60 -52
14 1 34 2 43 1 10 -1 51 -49 95 -111 43 -60 81 -110 85 -110 4 0 6 53 3 118
-2 64 -5 117 -5 117 -2 0 -9 189 -11 278 -1 37 2 72 8 78 5 5 50 12 100 14
l91 5 71 -144 c39 -80 77 -148 84 -153 18 -11 118 -13 138 -2 10 5 24 20 31
33 7 14 23 44 36 68 13 24 47 82 76 129 l52 84 83 -2 c59 -1 89 -6 99 -16 14
-15 17 -201 10 -770 -1 -91 2 -121 12 -127 8 -5 18 -6 23 -3 19 12 64 -20 89
-65 15 -26 35 -56 46 -65 17 -16 22 -16 56 -2 43 18 79 11 74 -13 -3 -13 -39
-38 -86 -58 -2 -1 4 -17 13 -35 l16 -34 97 3 c53 2 101 8 107 13 6 6 9 94 7
237 -5 327 -5 875 0 1105 2 108 1 197 -3 197 -4 0 -27 -11 -50 -25 -74 -42
-84 -37 -159 75 -8 13 -30 43 -47 67 -18 24 -33 46 -33 49 0 5 -14 23 -43 55
-17 19 -17 19 -54 -1 -63 -33 -87 -27 -132 33 -21 28 -66 81 -100 117 l-60 65
-79 -84 c-89 -96 -117 -106 -160 -55 -13 16 -34 40 -46 54 -12 14 -32 41 -46
60 -13 19 -29 40 -35 47 -5 7 -30 42 -55 78 -67 99 -132 187 -180 247 -24 29
-46 55 -48 58 -6 8 -227 7 -253 -2z"/>
<path d="M10603 6212 c-18 -3 -195 -168 -282 -265 l-24 -26 55 -63 c31 -35 75
-84 99 -111 l44 -47 47 25 c59 31 72 31 97 -1 23 -29 22 -29 80 24 32 30 33
41 9 104 -23 60 -30 90 -32 133 -1 25 3 30 23 30 22 0 28 -10 58 -100 50 -150
50 -148 -13 -213 -30 -30 -54 -57 -54 -61 0 -3 9 -17 20 -31 11 -14 20 -31 20
-37 0 -7 3 -13 8 -13 4 0 16 -16 26 -35 10 -19 27 -42 37 -51 17 -15 21 -15
56 7 71 43 67 25 67 313 l0 261 -45 73 c-25 42 -52 75 -64 77 -25 6 -202 11
-232 7z"/>
<path d="M9297 4653 c-4 -6 -4 -75 -1 -154 4 -79 6 -262 6 -406 l0 -263 42 -1
c114 -3 288 -1 291 3 14 14 -3 418 -19 471 -11 35 -83 157 -114 193 -5 6 -21
29 -36 52 -31 49 -52 63 -82 52 -25 -10 -61 11 -73 43 -5 12 -10 16 -14 10z"/>
<path d="M10499 4093 c-13 -3 -15 -19 -12 -101 2 -53 8 -101 13 -106 12 -12
140 -10 153 3 7 7 6 16 -5 28 -8 10 -30 45 -48 78 -33 60 -68 106 -79 104 -3
-1 -13 -3 -22 -6z"/>
</g>
</svg>
