<?xml version="1.0" encoding="utf-8"?>
<!-- Generator: Adobe Illustrator 22.0.1, SVG Export Plug-In . SVG Version: 6.00 Build 0)  -->
<svg version="1.1" id="Warstwa_1" xmlns="http://www.w3.org/2000/svg" xmlns:xlink="http://www.w3.org/1999/xlink" x="0px" y="0px"
	 viewBox="0 0 588.1 96.4" style="enable-background:new 0 0 588.1 96.4;" xml:space="preserve">
<style type="text/css">
	.st0{fill:#FFFFFF;}
</style>
<path class="st0" d="M552.7,22.3l2.9-3l2.9,3l2.9-3l2.9,3l2.9-3l2.9,3l2.9-3l2.9,3l2.9-3l2.9,3l2.9-3l2.9,3l0.1-0.1v-22L588,0.1
	L585,3l-2.9-3l-2.9,3l-2.9-3l-2.9,3l-2.9-3l-2.9,3l-2.9-3l-2.9,3l-2.9-3l-2.9,3l-2.9-3l-2.9,3l-2.9-3l-2.9,3l-2.9-3L538,3l-2.9-3
	l-2.9,3l-2.9-3l-2.9,3l-2.9-3l-2.9,3l-2.9-3l-2.9,3l-2.9-3l-2.9,3l-2.9-3l-2.9,3l-2.9-3l-2.9,3l-2.9-3L491,3l-2.9-3l-2.9,3l-2.9-3
	l-2.9,3l-2.9-3l-2.9,3l-2.9-3l0,0l0,0l-2.9,3l-2.9-3l0,0l0,0l-2.9,3l-2.9-3l0,0l0,0l-2.9,3l-2.9-3l-2.9,3l-2.9-3l-2.9,3l-2.9-3
	l-2.9,3l-2.9-3l-2.9,3l-2.9-3l-2.9,3l-2.9-3l-2.9,3l-2.9-3l-2.9,3l-2.9-3l-2.9,3l-2.9-3l-2.9,3l-2.9-3l-2.9,3l-2.9-3L391,3l-2.9-3
	l-2.9,3l-2.9-3l-2.9,3l-2.9-3l-2.9,3l-2.9-3l-2.9,3l-3-3l-2.9,3l-2.9-3l-2.9,3l-2.9-3l-2.9,3l-2.9-3L344,3c0,0,0,0-2.9-3l-2.9,3
	l-2.9-3l-2.9,3l-2.9-3l-2.9,3l-2.9-3l-2.9,3l-2.9-3l-2.9,3l-2.9-3l-2.9,3l-2.9-3l-2.9,3l-2.9-3L297,3L294,0l-2.9,3l-3-3l-2.9,3
	l-2.9-3l-2.9,3l-2.9-3l-2.9,3l-2.9-3l-2.9,3l-2.9-3l-2.9,3l-2.9-3l-2.9,3l-2.9-3L250,3L247,0l-2.9,3l-2.9-3l-2.9,3l-2.9-3l-2.9,3
	l-2.9-3l-2.9,3l-2.9-3l-2.9,3l-2.9-3l-2.9,3l-2.9-3l-2.9,3l-2.9-3l-2.9,3L200,0L197,3l-2.9-3l-2.9,3l-2.9-3l0,0l0,0l-2.9,3l-2.9-3
	l0,0l0,0l-2.9,3l-2.9-3l0,0l0,0l-2.9,3l-2.9-3l-2.9,3l-2.9-3l-2.9,3l-2.9-3l-2.9,3l-2.9-3L150,3l-2.9-3l-2.9,3l-2.9-3l-2.9,3l-2.9-3
	l-2.9,3l-2.9-3l-2.9,3l-2.9-3l-2.9,3l-2.9-3l-2.9,3l-2.9-3l-2.9,3l-2.9-3L103,3L100,0l-2.9,3l-2.9-3l-2.9,3l-2.9-3l-2.9,3l-3-3
	l-2.9,3l-2.9-3l-2.9,3l-2.9-3l-2.9,3l-2.9-3l-2.9,3c0,0,0,0-2.9-3l-2.9,3L53,0l-2.9,3l-2.9-3l-2.9,3l-2.9-3l-2.9,3l-2.9-3l-2.9,3
	l-2.9-3l-2.9,3l-2.9-3l-2.9,3l-2.9-3l-2.9,3l-2.9-3L8.9,3L6,0L3,3L0.1,0L0,0.1v22l0.1,0.1l2.9-3l2.9,3l2.9-3l2.9,3l2.9-3l2.9,3
	l2.9-3l2.9,3l2.9-3l2.9,3l2.9-3l2.9,3l2.9-3l2.9,3l2.9-3l2.9,3l2.9-3l2.9,3l2.9-3l2.9,3l2.9-3l2.9,3l2.9-3l2.9,3l2.9-3l2.9,3l2.9-3
	l2.9,3l3-3l2.9,3l2.9-3l2.9,3l2.9-3l2.9,3l2.9-3l2.9,3l2.9-3l2.9,3l2.9-3l2.9,3l2.9-3l2.9,3l2.9-3l2.9,3l2.9-3l2.9,3l2.9-3l2.9,3
	l2.9-3l2.9,3l2.9-3l2.9,3l2.9-3l2.9,3l2.9-3l2.9,3l2.9-3l2.9,3l2.9-3l2.9,3l0,0l0,0l2.9-3l2.9,3l0,0l0,0l2.9-3l2.9,3l0,0l0,0l2.9-3
	l2.9,3l2.9-3l2.9,3l2.9-3l2.9,3l2.9-3l2.9,3l2.9-3l2.9,3l2.9-3l2.9,3l2.9-3l2.9,3l2.9-3l2.9,3l2.9-3l2.9,3l2.9-3l2.9,3l2.9-3l2.9,3
	l2.9-3l2.9,3l2.9-3l2.9,3l2.9-3l2.9,3l2.9-3l2.9,3l2.9-3l2.9,3l2.9-3l2.9,3l2.9-3l2.9,3l2.9-3l2.9,3l2.9-3l2.9,3l2.9-3l2.9,3l2.9-3
	l2.9,3l2.9-3l2.9,3l2.9-3l2.9,3l2.9-3l2.9,3l2.9-3l2.9,3l2.9-3l2.9,3l2.9-3l2.9,3l2.9-3l2.9,3l2.9-3l2.9,3l3-3l2.9,3l2.9-3l2.9,3
	l2.9-3l2.9,3l2.9-3l2.9,3l2.9-3l2.9,3l2.9-3l2.9,3l2.9-3l2.9,3l2.9-3l2.9,3l2.9-3l2.9,3l2.9-3l2.9,3l2.9-3l2.9,3l2.9-3l2.9,3l2.9-3
	l2.9,3l2.9-3l2.9,3l2.9-3l2.9,3l2.9-3l2.9,3l0,0l0,0l2.9-3l2.9,3l0,0l0,0l2.9-3l2.9,3h0l0,0l2.9-3l2.9,3l2.9-3l2.9,3l2.9-3l2.9,3
	l2.9-3l2.9,3l2.9-3l2.9,3l2.9-3l2.9,3l2.9-3l2.9,3l2.9-3l2.9,3l2.9-3l2.9,3l2.9-3l2.9,3l2.9-3l2.9,3l2.9-3l2.9,3l2.9-3l2.9,3l2.9-3
	L552.7,22.3z M585,56.3l2.9,3l0.1-0.1v-22l-0.1-0.1l-2.9,3l-2.9-3l-2.9,3l-2.9-3l-2.9,3l-2.9-3l-2.9,3l-2.9-3l-2.9,3l-2.9-3l-2.9,3
	l-2.9-3l-2.9,3l-2.9-3l-2.9,3l-2.9-3l-2.9,3l-2.9-3l-2.9,3l-2.9-3l-2.9,3l-2.9-3l-2.9,3l-2.9-3l-2.9,3l-2.9-3l-2.9,3l-2.9-3l-2.9,3
	l-2.9-3l-2.9,3l-2.9-3l-2.9,3l-2.9-3l-2.9,3l-2.9-3l-2.9,3l-2.9-3l-2.9,3l-2.6-2.7l-0.3-0.3l-2.9,3l-1.7-1.7l-1.3-1.3l-2.9,3l-2.9-3
	l0,0l0,0l-2.9,3l-2.9-3l-2.9,3l-2.9-3l-2.9,3l-2.9-3l-2.9,3l-2.9-3l-2.9,3l-2.9-3l-2.9,3l-2.9-3l-2.9,3l-2.9-3l-2.9,3l-2.9-3l-2.9,3
	l-2.9-3l-2.9,3l-2.9-3l-2.9,3l-2.9-3l-2.9,3l-2.9-3l-2.9,3l-2.9-3l-2.9,3l-2.9-3l-2.9,3l-2.9-3l-2.9,3l-2.9-3l-2.9,3l-2.9-3l-2.9,3
	l-2.9-3l-2.9,3l-2.9-3l-2.9,3c0,0,0,0-2.9-3l-2.9,3l-2.9-3l-2.9,3l-2.9-3l-2.9,3l-2.9-3l-2.9,3l-2.9-3l-2.9,3l-2.9-3l-2.9,3l-2.9-3
	l-2.9,3l-2.9-3l-2.9,3l-2.9-3l-2.9,3l-2.9-3l-2.9,3l-2.9-3l-2.9,3l-2.9-3l-2.9,3l-2.9-3l-2.9,3l-2.9-3l-2.9,3l-2.9-3l-2.9,3l-2.9-3
	l-2.9,3l-2.9-3l-2.9,3l-2.9-3l-2.9,3l-2.9-3l-2.9,3l-2.9-3l-2.9,3l-2.9-3l-2.9,3l-2.9-3l-2.9,3l-2.9-3l-2.9,3l-2.9-3l-2.9,3l-2.9-3
	l-2.9,3l-2.9-3l-2.9,3l-2.9-3l0,0l-2.9,3l-2.2-2.2l-0.8-0.8l-2.9,3l-2.9-3l0,0l0,0l-2.9,3l-2.9-3l-2.9,3l-2.9-3l-2.9,3l-2.9-3
	l-2.9,3l-2.9-3l-2.9,3l-2.9-3l-2.9,3l-2.9-3l-2.9,3l-2.9-3l-2.9,3l-2.9-3l-2.9,3l-2.9-3l-2.9,3l-2.9-3l-2.9,3l-2.9-3l-2.9,3l-2.9-3
	l-2.9,3l-2.9-3l-2.9,3l-2.9-3l-2.9,3l-2.9-3l-2.9,3l-2.9-3l-2.9,3l-2.9-3l-2.9,3l-2.9-3l-3,3l-2.9-3l-2.9,3c0,0,0,0-2.9-3l-2.9,3
	L53,37l-2.9,3l-2.9-3l-2.9,3l-2.9-3l-2.9,3l-2.9-3l-2.9,3l-2.9-3l-2.9,3l-2.9-3l-2.9,3l-2.9-3l-2.9,3l-2.9-3l-2.9,3L6,37L3,40
	l-2.9-3L0,37.1v22.1l0.1,0.1l2.9-3l2.9,3l2.9-3l2.9,3l2.9-3l2.9,3l2.9-3l2.9,3l2.9-3l2.9,3l2.9-3l2.9,3l2.9-3l2.9,3l2.9-3l2.9,3
	l2.9-3l2.9,3l2.9-3l2.9,3l2.9-3l2.9,3l2.9-3l2.9,3l2.9-3l2.9,3l2.9-3l2.9,3l2.9-3l2.9,3l2.9-3l2.9,3l2.9-3l2.9,3l2.9-3l2.9,3l2.9-3
	l2.9,3l2.9-3l2.9,3l2.9-3l2.9,3l2.9-3l2.9,3l2.9-3l2.9,3l3-3l2.9,3l2.9-3l2.9,3l2.9-3l2.9,3l2.9-3l2.9,3l2.9-3l2.9,3l2.9-3l2.9,3
	l2.9-3l2.9,3l0,0l0,0l2.9-3l2.2,2.2l0.7,0.8l2.9-3l0.3,0.3l2.7,2.7l0,0l0,0l2.9-3l2.9,3l2.9-3l2.9,3l2.9-3l2.9,3l2.9-3l2.9,3l2.9-3
	l2.9,3l2.9-3l2.9,3l2.9-3l2.9,3l2.9-3l2.9,3l2.9-3l2.9,3l2.9-3l2.9,3l2.9-3l2.9,3l2.9-3l2.9,3l2.9-3l2.9,3l2.9-3l2.9,3l2.9-3l2.9,3
	l2.9-3l2.9,3l2.9-3l2.9,3l2.9-3l2.9,3l2.9-3l2.9,3l2.9-3l2.9,3l2.9-3l2.9,3l2.9-3l2.9,3l2.9-3l2.9,3l2.9-3l2.9,3l2.9-3l2.9,3l2.9-3
	l2.9,3l2.9-3l2.9,3l2.9-3l2.9,3l2.9-3l2.9,3l2.9-3l2.9,3l2.9-3l2.9,3l2.9-3l2.9,3l2.9-3l2.9,3l2.9-3l2.9,3l2.9-3l2.9,3l2.9-3l2.9,3
	l2.9-3l2.9,3l2.9-3l2.9,3l2.9-3l2.9,3l3-3l2.9,3l2.9-3l2.9,3l2.9-3l2.9,3l2.9-3l2.9,3l2.9-3l2.9,3l2.9-3l2.9,3l2.9-3l2.9,3l0,0l0,0
	l2.9-3l1.7,1.7l1.3,1.3l2.9-3l2.1,2.1l0.9,0.9l0,0l2.9-3l2.9,3l2.9-3l2.9,3l2.9-3l2.9,3l2.9-3l2.9,3l2.9-3l2.9,3l2.9-3l2.9,3l2.9-3
	l2.9,3l2.9-3l2.9,3l2.9-3l2.9,3l2.9-3l2.9,3l2.9-3l2.9,3l2.9-3l2.9,3l2.9-3l2.9,3l2.9-3l2.9,3l2.9-3l2.9,3l2.9-3l2.9,3l2.9-3l2.9,3
	l2.9-3l2.9,3l2.9-3l2.9,3L585,56.3z M585,93.4l2.9,3l0.1-0.1V74.3l-0.1-0.1l-2.9,3l-2.9-3l-2.9,3l-2.9-3l-2.9,3l-2.9-3l-2.9,3
	l-2.9-3l-2.9,3l-2.9-3l-2.9,3l-2.9-3l-2.9,3l-2.9-3l-2.9,3l-2.9-3l-2.9,3l-2.9-3l-2.9,3l-2.9-3l-2.9,3l-2.9-3l-2.9,3l-2.9-3l-2.9,3
	l-2.9-3l-2.9,3l-2.9-3l-2.9,3l-2.9-3l-2.9,3l-2.9-3l-2.9,3l-2.9-3l-2.9,3l-2.9-3l-2.9,3l-2.9-3l-2.9,3l-2.9-3l-2.9,3l-2.9-3v0l0,0
	l-2.9,3l-2.9-3l0,0l0,0l-2.9,3l-2.9-3l-2.9,3l-2.9-3l-2.9,3l-2.9-3l-2.9,3l-2.9-3l-2.9,3l-2.9-3l-2.9,3l-2.9-3l-2.9,3l-3-3l-2.9,3
	l-2.9-3l-2.9,3l-2.9-3l-2.9,3l-2.9-3l-2.9,3l-2.9-3l-2.9,3l-2.9-3l-2.9,3l-2.9-3l-2.9,3l-2.9-3l-2.9,3l-2.9-3l-2.9,3l-2.9-3l-2.9,3
	l-2.9-3l-2.9,3l-2.9-3l-2.9,3l-2.9-3l-2.9,3l-2.9-3l-2.9,3l-2.9-3l-2.9,3l-2.9-3l-2.9,3l-2.9-3l-2.9,3l-2.9-3l-2.9,3l-2.9-3l-2.9,3
	l-2.9-3l-2.9,3l-2.9-3l-2.9,3l-2.9-3l-2.9,3l-2.9-3l-2.9,3l-2.9-3l-2.9,3l-2.9-3l-2.9,3l-2.9-3l-2.9,3l-2.9-3l-2.9,3l-2.9-3l-2.9,3
	l-2.9-3l-2.9,3l-2.9-3l-2.9,3l-2.9-3l-2.9,3l-2.9-3l-2.9,3l-2.9-3l-2.9,3l-2.9-3l-2.9,3l-2.9-3l-2.9,3l-2.9-3l-2.9,3l-2.9-3l-2.9,3
	l-2.9-3l-2.9,3l-2.9-3l-2.9,3l-2.2-2.3l-0.7-0.7l-2.9,3l-2.9-3l0,0l0,0l-2.9,3l-2.9-3l0,0l0,0l-2.9,3l-2.9-3l-2.9,3l-2.9-3l-2.9,3
	l-2.9-3l-2.9,3l-2.9-3l-2.9,3l-2.9-3l-2.9,3l-2.9-3l-2.9,3l-3-3l-2.9,3l-2.9-3l-2.9,3l-2.9-3l-2.9,3l-2.9-3l-2.9,3l-2.9-3l-2.9,3
	l-2.9-3l-2.9,3l-2.9-3l-2.9,3l-2.9-3l-2.9,3l-2.9-3l-2.9,3l-2.9-3l-2.9,3l-2.9-3l-2.9,3l-2.9-3l-3,3l-2.9-3l-2.9,3l-2.9-3l-2.9,3
	l-2.9-3L50,77l-2.9-3l-2.9,3l-2.9-3l-2.9,3l-2.9-3l-2.9,3l-2.9-3l-2.9,3l-2.9-3l-2.9,3l-2.9-3l-2.9,3l-2.9-3l-2.9,3l-2.9-3L3,77
	l-2.9-3L0,74.2v22l0.1,0.1l2.9-3l2.9,3l2.9-3l2.9,3l2.9-3l2.9,3l2.9-3l2.9,3l2.9-3l2.9,3l2.9-3l2.9,3l2.9-3l2.9,3l2.9-3l2.9,3l2.9-3
	l2.9,3l2.9-3c0,0,0,0,2.9,3l2.9-3l2.9,3l2.9-3l2.9,3l2.9-3l2.9,3l2.9-3l2.9,3l2.9-3l2.9,3l2.9-3l2.9,3l2.9-3l2.9,3l2.9-3l2.9,3
	l2.9-3l2.9,3l2.9-3l2.9,3l2.9-3l2.9,3l2.9-3l2.9,3l2.9-3l2.9,3l3-3l2.9,3l2.9-3l2.9,3l2.9-3l2.9,3l2.9-3l2.9,3l2.9-3l2.9,3l2.9-3
	l2.9,3l2.9-3l2.9,3l0,0l0,0l2.9-3l2.9,3l0,0l0,0l2.9-3l2.9,3l2.9-3l2.9,3l2.9-3l2.9,3l2.9-3l2.9,3l2.9-3l2.9,3l2.9-3l2.9,3l2.9-3
	l2.9,3l2.9-3l2.9,3l2.9-3l2.9,3l2.9-3l2.9,3l2.9-3l2.9,3l2.9-3l2.9,3l2.9-3l2.9,3l2.9-3l2.9,3l2.9-3l2.9,3l2.9-3l2.9,3l2.9-3l2.9,3
	l2.9-3l2.9,3l2.9-3l2.9,3l2.9-3l2.9,3l2.9-3l2.9,3l2.9-3l2.9,3l2.9-3l2.9,3l2.9-3l2.9,3l2.9-3l2.9,3l2.9-3l2.9,3l2.9-3
	c0,0,0,0,2.9,3l2.9-3l2.9,3l2.9-3l2.9,3l2.9-3l2.9,3l2.9-3l2.9,3l2.9-3l2.9,3l2.9-3l2.9,3l2.9-3l2.9,3l2.9-3l2.9,3l2.9-3l2.9,3
	l2.9-3l2.9,3l2.9-3l2.9,3l2.9-3l2.9,3l2.9-3l2.9,3l2.9-3l2.9,3l2.9-3l2.9,3l2.9-3l2.9,3l2.9-3l2.9,3l2.9-3l2.9,3l2.9-3l2.9,3l2.9-3
	l2.9,3l0,0l0,0l2.9-3l2.9,3l0,0l0,0l2.9-3l2.9,3l0,0v0l2.9-3l2.9,3l2.9-3l2.9,3l2.9-3l2.9,3l2.9-3l2.9,3l2.9-3l2.9,3l2.9-3l2.9,3
	l2.9-3l2.9,3l2.9-3l2.9,3l2.9-3l2.9,3l2.9-3l2.9,3l2.9-3l2.9,3l2.9-3l2.9,3l2.9-3l2.9,3l2.9-3l2.9,3l2.9-3l2.9,3l2.9-3l2.9,3l2.9-3
	l2.9,3l2.9-3l2.9,3l2.9-3l2.9,3L585,93.4z"/>
</svg>
