<?xml version="1.0" encoding="utf-8"?>
<!-- Generator: Adobe Illustrator 22.0.1, SVG Export Plug-In . SVG Version: 6.00 Build 0)  -->
<svg version="1.1" id="Warstwa_1" xmlns="http://www.w3.org/2000/svg" xmlns:xlink="http://www.w3.org/1999/xlink" x="0px" y="0px"
	 viewBox="0 0 66.033 66.033" style="enable-background:new 0 0 66.033 66.033;" xml:space="preserve">
<style type="text/css">
	.st0{fill:#FFFFFF;}
	.st1{fill:#120F0F;}
</style>
<g>
	<polygon class="st0" points="35.615,0 33.017,3.302 30.419,0 28.368,3.668 25.285,0.813 23.835,4.756 20.343,2.419 19.527,6.54 
		15.712,4.778 15.551,8.977 11.508,7.833 12.005,12.005 7.833,11.508 8.977,15.551 4.778,15.712 6.541,19.526 2.42,20.343 
		4.756,23.834 0.814,25.285 3.668,28.368 0,30.418 3.302,33.017 0,35.615 3.668,37.665 0.814,40.748 4.756,42.199 2.42,45.691 
		6.541,46.507 4.778,50.321 8.977,50.482 7.833,54.526 12.005,54.028 11.508,58.2 15.551,57.057 15.712,61.255 19.527,59.493 
		20.343,63.615 23.835,61.278 25.285,65.22 28.368,62.366 30.419,66.033 33.017,62.732 35.615,66.033 37.665,62.366 40.749,65.22 
		42.199,61.278 45.691,63.615 46.507,59.493 50.322,61.255 50.483,57.057 54.526,58.2 54.029,54.028 58.201,54.526 57.057,50.482 
		61.255,50.321 59.493,46.507 63.614,45.691 61.278,42.199 65.22,40.748 62.366,37.665 66.033,35.615 62.732,33.017 66.033,30.418 
		62.366,28.368 65.22,25.285 61.278,23.834 63.614,20.343 59.493,19.526 61.255,15.712 57.057,15.551 58.201,11.508 54.029,12.005 
		54.526,7.833 50.483,8.977 50.322,4.778 46.507,6.54 45.691,2.419 42.199,4.756 40.749,0.813 37.665,3.668 	"/>
	<path class="st1" d="M17.755,51.386c-1.791,0-3.252-1.494-3.252-3.322c0-1.865,1.461-3.318,3.252-3.318
		c0.695,0,1.354,0.187,1.902,0.561v-0.486h1.534v6.414h-1.534v-0.411C19.109,51.161,18.488,51.386,17.755,51.386 M16.002,48.064
		c0,0.971,0.841,1.829,1.791,1.829c1.022,0,1.865-0.858,1.865-1.829c0-1.006-0.842-1.865-1.865-1.865
		C16.843,46.199,16.002,47.058,16.002,48.064 M24.993,51.386c-1.792,0-3.29-1.494-3.29-3.322c0-1.865,1.498-3.318,3.29-3.318
		c0.694,0,1.315,0.187,1.865,0.561v-2.688h1.571v8.617h-1.571v-0.411C26.309,51.161,25.687,51.386,24.993,51.386 M23.201,48.064
		c0,0.971,0.841,1.829,1.866,1.829c0.949,0,1.791-0.858,1.791-1.829c0-1.006-0.841-1.865-1.791-1.865
		C24.042,46.199,23.201,47.058,23.201,48.064 M30.73,51.235h-1.535v-6.414h1.535V51.235z M29.195,42.619h1.535v1.604h-1.535V42.619z
		 M36.507,42.619h1.535v8.617h-1.535v-0.411c-0.511,0.337-1.171,0.562-1.863,0.562c-1.793,0-3.253-1.494-3.253-3.322
		c0-1.865,1.46-3.318,3.253-3.318c0.692,0,1.314,0.187,1.863,0.561V42.619z M32.889,48.064c0,0.971,0.839,1.829,1.79,1.829
		c0.986,0,1.828-0.858,1.828-1.829c0-1.006-0.841-1.865-1.828-1.865C33.728,46.199,32.889,47.058,32.889,48.064 M41.843,51.386
		c-1.792,0-3.29-1.494-3.29-3.322c0-1.865,1.498-3.318,3.29-3.318c0.696,0,1.317,0.187,1.829,0.561v-0.486h1.571v6.414h-1.571
		v-0.411C43.16,51.161,42.539,51.386,41.843,51.386 M40.088,48.064c0,0.971,0.843,1.829,1.83,1.829c0.948,0,1.754-0.858,1.754-1.829
		c0-1.006-0.806-1.865-1.754-1.865C40.931,46.199,40.088,47.058,40.088,48.064 M48.684,51.386c1.535,0,2.816-0.636,2.816-2.205
		c0-0.894-0.621-1.491-1.608-1.751c-1.024-0.261-2.34-0.224-2.34-0.895c0.074-0.448,0.475-0.56,1.097-0.56
		c0.952,0,0.987,0.522,1.025,0.857h1.57c-0.11-1.229-1.097-2.087-2.667-2.087c-1.647,0-2.597,0.897-2.597,2.053
		c0,0.67,0.328,1.266,0.879,1.565c0.401,0.187,0.949,0.335,1.608,0.448c0.694,0.074,1.318,0.147,1.353,0.632
		c0,0.337-0.331,0.748-1.061,0.748c-1.06,0-1.28-0.598-1.28-1.01h-1.644C45.871,50.488,46.93,51.386,48.684,51.386 M37.786,30.348
		c0.074-0.858,0.146-1.679,0.146-2.648c0-5.22-2.302-10.629-4.825-13.053c-2.559,2.424-4.825,7.833-4.825,13.053
		c0,0.969,0,1.79,0.146,2.648H37.786z M27.589,30.348c-0.403-0.707-0.952-1.38-1.498-2.052c-3.145-3.766-8.006-6.08-11.332-6.303
		c-0.219,2.425,0.511,5.372,1.973,8.355H27.589z M33.108,40.865c0.766-0.82,1.571-1.939,2.303-3.356h-4.643
		C31.536,38.926,32.268,40.046,33.108,40.865 M30.513,40.642c0.036-0.82,0.036-1.937-0.112-3.133h-7.456
		C25.58,39.487,28.428,40.492,30.513,40.642 M51.493,21.994c-3.363,0.223-8.188,2.537-11.33,6.303
		c-0.585,0.672-1.097,1.345-1.5,2.052h10.819C50.944,27.365,51.71,24.419,51.493,21.994 M43.233,37.509h-7.384
		c-0.218,1.195-0.218,2.313-0.218,3.133C37.786,40.492,40.639,39.487,43.233,37.509 M46.559,34.751H19.621
		c0.438,0.522,0.913,1.005,1.387,1.341h24.053C45.643,35.755,46.194,35.273,46.559,34.751 M48.752,31.767
		c-0.22,0.447-0.622,1.081-0.989,1.452H18.415c-0.22-0.298-0.733-0.968-0.952-1.452H48.752z"/>
</g>
</svg>
