<?xml version="1.0" encoding="utf-8"?>
<!-- Generator: Adobe Illustrator 22.0.1, SVG Export Plug-In . SVG Version: 6.00 Build 0)  -->
<svg version="1.1" id="Warstwa_1" xmlns="http://www.w3.org/2000/svg" xmlns:xlink="http://www.w3.org/1999/xlink" x="0px" y="0px"
	 viewBox="0 0 326.5 72.9" enable-background="new 0 0 326.5 72.9" xml:space="preserve">
<g>
	<g>
		<path fill="#FFFFFF" d="M134.7,33h-11.2c-0.7,0-1.2,0.5-1.2,1.2v3.6c0,0.6,0.5,1.1,1.2,1.1h6.1v6.9c-0.6,0.2-4.1,2.1-9.3,2.1
			c-8.8,0-15.5-7.4-15.5-16.1s6.7-16.1,15.5-16.1c3.8,0,7.6,1.7,10.5,4.2c0.6,0.6,1.1,0.6,1.6,0.1c0.9-1,1.9-1.9,2.8-2.9
			c0.5-0.5,0.4-1.2-0.1-1.7c-4.2-3.6-9.1-5.8-15-5.8c-12.3,0-22.2,10-22.2,22.4s9.9,22.2,22.2,22.2c9,0,15.3-4.1,15.3-4.1
			c0.2-0.2,0.5-0.7,0.5-1c0-5-0.1-10-0.1-15C135.8,33.6,135.3,33,134.7,33z"/>
		<path fill="#FFFFFF" d="M152.1,28.2c-6.9,0-12.5,5.9-12.5,12.9c0,7.1,5.6,13.1,12.5,13.1s12.5-5.9,12.5-13.1
			C164.6,34.2,159.1,28.2,152.1,28.2z M152.1,48.9c-3.9,0-7-3.5-7-7.8c0-4.1,3.1-7.6,7-7.6s7,3.4,7,7.6
			C159.1,45.5,156,48.9,152.1,48.9z"/>
		<path fill="#FFFFFF" d="M174,28.9h-3.5c-0.6,0-1.2,0.6-1.2,1.2v22.4c0,0.6,0.6,1.2,1.2,1.2h3.5c0.6,0,1.2-0.6,1.2-1.2V30
			C175.1,29.4,174.6,28.9,174,28.9z"/>
		<path fill="#FFFFFF" d="M172.1,11.5c-2,0-3.5,1.6-3.5,3.7c0,2,1.5,3.6,3.5,3.6s3.6-1.6,3.6-3.6C175.8,13.1,174.1,11.5,172.1,11.5z
			"/>
		<path fill="#FFFFFF" d="M195,28.2c-4.9,0-8.2,3-8.6,3.5l-0.7-2.1c-0.1-0.4-0.5-0.7-1-0.7h-1.8c-0.6,0-1.2,0.6-1.2,1.2v22.4
			c0,0.6,0.6,1.2,1.2,1.2h3.2c1.1,0,1.4-0.4,1.4-1.2V37.4c0.3-0.9,3-3.7,6.9-3.7c3.2,0,5.1,2.2,5.1,6.1v12.7c0,0.6,0.5,1.2,1.2,1.2
			h3.5c0.6,0,1.2-0.6,1.2-1.2V40C205.3,33.6,202.5,28.2,195,28.2z"/>
		<path fill="#FFFFFF" d="M225.6,54.3h-8.4c-1.9,0-3-1.1-3-2.5c0-2,2.1-3,2.5-3c0.5,0,2.2,1,5.4,1c6.4,0,10.5-4.8,10.5-10.1
			c0-4.6-2.7-6.6-2.7-6.6l3.4-0.9c0.4-0.1,0.7-0.6,0.7-1v-1.6c0-0.7-0.5-1.2-1.2-1.2H222c-6.3,0-10.6,5.1-10.6,10.8
			c0,3.7,1.9,6,1.9,6s-4.4,2.3-4.4,7.1c0,4.2,3.3,5.8,4.6,6.2v0.2c-0.6,0.4-3.6,2.1-3.6,5.8c0,4,3.5,8.5,12.2,8.5
			c8.2,0,13.2-4.8,13.2-10.3C235.3,57.2,231,54.3,225.6,54.3z M222.2,33.5c3.1,0,5.2,2.3,5.2,5.7c0,3.3-2.1,5.7-5.2,5.7
			c-3.2,0-5.4-2.4-5.4-5.7S219.1,33.5,222.2,33.5z M222.1,67.8c-3.8,0-6.4-1.9-6.4-4.4c0-2.8,3-3.8,3.4-3.9c1.8-0.1,3.6-0.1,5.4-0.1
			c4,0,4.6,2.5,4.6,3.5C229.1,65.9,225.9,67.8,222.1,67.8z"/>
		<path fill="#FFFFFF" d="M241.1,45.7c-2.3,0-4.3,1.9-4.3,4.3c0,2.3,1.9,4.3,4.3,4.3c2.4,0,4.3-1.9,4.3-4.3
			C245.4,47.6,243.5,45.7,241.1,45.7z"/>
	</g>
	<path fill="#FFFFFF" d="M317.3,0.4L317.3,0.4L317.3,0.4c-1-0.2-2-0.4-2.9-0.4h-39.8c-0.9,0-1.9,0.1-2.9,0.4l0,0
		c-5.4,1.3-9.2,6.2-9.2,11.7v39.8c0,3.5,1.5,6.8,4.1,9.1l0.3,0.3c2.2,1.8,4.9,2.8,7.7,2.8h39.8c2.8,0,5.6-1,7.7-2.8l0.3-0.3
		c2.6-2.3,4.1-5.6,4.1-9.1V12.1C326.5,6.5,322.8,1.7,317.3,0.4z M314.4,1.5c0.6,0,1.3,0.1,1.9,0.2l-4.6,37.1l-8.8-15.7l6.8-21.6
		C309.7,1.5,314.4,1.5,314.4,1.5z M312.7,43.5l8,14.2l0,0c-0.4,0.2-0.8,0.4-1.3,0.6c-0.1,0-0.1,0.1-0.2,0.1
		c-0.4,0.2-0.9,0.3-1.3,0.4c-0.1,0-0.2,0-0.2,0.1c-0.5,0.1-0.9,0.2-1.4,0.2c-0.1,0-0.1,0-0.2,0c-0.5,0.1-1,0.1-1.5,0.1H311
		L312.7,43.5z M308.1,1.5l-6.2,19.8l-6.5-11.6l4.6-8.2C300,1.5,308.1,1.5,308.1,1.5z M287.8,23.2l6.8-12l6.8,12l-6.8,21.5
		L287.8,23.2z M297.5,59.1h-5.9l2.9-9.3L297.5,59.1z M298.3,1.5l-3.7,6.6l-3.7-6.6C290.9,1.5,298.3,1.5,298.3,1.5z M289.1,1.5
		l4.6,8.2l-6.5,11.6L281,1.5H289.1z M274.7,1.5h4.7l6.8,21.6l-8.8,15.7l-4.6-37.1C273.4,1.6,274,1.5,274.7,1.5z M278.3,59.1h-3.6
		c-0.5,0-1,0-1.5-0.1c-0.1,0-0.1,0-0.2,0c-0.5-0.1-1-0.1-1.4-0.2c-0.1,0-0.2,0-0.2-0.1c-0.5-0.1-0.9-0.2-1.3-0.4
		c-0.1,0-0.1,0-0.2-0.1c-0.4-0.2-0.9-0.4-1.3-0.6l0,0l8-14.2L278.3,59.1z M266.7,58.8c-0.3-0.3-0.6-0.7-0.8-1c0,0,0.1,0,0.1,0.1
		c0.1,0.1,0.7,0.5,0.7,0.5L266.7,58.8L266.7,58.8z M267,56.8c-0.1-0.1-0.2-0.2-0.3-0.2c-0.1-0.1-0.3-0.2-0.4-0.4
		c-0.1-0.1-0.2-0.2-0.3-0.3c-0.1-0.1-0.2-0.2-0.4-0.4c-0.1-0.1-0.2-0.2-0.2-0.3c-0.1-0.1-0.2-0.3-0.3-0.4c-0.1-0.1-0.1-0.2-0.2-0.3
		s-0.2-0.3-0.2-0.4c-0.1-0.1-0.1-0.2-0.2-0.3c-0.1-0.2-0.1-0.3-0.2-0.5c0-0.1-0.1-0.2-0.1-0.3c-0.1-0.2-0.1-0.3-0.1-0.5
		c0-0.1,0-0.2-0.1-0.3c0-0.3-0.1-0.5-0.1-0.8V12.1c0-4.6,2.9-8.6,7.2-10l4.8,38.9L267,56.9C267.1,56.8,267.1,56.8,267,56.8z
		 M278.4,62.5h-3.7c-2.4,0-4.6-0.8-6.5-2.2v-1c0,0,0.1,0,0.2,0.1c0.4,0.2,0.9,0.4,1.3,0.5l0,0c0.5,0.2,0.9,0.3,1.4,0.4
		c0.1,0,0.2,0,0.3,0.1c0.5,0.1,1,0.2,1.5,0.2c0.1,0,0.2,0,0.3,0c0.5,0,1,0.1,1.5,0.1h3.7L278.4,62.5L278.4,62.5z M289.8,62.5h-9.9
		v-1.9h9.9V62.5z M290,59.1h-0.2h-10l-2.2-17.8l9.1-16.3l7,22.2L290,59.1z M297.8,62.5h-6.4v-1.9h6.4V62.5z M309.2,62.5h-9.9v-1.9
		h9.8h0.1V62.5z M309.3,59.1h-10.2l-3.7-11.8l7-22.2l9.1,16.3L309.3,59.1z M320.9,60.2c-1.9,1.4-4.1,2.2-6.5,2.2h-3.7v-1.9h3.7
		c0.5,0,1,0,1.5-0.1c0.1,0,0.2,0,0.3,0c0.5-0.1,1-0.1,1.5-0.2c0.1,0,0.2,0,0.3-0.1c0.5-0.1,1-0.2,1.4-0.4l0,0
		c0.5-0.2,0.9-0.3,1.4-0.5c0,0,0.1,0,0.1-0.1L320.9,60.2L320.9,60.2z M322.4,58.8v-0.5l0.4-0.3c0.1-0.1,0.2-0.1,0.3-0.2
		c0,0,0.1,0,0.1-0.1C323,58.2,322.7,58.5,322.4,58.8z M325,51.6c0,0.3,0,0.5-0.1,0.8c0,0.1,0,0.2-0.1,0.3c0,0.2-0.1,0.3-0.1,0.5
		c0,0.1-0.1,0.2-0.1,0.3c-0.1,0.2-0.1,0.3-0.2,0.5c0,0.1-0.1,0.2-0.2,0.3s-0.1,0.3-0.2,0.4c-0.1,0.1-0.1,0.2-0.2,0.3
		s-0.2,0.3-0.3,0.4c-0.1,0.1-0.2,0.2-0.2,0.3c-0.1,0.1-0.2,0.2-0.4,0.4c-0.1,0.1-0.2,0.2-0.3,0.3c-0.1,0.1-0.3,0.2-0.4,0.4
		c-0.1,0.1-0.2,0.2-0.3,0.2c0,0-0.1,0-0.1,0.1L313,41l4.8-38.9c4.3,1.4,7.2,5.5,7.2,10V51.6z"/>
</g>
<g>
	<path fill="#FFFFFF" d="M1.2,58.7C1.2,58.9,1,59,0.9,59H0.3C0.2,59,0,58.9,0,58.7V46.8c0-0.2,0.2-0.3,0.3-0.3h0.4
		c0.2,0,0.2,0.1,0.3,0.2L1.1,47c0,0,0.8-0.8,2.1-0.8c2,0,3.4,1.7,3.4,3.8s-1.5,3.8-3.5,3.8c-1.2,0-1.9-0.6-1.9-0.6L1.2,58.7z
		 M3,52.6c1.4,0,2.4-1.1,2.4-2.6c0-1.4-0.8-2.6-2.3-2.6c-1.2,0-1.8,0.9-1.8,0.9V52C1.3,52,2,52.6,3,52.6z"/>
	<path fill="#FFFFFF" d="M11.7,46.3c2,0,3.6,1.7,3.6,3.8s-1.6,3.8-3.6,3.8S8.1,52.1,8.1,50C8.1,48,9.7,46.3,11.7,46.3z M11.7,52.7
		c1.3,0,2.3-1.2,2.3-2.6c0-1.4-1-2.6-2.3-2.6S9.4,48.6,9.4,50C9.4,51.5,10.4,52.7,11.7,52.7z"/>
	<path fill="#FFFFFF" d="M16.6,46.9c-0.1-0.3,0-0.4,0.3-0.4h0.6c0.2,0,0.3,0.1,0.3,0.2l1.3,4.8l0,0l2-5c0-0.1,0.1-0.2,0.3-0.2h0.1
		c0.2,0,0.3,0.1,0.3,0.2l2,5l0,0l1.3-4.8c0-0.1,0.2-0.2,0.3-0.2H26c0.3,0,0.3,0.2,0.3,0.4l-2,6.8c0,0.1-0.2,0.2-0.3,0.2l0,0
		c-0.2,0-0.3-0.1-0.3-0.2l-2.2-5.4l-2.1,5.4c0,0.1-0.1,0.2-0.3,0.2H19c-0.2,0-0.3-0.1-0.3-0.2L16.6,46.9z"/>
	<path fill="#FFFFFF" d="M31.2,46.3c1.9,0,3.3,1.4,3.3,3.3c0,0.1,0,0.4,0,0.5c0,0.2-0.2,0.3-0.3,0.3H29c0.1,1.2,1.1,2.3,2.4,2.3
		c0.8,0,1.4-0.3,1.8-0.5c0.3-0.1,0.4-0.2,0.5,0c0.1,0.1,0.2,0.3,0.3,0.4c0.1,0.2,0.2,0.3-0.1,0.5c-0.4,0.3-1.4,0.8-2.6,0.8
		c-2.2,0-3.5-1.7-3.5-3.8C27.7,48,29,46.3,31.2,46.3z M33.2,49.3c-0.1-1-0.9-2-2-2c-1.2,0-2.1,0.9-2.3,2H33.2z"/>
	<path fill="#FFFFFF" d="M36.4,46.8c0-0.2,0.2-0.3,0.3-0.3H37c0.1,0,0.3,0.1,0.3,0.3l0.1,0.5c0,0,0.7-1,2.2-1c0.5,0,1.4,0.1,1.3,0.6
		l-0.2,0.6c-0.1,0.2-0.3,0.2-0.4,0.2c-0.2-0.1-0.4-0.1-0.7-0.1c-1.4,0-2,1-2,1v4.8c0,0.2-0.2,0.3-0.3,0.3h-0.6
		c-0.2,0-0.3-0.2-0.3-0.3C36.4,53.4,36.4,46.8,36.4,46.8z"/>
	<path fill="#FFFFFF" d="M45.4,46.3c1.9,0,3.3,1.4,3.3,3.3c0,0.1,0,0.4,0,0.5c0,0.2-0.2,0.3-0.3,0.3h-5.2c0.1,1.2,1.1,2.3,2.4,2.3
		c0.8,0,1.4-0.3,1.8-0.5c0.3-0.1,0.4-0.2,0.5,0c0.1,0.1,0.2,0.3,0.3,0.4c0.1,0.2,0.2,0.3-0.1,0.5c-0.4,0.3-1.4,0.8-2.6,0.8
		c-2.2,0-3.5-1.7-3.5-3.8C41.9,48,43.2,46.3,45.4,46.3z M47.4,49.3c-0.1-1-0.9-2-2-2c-1.2,0-2.1,0.9-2.3,2H47.4z"/>
	<path fill="#FFFFFF" d="M53.6,46.3c1.2,0,1.9,0.5,1.9,0.5v-5.3c0-0.2,0.2-0.3,0.3-0.3h0.6c0.2,0,0.3,0.2,0.3,0.3v11.9
		c0,0.2-0.2,0.3-0.3,0.3H56c-0.2,0-0.3-0.1-0.3-0.3l-0.1-0.5c0,0-0.9,1-2.2,1c-1.8,0-3.3-1.7-3.3-3.8C50.1,47.9,51.4,46.3,53.6,46.3
		z M53.5,52.7c1.3,0,2-1.2,2-1.2v-3.6c0,0-0.8-0.4-1.7-0.4c-1.6,0-2.4,1.1-2.4,2.6C51.4,51.4,52.2,52.7,53.5,52.7z"/>
	<path fill="#FFFFFF" d="M63.3,41.4c0-0.2,0.2-0.3,0.3-0.3h0.6c0.2,0,0.3,0.2,0.3,0.3v5.3c0,0,0.7-0.5,1.9-0.5
		c2.2,0,3.5,1.7,3.5,3.8s-1.4,3.8-3.3,3.8c-1.4,0-2.2-1-2.2-1l-0.1,0.5c0,0.2-0.1,0.3-0.3,0.3h-0.4c-0.2,0-0.3-0.2-0.3-0.3V41.4z
		 M66.5,52.7c1.3,0,2.1-1.2,2.1-2.6c0-1.4-0.8-2.6-2.4-2.6c-1,0-1.7,0.4-1.7,0.4v3.6C64.6,51.5,65.2,52.7,66.5,52.7z"/>
	<path fill="#FFFFFF" d="M70.9,46.8c-0.1-0.2,0-0.4,0.3-0.4H72c0.1,0,0.3,0.1,0.3,0.2l2.7,5.5l0,0l2.5-5.5c0.1-0.1,0.2-0.2,0.3-0.2
		h0.7c0.3,0,0.4,0.2,0.3,0.4l-5.5,12C73.2,58.9,73.1,59,73,59h-0.7c-0.3,0-0.4-0.2-0.3-0.5l2.3-5L70.9,46.8z"/>
</g>
</svg>
