<?xml version="1.0" encoding="utf-8"?>
<!-- Generator: Adobe Illustrator 22.0.1, SVG Export Plug-In . SVG Version: 6.00 Build 0)  -->
<svg version="1.1" id="Warstwa_1" xmlns="http://www.w3.org/2000/svg" xmlns:xlink="http://www.w3.org/1999/xlink" x="0px" y="0px"
	 viewBox="0 0 581.6 254.5" enable-background="new 0 0 581.6 254.5" xml:space="preserve">
<path fill-rule="evenodd" clip-rule="evenodd" fill="#FFFFFF" d="M505.2,252.8c-3.5,0.3-6.8,0.5-10,0.8c-11.1,1-22.3,1.1-33.4,0.6
	c-4.6-0.2-9.3-0.2-13.9-0.3c-3.1,0-4.2-1-4.4-4.2c-0.1-2.7,0-5.3-0.1-8c0-1-0.5-2-0.8-2.9c0-0.2-0.2-0.3-0.4-0.4
	c-0.7-0.4-3.3,0-3.8,0.6c-1.3,1.4-2.6,2.9-3.8,4.4c-0.6,0.8-1.2,1.2-2.3,1.1c-4.9-0.3-9.8-0.7-14.7-0.8c-6.5-0.2-13-0.4-19.5-0.4
	c-3.5,0-4.1-0.5-4.9-3.8c-0.8-3.5-0.1-2.8-3.5-2.7c-12.2,0.3-24.4,0.7-36.7,1.1c-0.8,0-1.3,0.2-1.4,1.1c-0.3,2.2-1.3,3.1-3.5,3.2
	c-3.3,0.1-6.7,0.2-10,0.2c-7.8,0.1-15.6,0.5-23.4,0.3c-9.5-0.2-19-0.9-28.5-1.3c-8.4-0.3-16.9-0.5-25.3-0.8c-3.3-0.1-6.7,0.1-10-0.1
	c-0.8,0-1.7-0.5-2.3-1.1c-1.1-1.1-2-2.4-2.9-3.7c-0.4-0.7-0.7-1.6-0.7-2.4c-0.2-2.4-0.3-4.9-0.5-7.3c0-0.6-0.5-1.1-0.7-1.6
	c-0.5,0.3-1.1,0.4-1.4,0.8c-2.3,2.3-4.5,4.8-6.8,7.1c-0.4,0.4-1,0.5-1.5,0.5c-6.7,0.2-13.4,0.4-20.2,0.6c-5.5,0.2-11,0.5-16.5,0.8
	c-1.4,0.1-2.5-0.2-3.3-1.5c-0.8-1.3-2-2.3-2.9-3.6c-1.2-1.6-2.6-2.1-4.7-2c-9.9,0.3-19.8,0.4-29.8,0.4c-3.7,0-7.3-0.1-11-0.1
	c-0.9,0-1.3-0.3-1.4-1.2c-0.2-0.9-0.4-1.9-0.7-2.8c-0.5-1.4-1.5-1.6-2.5-0.6c-1.1,1.2-2.2,2.5-3.4,3.7c-0.5,0.4-1.2,0.8-1.9,0.8
	c-6.4,0.2-12.9,0.3-19.3,0.4c-3.4,0-6.8-0.2-10.1-0.4c-3.8-0.2-3.1-0.7-4.9,2.9c-0.9,1.9-1.8,3.7-2.6,5.6c-1.2,2.6-3.1,3.5-6,3.6
	c-11.4,0.4-22.7,1-34,1.9c-10.9,0.9-21.7,1-32.6,1c-3.6,0-7.2-0.6-10.7-1.2c-4.8-0.8-7.7-4-8.8-8.6c-1.3-5.3-1.3-10.7-0.3-16.1
	c0.5-2.5,0.4-5,0.7-7.5c0.1-1.2,0.5-2.5,0.5-3.7c0-0.6-0.1-1.3-0.4-1.8c-0.9-1.5-1.8-3-2.8-4.5c-2-3-3-6.3-3.2-9.9
	c-0.3-5.1-0.7-10.2-1-15.2c-0.1-0.9,0-1.9,0.2-2.8c1.1-5.2,2.1-10.4,3.3-15.6c0.5-2.3,1.3-4.6,2.1-6.9c0.5-1.6,1.5-2.4,2.8-2.3
	c1.3,0.1,2.1,0.9,2.6,2.5c0.3,0.9,0.6,1.8,0.9,2.7c0.1,0.1,0.2,0.3,0.5,0.3c-0.1-0.6-0.1-1.1-0.2-1.7c-0.5-1.6-0.8-3.3-1.5-4.9
	C8.3,140,8,134.3,8.9,128.6c0.6-3.7,1.4-7.4,1.8-11.1c0.3-2.3,0.2-4.6,0.2-6.9c0-1.5-0.2-3-0.2-4.5c0-1.8,0.9-2.7,2.7-3
	c0.4,0,0.9-0.3,1-0.6c1.2-2.6,2.3-5.2,3.3-7.8c0.5-1.2,0.8-2.4,1-3.6c0.3-1.6,1.3-2.5,2.7-2.5c1.3,0.1,2.3,1.1,2.5,2.6
	c0.2,1.3,0.4,2.6,0.7,3.8c0.2,1,0.9,1,1.4,0.3c0.6-0.8,1-1.6,1.4-2.4c2.3-4.4,4.4-8.9,6.9-13.2c4.8-8,9.3-16.2,12.6-25
	c2.5-6.7,7.1-11.6,12-16.4c1.9-1.9,3.7-3.8,5.4-5.8c0.5-0.6,0.9-0.9,1.7-0.6c0.7,0.3,1.4,0.5,2.1,0.6c1.7,0.4,2.6-0.5,2.5-2.2
	c-0.1-0.9-0.1-1.7-0.3-2.5c-0.3-1,0.2-1.7,0.9-2.3c5-4,9.9-8,14.8-12c0.4-0.3,1.1-0.5,1.7-0.5c0.9,0.1,1.9,0.4,2.8,0.5
	c0.7,0,1.6-0.1,1.9-0.6c0.3-0.4,0.2-1.3,0.1-2c-0.2-0.8-0.6-1.5-1.1-2.4c2-0.4,3.9-0.9,5.9-1.2c4.8-0.9,9.5-1.8,14.3-2.7
	c1.3-0.3,2.2-0.1,2.8,1.3c1.4,3.4,2.8,6.7,4.3,10.1c0.4,0.8,0.8,1.6,1.2,2.4c0.1,0.3,0.3,0.7,0.2,1c-0.8,1.8-1.5,3.7-2.5,5.3
	c-0.9,1.5-2.2,2.7-3.2,4c-0.3,0.4-0.3,1-0.4,1.5c0.5,0,1.2,0.2,1.6-0.1c2.1-1.4,4.2-3,6.3-4.5c0.7-0.5,1.5-0.9,2.3-1.1
	c3.6-0.8,6.8-2.1,9.6-4.6c1.6-1.5,3.8-2.4,5.7-3.5c0.7-0.4,1.3-0.3,2,0.4c1,1.1,2.1,2.1,3.2,3.1c0.5,0.6,0.9,0.5,1.4,0
	c1-1,1.7-2,1-3.7c2.7,0.5,5.1,1.1,6.5,3.6c0.5,0.8,1.4,1.3,2.2,1.8c2.2,1.1,4.5,2.1,6.7,3.2c0.3,0.2,0.5,0.7,0.6,1.1
	c1,3.1,2,6.2,2.9,9.3c0.3,1,0.8,1.2,1.7,1c0.8-0.2,1.7-0.2,2.5-0.5c0.5-0.2,1-0.6,1.2-1c0.7-2.2,1.3-4.4,1.9-6.6
	c0.2-0.8,0.5-1.2,1.3-1.1c2.3,0,4.5-0.1,6.8-0.1c2.9,0.1,5.4,1.7,8,2.7c1.2,0.5,2.3,1,3.5,1.3c1.8,0.5,3.4-0.2,4.9-0.9
	c0.4-0.2,0.9-0.3,1.2-0.6c2.3-1.7,4.3-1.2,6.3,0.6c0.7,0.6,1.5,1.2,2.3,1.7c0.3,0.2,0.9,0.4,1.2,0.3c0.3-0.1,0.5-0.7,0.5-1.1
	c0.1-1.6,0-3.2,0.1-4.9c0-0.4,0.3-1,0.6-1.1c2.6-1,5.2-2,7.5-2.8c1,0.7,1.7,1.5,2.5,1.8c1.7,0.6,3.1,0.2,4.1-1.5
	c1.1-2,3.1-2.6,5.2-2.4c7,0.6,12.8-2.2,18.1-6.4c4.4-3.5,8.9-7.1,13.3-10.6c3.5-2.7,7.6-3.4,12.2-3c-1.4,0.8-2.5,1.4-3.7,2
	c1.1,1.8,2,3.5,3.1,5.1c0.7,1.1,2.3,1.4,3.5,0.7c1.3-0.7,2.5-1.5,3.7-2.3c0.8-0.5,1.3-0.5,2,0.2c3,2.9,3,2.9,6.6,1
	c0.4-0.2,1.2,0,1.6,0.2c3,2,6,3.9,9.6,4.5c1.9,0.3,3.9,0.6,5.8,0.9c0.4,0.1,1,0.7,1,1.1c0.4,2.2,0.7,4.4,1.1,6.5
	c0.1,0.5,0.5,0.8,0.8,1.3c0.4-0.3,1-0.5,1.2-0.9c0.9-1.9,1.8-3.9,2.5-5.8c0.3-0.8,0.7-1.1,1.7-1.1c3.3,0.1,6.7,0.1,10.1,0.2
	c0,1.4,0.1,2.7,0.1,4.2c0.4-0.1,0.8-0.1,1-0.2c1.8-0.9,3.7-1.6,5.2-2.9c2.3-2,5.1-2.8,7.7-4c2.7-1.1,5.4-2.2,8.2-3
	c2.7-0.7,5.5-1.1,8.2-1.3c3.5-0.3,6.8,0.4,9.8,2.5c0.3,0.2,0.7,0.3,1.1,0.4c3.7,1.4,7.4,2.8,11.1,4.2c0.9,0.3,1.8,0.8,2.7,1.2
	c3.8,1.6,7.6,2,11.3-1c1.3,1.9,2.6,3.8,3.7,5.7c1,1.6,1.3,1.8,3.2,1.5c0.4-0.1,0.7-0.1,1.1-0.2c1.4-0.7,2.5-0.4,3.6,0.7
	c0.9,0.9,1.7,0.6,2-0.7c0.4-1.9,0.7-3.8,1.1-5.7c0.1-0.5,0.2-1,0.3-1.6c2.5,0.2,5,0.2,7.5,0.7c4.1,0.8,8-0.1,11.7-1.6
	c1.5-0.6,2.9-1.1,4.4-1.7c1.1-0.5,2-0.6,2.6,0.9c0.6-0.5,1-0.9,1.5-1.3c0.7-0.6,1.3-1.2,2.1-1.7c0.7-0.5,1.3-0.4,2,0.2
	c1,1,2.1,0.9,3.3,0c1-0.8,2.1-1.6,3-2.5c1-0.9,2.3-1.4,3.6-1.3c2.2,0.1,4.3,0.2,6.4,0.7c4.3,1,8.4,2.3,11.9,5.2
	c2.9,2.4,5,5.4,6.6,8.6c1.3,2.5,2.9,4.8,5,6.7c0.5,0.5,1.3,0.8,2,0.9c1.8,0.2,3.7,0.1,5.5,0.3c0.6,0.1,1.1,0.6,1.6,1
	c0.3,0.2,0.5,0.6,0.6,0.9c0.9,2.4,2.7,3.2,5.1,2.7c0.5-0.1,1,0,1.5,0c2.4-0.1,2.5-0.1,3-2.5c0.2-0.8,0.6-0.9,1.3-1
	c3.6-0.1,7.1,0.1,10.7,0.4c4.1,0.3,7.5,1.9,10.9,3.9c2.8,1.7,4.7,4.1,5.3,7.3c0.9,4.1,2.8,7.8,4.7,11.4c1.3,2.4,2.4,4.9,3.7,7.4
	c1,1.9,2,3.7,2.9,5.6c1.2,2.5,2.4,5,3.6,7.5c0.3,0.6,0.4,1.2,0.7,1.8c1.7,3.8,2,3.9,6.2,3.6c3.8-0.3,6.9-2.1,9.6-4.6
	c2-1.8,3.7-3.8,5.5-5.8c0.5-0.5,0.9-1,1.5-1.3c1.5-0.8,2.4-0.3,2.3,1.4c0,3.8,0.5,7.5,1.9,11.1c1.2,3,2.2,6.1,3.3,9.2
	c0.3,0.8,0.2,1.8,0.3,2.7c0.6,5.1,1.2,10.2,1.8,15.3c0,0.3,0.2,0.6,0.3,1c0.7-0.5,1.2-1.1,1.9-1.3c0.7-0.2,1.5-0.2,2.2,0
	c0.2,0,0.2,1,0.1,1.6c-0.4,4,0,7.8,1.3,11.6c1.2,3.4,2.3,6.8,3.1,10.3c0.5,2.2,0.3,4.5,0.1,6.7c-0.2,2.1-0.7,4.2-1.3,6.2
	c-0.5,1.6-1.2,3.2-2.2,4.6c-4.3,6-5.9,12.6-5,19.9c1.1,8.7,2.3,17.4,3.6,26.1c0.9,5.7,0.1,11.1-1.9,16.5c-0.2,0.6-0.7,1.1-1.1,1.5
	c-1,1.1-2,2.2-3,3.3c-2.9,3.2-3.4,6.9-2.1,11c0.9,2.9,1.4,6,3,8.6c0.3,0.4,0.2,1.1,0.2,1.7c-0.1,2.5-0.5,5-0.4,7.6
	c0,2.2-0.7,4.2-1.4,6.1c-0.4,1.3-1.5,1.9-2.8,2c-1.8,0.1-3.5,0.2-5.3,0.3c-15.5,0.5-30.9,1-46.4,1.6c-1.1,0-1.9-0.2-2.6-1.1
	c-1.4-1.8-2.9-3.4-4.4-5.1c-0.4-0.4-0.6-0.9-1.1-1.2c-0.4-0.3-1.1-0.6-1.5-0.5c-0.3,0.1-0.6,0.9-0.6,1.3c0,1.8,0,3.6,0.1,5.4
	C505.2,251.6,505.2,252.1,505.2,252.8 M336.9,229.8c-0.1-2.3-0.1-4.4-0.1-6.6c0-2.6,0.8-3.4,3.4-3.5c2.5-0.1,5-0.2,7.5-0.2
	c8.1,0.3,16.1,0.6,24.2,0.9c5.3,0.2,10.5,0.2,15.8,0.3c2.6,0.1,3.3,0.5,4.1,3.1c0.2,0.7,0.4,1.1,1.3,1.1c11.3,0.1,22.5,0.4,33.8,0.3
	c6.3-0.1,12.5-0.9,18.8-1.3c2-0.1,2.8,0.4,3.6,2.3c1.8,4.5,3.8,9,5.6,13.5c0.4,0.9,0.9,1.2,1.9,1.2c7.1,0,14.2,0.1,21.2,0
	c5-0.1,10-0.4,15-0.6c0.8,0,1.4-0.1,1.3-1.2c-0.3-3.4-0.6-6.7-0.8-10.1c-0.4-4.6-0.8-9.3-1.2-13.9c-0.1-1.3-0.1-2.6,0.1-3.9
	c0.1-0.7,0.8-1.6,1.4-1.7c0.6-0.2,1.5,0.2,2.1,0.6c0.5,0.3,0.7,1,1,1.6c0.7,1.2,1.3,2.5,2,3.7c0.2,0.3,0.8,0.7,1.2,0.7
	c1.6,0,3.2,0,4.7-0.2c1.5-0.1,2.2-1.6,1.5-2.9c-0.7-1.4-1.5-2.8-2.4-4.1c-5.3-7.2-10.5-14.6-14.5-22.7c-0.2-0.3-0.4-0.6-0.6-0.9
	c-0.2,3-0.1,5.9,0,8.7c0.3,9.8,0.5,19.6,0.8,29.4c0.1,2.2,0.1,4.4,0.3,6.6c0.4,4.1,0.2,4.4-3.9,4.4c-8.3,0-16.6,0-24.9,0
	c-0.8,0-1.7,0.3-2.4,0.6c-1.2,0.5-2.3,0.2-2.7-1.1c-1.9-5.1-3.8-10.2-5.7-15.3c-0.1-0.3-0.3-0.6-0.4-0.9c0,0.1,0,0.3-0.1,0.4
	c-1.4,0.3-2.7,0.8-4.1,0.8c-13.1-0.1-26.3-0.3-39.4-0.5c-3.1,0-6.1,0-9.2-0.3c-3.6-0.4-4.4-1.3-4.4-4.9c0-5.4,0-10.8,0.3-16.2
	c0.2-3.8-1.3-7-2.7-10.3c0,0-0.2,0-0.6,0c0.4,5.4,0.9,10.8,1.2,16.2c0.2,3,0.3,6,0.2,9c-0.1,2.1-1.1,3-3.2,3
	c-5.9,0-11.8-0.1-17.7-0.1c-5.9,0-11.8,0.1-17.7,0.1c-4.3,0-8.5-0.2-12.8-0.4c-1.3,0-2.2-0.7-2.8-1.8c-1.4-3-2.9-5.9-4.3-8.9
	c-0.2-0.4-0.3-0.8-0.6-1.3c-0.1,0.4-0.2,0.5-0.2,0.6c0.1,6.4,0.2,12.8,0.4,19.2c0.1,3.2-0.7,4.2-3.9,4.1c-8.9-0.3-17.8-0.6-26.6-0.9
	c-7.3-0.2-14.5-0.3-21.8-0.6c-6.5-0.2-13.1-0.5-19.6-0.7c-2-0.1-2.8-0.9-2.7-2.9c0.1-3.1,0.2-6.2,0.3-9.3c0-7,0-14,0-21
	c0-0.3-0.1-0.6-0.1-0.9c-0.2,0-0.3-0.1-0.5-0.1c-1.1,2.6-2.1,5.1-3.2,7.7c-0.3,0.7-0.4,1.5-0.9,2.1c-2,2.7-4.1,5.4-6,8.2
	c-1.1,1.5-2.3,2.5-4.2,2.5c-5.5,0.1-11.1,0.4-16.6,0.2c-8.7-0.3-17.3-0.9-25.9-1.3c-1.5-0.1-2.7-0.4-3.6-1.6
	c-2.2-2.7-4.3-5.4-6.4-8.2c-0.5-0.6-0.7-1.6-0.7-2.4c-0.1-4.6,0-9.3,0-13.9c0-1.2,0.1-2.5,0.1-3.7c-0.1,0-0.3,0-0.4-0.1
	c-0.4,1.2-0.8,2.3-1.1,3.5c-1.3,5-2.5,10.1-3.7,15.1c-0.6,2.4-1.2,4.8-1.6,7.3c-0.3,1.9-1,2.9-2.9,3c-2.1,0.1-4.2,0.1-6.2,0
	c-4.4-0.2-8.7-0.6-13.1-0.8c-2.8-0.1-5.7-0.1-8.5-0.2c-2.1-0.1-2.6-0.8-2.6-2.8c0-4.5,0-8.9,0.1-13.4c0-0.3,0-0.6-0.1-1.4
	c-1.1,1.7-2,3.1-3,4.5c-3.1,4.3-5.3,9.3-10.1,12.1c-0.2,0.1-0.3,0.3-0.4,0.3c-0.7,0.3-1.3,0.9-2,0.9c-3.3,0.1-6.6,0-9.8,0
	c-5.6,0-11.2,0-16.8,0c-1.8,0-2-0.2-2-2c-0.1-6.6-0.1-13.3-0.2-19.9c0-0.5-0.1-0.9-0.1-1.4c-0.4,0.4-0.6,0.8-0.8,1.1
	c-1.3,2.5-2.5,5.1-3.8,7.6c-1.3,2.4-2.6,4.8-3.9,7.3c-2,3.9-3.8,7.8-5.8,11.6c-1.9,3.6-4,7.2-5.8,10.9c-0.5,1-1,1.5-2.2,1.6
	c-2.9,0.2-5.7,0.5-8.6,0.7c-5.9,0.3-11.7,0.5-17.6,0.7c-7.5,0.3-15,0.5-22.5,0.8c-5,0.1-10,0.2-15,0.3c-0.8,0-1.1-0.1-1.1-0.9
	c0.1-1.5,0-3.1,0.2-4.6c0.6-6.2,1.4-12.3,1.8-18.4c0.7-8.8,1-17.6,1.7-26.3c0.7-10.3,1.7-20.6,2.4-30.9c0.4-6,0.6-12,0.9-18
	c0.2-4.1,0.4-8.1,0.6-12.2c0.1-1.4,0.2-2.8,0.3-4.3c-2.6-0.1-3.3-2.4-5-3.6c-0.4,2.2-0.6,4.1,0.3,6.2c0.9,2,1.3,4.3,1.6,6.5
	c0.2,1.8-1.1,3.1-2.9,3.2c-1.2,0-2.4-0.3-3.7-0.5c-0.5,2.4-1.1,5.1-1.6,7.7c-0.2,1-0.2,2-0.1,3c0.1,1.9,0.4,3.8,0.4,5.7
	c0,1.3,0.5,2.3,1.2,3.4c2.6,4,4.5,8.3,3,13.2c-0.7,2.4-1,5.1-3.1,6.9c-0.6,0.5-1.5,0.8-2.3,0.8c-1.9,0.1-2.6-1.5-3.5-2.8
	c-0.3-0.5-1.1-0.8-1.6-1.1c-0.3,0.6-0.8,1.2-0.8,1.8c0.3,9.1,0.7,18.2,5.4,26.5c0.1,0.2,0,0.6,0,0.9c-0.3,0-0.8,0.1-1-0.1
	c-1-1.1-2-2.3-3-3.4c-0.3-0.3-0.9-0.7-1.3-0.6c-0.3,0-0.8,0.7-0.8,1.1c0,3.8,0.2,7.5,3.2,10.4c1.6,1.5,2.3,3.5,2.8,5.6
	c0.2,1.1,0.9,2.1,1.2,3.2c0.3,0.9,0.9,1.9,0.8,2.9c-0.2,3.9-0.5,7.8-0.8,11.7c-0.1,1-0.2,2-0.3,3.1c-0.1,0-0.2,0-0.3,0.1
	c-0.5-1.2-0.9-2.3-1.5-3.8c-0.6,0.8-1.4,1.4-1.5,2.1c-0.2,1.7-0.3,3.5-0.1,5.3c0.3,2.1,0.5,4.3,1.5,6.1c1.7,3,6.2,4.4,10.7,3.9
	c-3.2-1-3.4-3.5-3.7-6.4c2.2-0.1,4.3-0.2,6.3-0.3c8.6-0.2,17.3-0.4,25.9-0.5c3.2-0.1,6.5,0,9.7-0.1c7.6-0.3,15.1-0.6,22.7-1
	c0.6,0,1.3-0.3,1.6-0.7c3.4-5.2,6.8-10.5,10.1-15.8c0.6-1,1-2.3,1.8-3.2c0.7-0.8,1.9-1.7,2.8-1.7c1.3,0,1.4,1.5,1.5,2.6
	c0.1,0.7,0.1,1.4,0.1,2.2c0,0.8,0.3,1.2,1.1,1.2c1.9,0.1,3.8,0.3,5.7,0.3c9.2-0.1,18.5-0.3,27.7-0.5c0.5,0,1.2-0.3,1.6-0.7
	c1.6-1.9,3.1-4,4.6-6c0.7-0.9,1.5-1.7,2.7-1.3c1.2,0.3,1.5,1.3,1.6,2.4c0,0.4,0,0.7,0.1,1.1c0.1,1.6,0.3,3.3,0.4,4.8
	c1.9,0,3.6-0.1,5.4-0.1c10.2,0.2,20.5,0.4,30.7,0.7c0.9,0,1.4-0.1,1.6-1.1c0.2-1.1,0.5-2.2,0.9-3.3c0.8-2.4,2.6-2.8,4.1-0.9
	c1.5,1.9,2.8,3.9,4.2,6c1.2,1.7,2.8,2.4,4.9,2.3c3.3-0.1,6.7-0.1,10,0c5.3,0.3,10.6,0.9,15.9,1.2c4.8,0.2,9.6,0.1,14.5,0.2
	c1.3,0,2.3-0.3,3.3-1.1c2-1.5,4-2.9,6.1-4.2c1.9-1.1,3.4-0.2,3.7,1.9c0.1,0.4,0.1,0.9,0.2,1.3c0.3,4.1,0.5,8.1,0.7,12.2
	c0.1,1.1,0.4,1.5,1.6,1.5c3.8-0.2,7.6-0.3,11.4-0.3c5.5,0.1,11.1,0.5,16.6,0.6c9.7,0.2,19.5,0.3,29.2,0.5c3.7,0,7.4-0.1,11.1-0.2
	c2.3,0,4.7-0.1,7-0.2C332.5,229.9,334.5,229.9,336.9,229.8 M131.3,24.2c-0.9,1.7-1.7,3.2-2.5,4.7c-1.6,2.9-3.1,5.8-4.7,8.7
	c-0.9,1.7-1.8,3.3-2.7,5c-0.3,0.7-0.4,1.6-0.8,2.3c-0.6,1.1-1.6,2.1-2.2,3.2c-7,12.3-12.7,25.4-20.6,37.3c-0.2,0.3-0.1,1,0,1.4
	c0.3,1.2,0.9,2.3,1,3.4c0.5,10.7,0.9,21.4,1.3,32c0.3,6.5,0.5,13.1,0.9,19.6c0.1,2.8,0.4,5.5,0.6,8.3c0.1,0,0.2,0,0.4,0
	c0.9-2.3,1.9-4.6,2.8-7c0.1-0.2,0.1-0.4,0.1-0.7c0.1-8.4,0.5-16.9,0.2-25.3c-0.3-9.7-0.4-19.4,0.4-29.1c0.2-2,0-4.1,1.3-5.8
	c0.6-0.7,1.2-1.4,1.7-2.2c4.7-8.5,9.3-16.9,13.9-25.4c0.8-1.4,1.6-2.9,2.5-4.6c0.5,1.4,0.7,2.5,1.3,3.4c0.6,0.9,0.4,1.6,0,2.4
	c-3.4,6.2-6.7,12.5-10.1,18.7c-1.2,2.3-2.5,4.5-3.7,6.7c7.7-0.2,15.4-0.5,23-0.5c7.6,0,15.3,0.3,22.7,0.4c0.4-1.9,0.7-3.6,1.2-5.2
	c0.1-0.3,0.6-0.8,0.9-0.8c3-0.2,4.8-1.7,5.4-4.7c0.2-1,0.8-1.1,1.8-0.8c1.8,0.6,3.6,1.4,5.4,1.7c1.4,0.3,1.9,1,2,2.3
	c0.2,1.5,0.6,2.9,0.9,4.4c0.1,0,0.3,0,0.4,0c0.6-1,1.2-2.1,1.9-3.1c0.8-1.2,1.3-2.3,0.6-3.9c-1.9-4.2-3.5-8.5-5.3-12.7
	c-0.5-1.3-1.8-1.8-3.2-1.5c-0.6,0.1-1.1,0.3-1.7,0.3c-2.6,0.4-3.1,0-3.9-2.5c-1.5-4.4-3.1-8.9-4.7-13.3c-0.2-0.5-0.8-1.2-1.3-1.3
	c-2.6-0.3-4.7-1.4-6.8-2.9c-2.3-1.6-4.6-3.1-7-4.7c-4.8,8.4-7.6,17.5-11.2,26.2c0.3,0.2,0.3,0.2,0.3,0.2c1.1-0.4,2.1-0.8,3.2-1.1
	c1.7-0.6,2.4-0.2,3.1,1.4c1.1,2.4,2.2,4.7,3.3,7.1c0.5,1.1,1.1,2.3,1.6,3.4c0.3,0.8,0.4,1.6-0.5,2c-0.9,0.3-1.3-0.3-1.7-1
	c-1.2-2.4-2.4-4.9-3.6-7.3c-0.5-1-0.8-2.7-1.6-3c-0.9-0.3-2.2,0.6-3.4,1c-1.8,0.7-2.5,0.4-3.1-1.3c-1.5-3.9-2.9-7.9-4.3-11.8
	c-0.4-0.9-0.3-1.7,0.2-2.6c2.5-4.5,5.1-9.1,7.6-13.6c0.8-1.5,1.7-3,2.6-4.6C135.2,26.7,133.4,25.5,131.3,24.2 M503.5,129.7
	c-0.4-0.4-0.6-0.5-0.7-0.7c-2.8-3.6-5.7-7.2-8.5-10.9c-3.4-4.3-5.9-9.3-9.8-13.2c-0.4-0.4-0.7-1-1-1.6c-0.9-2-2.3-2.8-4.4-2.7
	c-2,0.1-4.1,0.1-6.1,0.2c-2.2,0-4.3-0.1-6.5,0.1c-0.9,0.1-2,0.5-2.5,1.2c-1.4,1.8-2.5,3.8-3.6,5.7c-0.3,0.5-0.5,1.2-0.5,1.8
	c0,9.8,0.1,19.6,0.2,29.4c0.1,7.6,0.2,15.2,0.3,22.9c0.1,8.7,0.3,17.3,0.5,26c0.1,5.6,0.4,11.3,0.5,16.9c0.1,6.8,0,13.6,0,20.4
	c0,0.8,0.1,1.6,0.1,2.4c-0.1,1.8,0.3,2.4,2.1,2.4c6.1,0,12.3,0.1,18.4,0.1c2.6,0,3.1-0.5,3-3.1c-0.4-10-0.9-20-1.2-30
	c-0.3-9.1-0.4-18.1-0.6-27.2c0-0.3,0-0.5,0.1-0.8c1.2,0,2.3,0.1,3.4-0.1c1.1-0.2,1.6,0.1,2.1,1.1c1.9,4.1,4,8.2,5.9,12.3
	c0.5,1.1,1.3,1.7,2.5,1.7c2.4,0,4.8,0,7.2,0c1.7,0,3-0.8,3.8-2.3c1.9-3.6,4.1-7,5.8-10.7c1.2-2.6,2.8-3.7,5.6-3.1
	c0.7,0.2,1.1,0.3,1.1,1.1c0.1,2.9,0.3,5.9,0.3,8.8c-0.1,6.4-0.4,12.8-0.4,19.2c0,9.2,0.1,18.5,0.2,27.7c0,2.4,0.7,3.1,3.1,3
	c5.3-0.2,10.6-0.4,16-0.6c2.6-0.1,5.1-0.1,7.7-0.2c0.9,0,1.5-0.3,1.5-1.4c0.1-7.1,0.2-14.2,0.2-21.2c0.1-8.8,0.1-17.6,0.2-26.4
	c0.1-13.2,0.3-26.4,0.4-39.6c0.1-7.3,0-14.6-0.1-21.9c0-1.1-0.5-2.4-1.1-3.4c-1.2-2.2-2.6-4.3-3.8-6.5c-0.7-1.3-1.8-2-3.3-2
	c-4.3-0.1-8.6-0.1-12.9,0c-0.9,0-2,0.6-2.7,1.2c-2.9,2.7-5.7,5.5-8.5,8.3c-2.4,2.5-4.9,4.9-7.2,7.5
	C508.2,123.9,505.9,126.8,503.5,129.7 M274.4,148.2c-3.1,2.8-6.1,5.6-9.2,8.4c-0.9,0.8-1.5,1.6-1.6,2.8c-0.1,3.7-0.2,7.5-0.3,11.2
	c-0.1,6.5-0.2,13.1-0.4,19.6c-0.3,8.9-0.5,17.8,0.2,26.6c0.2,2.4,0.8,3,3.2,3c0.6,0,1.2,0,1.8,0.1c6.2,0.4,12.4,1,18.6,1.2
	c11,0.4,22,0.7,33,1c1.3,0,2.5,0.1,3.8,0c1,0,1.8-0.4,2-1.5c0.3-1.6,0.5-3.3,0.5-5c0.2-7,0.2-14,0.4-21c0.2-5,0.6-9.9,0.7-14.9
	c0.1-4.8,0.1-9.7,0-14.5c0-0.8-0.2-1.7-0.7-2.3c-4.1-5.3-8.2-10.6-12.3-15.9c-0.5-0.6-1-1.2-1.6-2c0.9-0.7,1.7-1.4,2.5-2
	c2.8-2.2,5.6-4.4,8.4-6.5c1.4-1.1,1.8-2.4,1.8-4.1c0.1-7.5,0.3-15,0.5-22.5c0.4-9.5,0.9-19.1,1.3-28.6c0.1-1.5-0.7-2.3-2.2-2.4
	c-0.9,0-1.8,0-2.7,0c-10-0.1-19.9-0.3-29.9-0.4c-6-0.1-11.9-0.3-17.9-0.4c-3.3,0-6.6,0-9.9,0.2c-2,0.1-3.1,1.3-3.2,3.3
	c0,0.9,0,1.8,0,2.7c0.6,16.2,1.2,32.4,1.8,48.6c0.1,1.9,0.7,3.4,2,4.8C268.3,141.2,271.2,144.6,274.4,148.2 M103.6,12.1
	c-0.1-0.1-0.2-0.2-0.2-0.3c-0.3,0.2-0.7,0.4-1,0.6c-1.4,1-2.7,2-4,2.9c-4.1,2.9-8.1,6-12.8,8c-2.7,1.2-5.3,2.9-7.9,4.5
	c-0.5,0.3-1,0.8-1.3,1.3c-3.1,4.9-6.1,9.9-9.1,14.9c-0.2,0.4-0.4,1.1-0.2,1.5C68,47.8,69,50,70,52.2c0.3,0.7,0.8,0.9,1.5,0.6
	c1-0.4,2.1-0.8,3.2-1.2c1.5-0.6,2.2-0.4,2.8,1.1c1.9,5.2,3.8,10.4,5.7,15.6c0.3,0.8,0.2,1.6-0.7,1.7c-0.5,0.1-1.1-0.5-1.6-0.9
	c-0.2-0.1-0.2-0.5-0.3-0.7c-1.6-4.3-3.1-8.7-4.7-13c-0.2-0.5-0.4-1-0.6-1.5c-0.9,0.3-1.7,0.7-2.4,0.9c-1.1,0.3-2.2,0.4-3.3,0.5
	c-0.8,0.1-1.6-0.1-2.4,0.1c-0.9,0.2-1.5,0.1-2-0.8c-0.5-0.9-1.2-1.8-1.8-2.7c-1.4-2.1-2.9-4.2-4.4-6.5c-0.8,1-1.4,1.9-2.1,2.7
	c-1,1-1.3,2.2-1.2,3.6c0.3,3.3,1.1,6.7,0.5,9.8c-0.6,3.8,2.1,6.2,2.4,9.5c0.1,0.6,0.3,1.2,0.4,1.8c0.3,1,0.5,2-0.4,2.8
	c-0.9,0.8-1.9,0.5-2.8,0.1c-1.4-0.5-2.8-1.1-4.2-1.6c-1.7-0.6-2-0.5-2.9,1c-0.5,0.9-1,1.7-1.5,2.6c-1.4,2.4-2.9,4.8-4.4,7.4
	c0.5,0,0.8-0.1,1.1-0.1c5-0.3,10-0.9,15-0.9c11.2,0,22.4,0.3,33.6,0.4c0.6,0,1.4-0.3,1.6-0.7c1.4-2.3,3.6-4.1,3.3-7.3
	c-0.2-2.5,0.7-5,1-7.5c0.6-3.9,1.1-7.8,1.7-11.7c0.2-1.1,0.2-2-1.3-2.3c-0.9-0.2-1.8-0.6-2.6-1c-1.1-0.5-1.5-1.4-1.2-2.5
	c0.3-1.1,0.6-2.2,1-3.2c1.5-3.8,2.9-7.5,4.5-11.5c-1.3-0.3-2.7-0.5-4.1-0.8c-3.9-0.8-4.1-1.2-2.4-4.7C97.3,25,100.5,18.6,103.6,12.1
	 M409.7,90.9c0,0.2,0,0.3,0,0.5c4.5-0.1,8.9-0.2,13.4-0.3c1.1,0,1.4-0.4,1-1.4c-0.2-0.4-0.3-0.9-0.4-1.3c-1-3.4-2-6.8-3-10.3
	c-0.5-1.8-0.1-2.5,1.6-3.4c0.4-0.2,0.8-0.4,1.2-0.5c1-0.3,1.2-0.9,1.2-1.9c0.1-2.9,0.5-5.8,0.7-8.7c0.2-2.2,0.4-4.2-0.9-6.3
	c-5.7-9.1-11.1-18.3-16.6-27.4c-0.5-0.8-0.9-1-1.7-0.6c-2.2,0.9-4.4,1.8-6.7,2.6c-1.2,0.5-2.5,0.7-3.7,1.2c-2.1,0.9-2.2,1.3-2,3.5
	c0.1,0.6,0,1.2-0.1,1.7c-0.3,2.1-0.7,4.3-1,6.4c-0.3,2.5-1.4,4.2-3.9,5.1c-1.8,0.6-3.5,1.7-5.2,2.6c-0.8,0.4-1.2,0.9-1.2,1.8
	c-0.2,3.9-0.6,7.8-0.8,11.7c0,0.7,0.2,1.5,0.5,2.2c3.2,7,6.4,14.1,9.6,21.1c0.1,0.3,0.2,0.7,0.5,0.8c1.3,0.4,2.5,1.1,3.8,1.1
	C400.7,91.2,405.2,91,409.7,90.9 M512.6,111.1c-3.3,0.1-3.4-1.8-3.5-3.8c-0.1-1.2-0.3-2.3-0.3-3.5c0-0.6,0.2-1.3,0.4-1.9
	c0.7-1.8,1.6-3.5,2.3-5.3c0.4-1,0.9-1.3,1.9-1.3c1.1,0,2.2,0,3.6-0.1c-0.5-0.8-0.8-1.2-1.1-1.7c-3.2-5.2-6.6-10.4-9.7-15.6
	c-6.7-11.3-13.4-22.6-20-33.9c-0.5-0.8-1-1-1.9-0.7c-2.3,0.6-4.7,1.1-7.1,1.6c-0.9,0.2-1.9,0.4-2.6,0.9c-2.9,2.1-5.8,4.2-8.7,6.5
	c-0.6,0.5-1.1,1.3-1.2,2.1c-0.4,2-0.4,4.1-0.8,6.2c-0.3,1.6,0.2,2.8,1,4c7.7,12,15.2,24.1,23.2,35.9c4.7,7,10.2,13.5,15.3,20.3
	c0.1,0.1,0.2,0.2,0.3,0.3C507.6,118.6,509,114.3,512.6,111.1 M153.7,183.1C153.7,183.1,153.8,183.1,153.7,183.1
	c0.2,5.8,0.3,11.6,0.4,17.5c0,1.8,0.7,2.5,2.5,2.4c2.7-0.1,5.4-0.3,8.1-0.5c3.7-0.2,7.5-0.4,11.2-0.5c1.6,0,2.3-0.6,2.2-2.2
	c0-1.4-0.2-2.9-0.2-4.3c0-12.5,0-25,0-37.5c0-1.6-0.7-2.7-1.9-3.5c-2.8-1.7-5.7-3.2-8.5-5.1c-3-2-5.8-4.3-8.7-6.5
	c-0.1-0.1-0.2-0.2-0.3-0.3c-1.2-1.3-1-4,0.4-5.1c4.1-3.2,8.1-6.4,12.2-9.4c1.3-1,1.6-2,1.6-3.6c-0.1-5.4-0.1-10.8,0-16.2
	c0.2-7,0.6-14.1,1-21.1c0.1-1.4-0.5-2.1-1.9-2.2c-1.2-0.1-2.4,0-3.7,0c-6.4,0-12.8,0.1-19.2,0c-7.3-0.1-14.5-0.3-21.8-0.4
	c-2.1,0-4.2,0.1-6.2,0.2c-2.7,0.2-5.4,0.4-8.1,0.6c-1.9,0.2-2.3,0.6-2.5,2.5c-0.1,1.2-0.1,2.3-0.2,3.5c-0.4,8.9-1.1,17.8-1.1,26.7
	c-0.1,13.4,0.3,26.9,0.6,40.3c0.1,6.1,0.4,12.3,0.5,18.4c0.1,5.2,0.1,10.4,0.1,15.5c0,3.3,0,6.6,0.1,9.9c0,1.6,0.6,2.2,2.1,2.3
	c4.6,0.3,9.3,0.6,13.9,0.8c1.4,0.1,2.9,0.2,4.3,0.1c1.7-0.1,2.3-0.9,2.1-2.6c-0.1-0.8,0-1.6,0-2.4c0.2-8.7,0.4-17.4,0.6-26.1
	c0.1-4.2,0.3-8.4,0.5-12.6c0-0.8,0.3-1.1,1.1-1.1c4.2-0.1,8.5-0.2,12.7-0.2c1.3,0,5.4,3.2,5.7,4.5c0,0.2,0,0.4,0,0.5
	C153.5,171.4,153.6,177.3,153.7,183.1 M97,122.5c-0.1,0-0.3,0-0.4,0c-0.2-9.8-0.4-19.7-0.7-29.5c-0.1-2.9-1.2-4.1-4.1-4.2
	c-1.6-0.1-3.2-0.1-4.9-0.1c-8.6,0.2-17.2,0.6-25.8,0.7c-6.2,0.1-12.4,0-18.5,0c-0.8,0-1.9,0.4-2.3,1c-3.2,4.3-6.2,8.6-9.3,13
	c-0.5,0.7-0.8,1.6-0.9,2.5c-0.3,4.7-0.5,9.4-0.7,14c-0.2,4.8-0.5,9.5-0.7,14.3c-0.2,5.3-0.4,10.5-0.6,15.8
	c-0.2,4.6-0.1,9.3-0.4,13.9c-0.6,8.6-1.5,17.3-2.2,25.9c-0.6,6.9-1.2,13.8-1.8,20.7c-0.3,3-0.6,5.9-0.8,8.9
	c-0.1,1.4,0.8,2.2,2.3,2.3c2.9,0.1,5.9,0.2,8.8,0.2c5.5,0.1,11,0.2,16.5,0.2c8.7,0.1,17.3,0.1,26,0.1c1.7,0,2.4-0.6,2.8-2.2
	c0.5-2.3,0.8-4.6,1.3-6.9c0.4-2.2-0.2-4.1-1.1-6c-1.6-3.4-3.1-6.9-4.7-10.4c-2.2-5-4.4-10.1-6.6-15.1c-2.4-5.4-4.8-10.8-7.1-16.2
	c-0.4-1-0.8-2-1.1-3c-0.3-0.9,0-1.4,0.9-1.6c0.6-0.1,1.2-0.2,1.7-0.2c2,0.1,4.1,0.4,6.1,0.3c8.8-0.3,17.7-0.7,26.5-1.1
	c1.5-0.1,2.8-1.4,2.8-2.9c0-1.8-0.1-3.7-0.2-5.5C97.5,141.8,97.3,132.2,97,122.5 M568,175.1c-0.1,0-0.2-0.1-0.4-0.1
	c-0.5,0.8-0.9,1.5-1.4,2.3c-0.8,1.1-1.9,1.6-3.2,1.2c-1.2-0.3-1.9-1.4-1.9-2.8c0.1-2.7-0.1-5.4,0.3-8.1c0.4-2.7,1-5.5,1.9-8.1
	c0.5-1.5,1.8-2.8,2.6-4.3c1.1-2.2,2-4.5,3.1-6.7c0.8-1.5,1.2-3.1,1.2-4.8c0-3.5,0.1-7,0.3-10.6c0.1-3,0.5-5.9,0.6-8.9
	c0-0.5-0.7-1-1-1.5c-0.4,0.4-1,0.7-1.3,1.2c-0.3,0.4-0.3,0.9-0.4,1.4c-0.6,3.1-2.1,5.4-5.5,6.3c0.2-2.4,0.1-4.8,0.6-7.1
	c1.4-6.3,1.2-12.2-1.8-18c-0.8-1.5-1.1-3.3-1.3-4.9c-0.2-2.6,0-5.3-0.2-7.9c-0.2-2.8-0.7-5.6-1.1-8.3c-0.1-0.5-0.6-1.1-1-1.2
	c-0.4-0.1-1.1,0.4-1.4,0.8c-0.7,1.3-1.3,2.6-1.7,3.9c-1.2,4-3,7.7-6.8,9.9c-0.2,0.1-0.4,0.3-0.6,0.5c-1.9,2.3-1.8,4.6,1.4,5.4
	c0.4,0.1,0.9,0.2,1.3,0.4c2.1,1.3,3.9,2.8,3.9,5.6c0,2.3-0.4,4.7-0.3,7c0.1,4.5,0.5,9,0.6,13.5c0.2,8.2,0.3,16.5,0.5,24.8
	c0,1.3-0.1,2.5-0.1,3.8c-0.2,6.5-0.7,13.1-0.5,19.6c0.4,13.2-0.2,26.3-0.7,39.5c-0.1,3.3,0.1,6.6,0,9.9c-0.1,2.6-1.2,3.7-3.5,3.6
	c-7.3-0.1-14.5-0.1-21.8-0.1c-3.2,0-6.4,0.2-9.6,0.2c-0.8,0-2-0.2-2.5-0.8c-1.1-1.3-2.1-2.9-2.9-4.5c-1.8-3.5-3.4-7-5.2-10.7
	c-2.2,2.5-5,1.6-7.6,2.1c0.2,0.5,0.4,0.8,0.6,1.1c1.3,2.6,2.6,5.2,3.9,7.9c1.7,3.3,3.3,6.5,5,9.7c0.2,0.4,0.7,0.9,1.2,1
	c1.4,0.3,2.8,0.5,4.3,0.5c3.3,0.2,6.6,0.3,9.9,0.3c10.4,0,20.7,0,31.1,0c1.7,0,2-0.3,1.9-2c-0.2-3.7-0.6-7.5-0.6-11.2
	c0-7.3,0.1-14.6,0.2-21.9c0-1.5-0.1-3.1,1.8-3.8c0.2-0.1,0.3-0.3,0.5-0.5c1-1,2-2,3-2.9c2.2-1.9,3.9-3.9,3.4-7.1
	c-0.1-0.8,0-1.7,0.1-2.6c0.4-2.9,0.9-5.8,1.3-8.7C568.2,177.4,568,176.3,568,175.1 M415.6,146.6c0.1-0.4,0.1-0.5,0.1-0.5
	c-4.3-7.2-8.6-14.4-13-21.5c-0.2-0.3-0.6-0.6-0.9-0.7c-3-0.2-5.9-0.4-8.9-0.5c-1.9-0.1-2.6-0.6-3-2.4c-0.1-0.6-0.2-1.2-0.2-1.7
	c-0.2-8.3-0.4-16.5-0.7-24.8c0-1.1-0.1-2.4-0.5-3.4c-2-4.7-4-9.5-6.2-14.1c-5.3-11.2-10.8-22.3-15.9-33.5c-4-8.8-7.6-17.8-11.3-26.7
	c-0.3-0.7-0.5-1.1-1.4-1c-3.5,0.5-6.9,1.6-10.3,2.9c-0.9,0.3-1.1,0.7-0.7,1.6c1.8,4.7,3.4,9.6,5.6,14.2c3.2,6.7,5.8,13.6,8.7,20.4
	c3,6.9,6.8,13.5,9.5,20.6c3.9,10.3,9.1,20,12.8,30.4c1.9,5.5,4.3,10.9,6.8,16.2c3.8,8,7.9,15.8,11.8,23.7c0.5,1,1.1,1.5,2.3,1.3
	c0.9-0.2,1.9-0.1,2.8-0.2C407.2,146.8,411.4,146.7,415.6,146.6 M221.4,53.1c-3.9,7.4-7.6,14.4-11.4,21.5c1.1,0.4,1.8,0.5,2.5,0.9
	c0.7,0.5,1.5,1,1.9,1.8c1.6,2.9,2.9,6,4.5,9c0.2,0.4,0.8,0.9,1.3,0.9c7.3,0,14.5-0.1,21.8-0.2c1,0,1.6-0.4,2-1.3
	c0.7-1.5,1.5-2.9,2.1-4.4c3.9-8.8,7.7-17.5,11.5-26.3c0.3-0.7,0.3-1.6,0.1-2.3c-1.3-4.3-2.7-8.7-4.1-13c-1.4,0.1-2.7,0.2-4,0.3
	c-2.4,0.2-2.6,0-3-2.4c-0.6-3.5-1.3-6.9-2-10.4c-0.1-0.5-0.3-0.9-0.5-1.4c-0.7,0.3-1.2,0.5-1.7,0.7c-2.4,1.1-4.8,2.3-7.2,3.4
	c-2.2,1-3.8,2.5-4.8,4.8c-2.2,4.9-4.6,9.8-7,14.6c-0.5,1-0.4,1.8,0.1,2.8c1.2,1.9,2.5,3.8,3.5,5.8c1,1.9,2,3.5,4.5,3.2
	c0,0,0.1,0,0.1,0c0.8,0.2,1.4,0.7,1.3,1.6c-0.2,0.9-0.9,1-1.7,0.9c-0.7-0.1-1.3-0.2-2-0.4c-0.8-0.2-1.3,0-1.6,0.8
	c-0.6,1.3-1.3,2.6-1.9,3.9c-0.4,0.8-0.9,1.5-1.9,1.1c-1-0.5-0.7-1.3-0.4-2.1c0.7-1.5,1.5-2.9,2.2-4.4c0.2-0.5,0.5-1.3,0.2-1.8
	C224.5,58.2,223,55.8,221.4,53.1 M236,207.5c0-0.1,0-0.1,0-0.2c1.3,0,2.6-0.1,3.9-0.1c1.8,0,3.3-0.8,4.4-2.3
	c1.3-1.8,2.8-3.4,4.1-5.2c0.6-0.8,0.9-1.8,1.4-2.7c1-2.2,0.5-4.4,0.5-6.7c0-14.5-0.1-29-0.1-43.4c0-3.7,0-7.4,0-11.1
	c0.1-12,0.3-23.9,0.3-35.9c0-1-0.2-2.3-0.8-3c-1.5-2-3.2-3.9-5-5.7c-0.5-0.5-1.4-0.9-2.1-0.9c-4.1-0.1-8.1-0.2-12.2-0.2
	c-8.2,0.1-16.5,0.4-24.7,0.6c-1.9,0-3.1,0.9-4.2,2.3c-1.9,2.3-4,4.4-5.8,6.8c-0.9,1.1-1.8,2.4-2.2,3.8c-0.4,1.6-0.3,3.4-0.3,5.1
	c0.1,13.7,0.5,27.3,0,41c-0.4,8.9,0,17.9,0,26.8c0,6.2-0.1,12.4-0.1,18.7c0,0.9,0.2,1.9,0.7,2.7c1.4,2.3,3,4.4,4.5,6.6
	c0.8,1.2,1.8,1.6,3.2,1.6c7.5,0.2,15.1,0.5,22.6,0.8C228,206.9,232,207.2,236,207.5 M445.5,194.9
	C445.5,194.9,445.5,194.9,445.5,194.9c-0.2-6.6-0.5-13.2-0.5-19.7c0-3.4-0.9-6.3-3.5-8.4c-2.9-2.2-3.6-5-3.3-8.4
	c0.1-1,0.3-1.7,1.1-2.3c1.9-1.5,3.8-2.9,5.6-4.5c0.6-0.5,1.1-1.4,1.1-2.2c0-6.6-0.1-13.3-0.4-19.9c-0.4-6.9-0.4-13.9,0.2-20.8
	c0.2-2.9,0.3-5.8,0.2-8.8c-0.1-1.7-1.2-3.5-2.6-3.5c-1.8,0-3.5-0.1-5.3-0.2c-9-0.3-18-0.6-27-0.8c-4.9-0.1-9.8-0.2-14.7-0.3
	c-1.3,0-2.1,0.6-2.1,1.9c-0.1,2-0.2,3.9-0.3,5.9c-0.2,4.5-0.3,8.9-0.4,13.4c-0.1,2.1,0.8,2.9,2.6,3c7.7,0.3,15.3,0.7,23,1
	c0.4,0,0.9,0.3,1.3,0.6c1.2,1,2.4,2.1,3.5,3.1c0.3,0.3,0.7,0.7,0.7,1.1c0.3,4.4,0.6,8.9,0.9,13.4c0,0.5-0.1,1.1-0.3,1.5
	c-1.7,2.7-3.4,5.3-5.1,8c-0.8,1.2-1.7,1.6-3.1,1.7c-5,0.1-10,0.2-15,0.3c-1.8,0-2.4,0.5-2.4,2.2c0,4.1,0,8.3,0.1,12.4
	c0,1.2,0.9,2.1,2,1.8c1.4-0.3,2.7-0.2,4,0.4c0.5,0.2,1.2,0.1,1.7,0.1c2.7,0,5.3,0,8,0.1c0.7,0,1.5,0.3,2,0.7c2.5,2.2,5,4.4,7.4,6.7
	c0.3,0.2,0.5,0.7,0.5,1.1c0.2,3.5,0.5,7,0.6,10.5c0,0.5-0.2,1.1-0.5,1.6c-1,1.6-2,3.2-3.1,4.8c-0.3,0.4-0.9,0.9-1.4,0.9
	c-1.5,0.2-3.1,0.1-4.6,0.2c-2.8,0-5.7,0.1-8.5,0.1c-2.8,0-5.6-0.1-8.4,0c-0.7,0-1.6,0.3-1.9,0.8c-0.5,0.9-0.9,2-1,3
	c-0.1,4.4,0,8.7,0,13.1c0,2.7,0.4,3,3.1,3.1c7.4,0.1,14.8,0.3,22.2,0.4c2.1,0,4.1,0.2,6.2,0.2c4.7,0.1,9.5,0.3,14.2,0.1
	c3.1-0.1,3.7-1.2,3.6-3.9C445.7,205.4,445.7,200.1,445.5,194.9 M313.6,40.9c-1.3,1-2.3,2-3.5,2.7c-1.8,1-2.5,2.6-3.1,4.4
	c-1.3,3.9-2.7,7.7-4.1,11.6c-0.2,0.5-0.3,1.2-0.7,1.4c-0.8,0.5-1.7,1.1-2.6,1.1c-1-0.1-0.9-1.3-0.9-2.1c-0.1-3.7-0.2-7.3-0.3-11
	c-0.1-2.5-0.1-4.9-0.2-7.3c-2.4-0.2-4.5-0.3-6.7-0.5c-1.5-0.1-2.1-0.9-1.6-2.4c0.6-1.7,1.2-3.4,1.9-5.1c1-2.4,2-4.8,2.9-7.3
	c0.2-0.4,0.2-1.2-0.1-1.3c-1.7-1.2-3.6-2.2-5.5-3.4c-5.7,11.9-11.3,23.7-17,35.8c1,0.3,1.8,0.6,2.7,0.8c1.1,0.2,2.3,0.4,3.5,0.5
	c1.2,0.1,1.9,0.8,2.1,2c0.2,1,0.3,2,0.3,3c0,0.8,0.4,1.2,1.2,1.2c1.3-0.1,2.1,0.7,2.4,1.9c0.6,1.9,1.2,3.9,1.7,5.8
	c0.3,1.2,0.8,1.5,2,1.5c7.4,0,14.8,0.1,22.2,0.2c5.2,0.1,10.4,0.1,15.5,0.2c0.2,0,0.4-0.1,0.6-0.1C322.1,63.2,317.8,52.1,313.6,40.9
	 M339,176.2c0.1,0,0.2,0,0.3,0c0.2,10.7,0.5,21.5,0.8,32.2c0.1,2.5,0.8,3.1,3.4,3.1c1.2,0,2.4-0.1,3.6,0c2.7,0.1,5.4,0.5,8.1,0.4
	c9.3-0.1,18.6-0.3,27.9-0.5c1.2,0,2.1-0.6,2.7-1.6c1.2-2.3,2.7-4.6,1.7-7.4c-0.1-0.2-0.1-0.4-0.1-0.7c-0.6-8.8-1.3-17.6-1.9-26.4
	c0-0.2,0-0.5-0.1-0.7c-0.3-2.1-1.1-2.9-3.3-3c-4.5-0.1-9-0.4-13.5-0.2c-2.5,0.1-4.2-0.7-5.6-2.7c-0.7-1-1.1-2-1-3.2
	c0.1-1.7,0.3-3.4,0.3-5.1c-0.1-8.3-0.2-16.5-0.3-24.8c0-5.1,0.1-10.2,0.1-15.3c0-6.8,0-13.5,0.1-20.3c0-2.2,0-4.4,0.2-6.6
	c0.2-2.5-0.4-3.3-3-3.2c-4.5,0.2-8.9,0.3-13.4,0.6c-0.8,0.1-1.9,0.7-2.4,1.4c-1.7,2.1-3.1,4.4-4.8,6.4c-1,1.2-1.4,2.4-1.4,3.8
	c0.2,14.3,0.5,28.6,0.7,42.9c0.1,5.9,0.1,11.7,0.2,17.6C338.5,167.3,338.8,171.8,339,176.2 M415.3,190.7c-0.2-0.5-0.3-0.7-0.4-0.9
	c-1.2-2.1-2.5-4.3-3.7-6.4c-1.9-3.2-3.8-6.3-5.8-9.5c-1.3-2.2-3-3.4-5.7-3.1c-1.7,0.2-2.7-0.9-2.9-2.6c-0.2-1.1-0.3-2.2-0.3-3.4
	c-0.2-4.7-0.5-9.4-0.7-14.1c0-0.5-0.1-1.1-0.3-1.6c-1.6-3.3-3.3-6.6-5-9.9c-4.9-9.3-9.9-18.6-13.4-28.5c-0.1-0.3-0.3-0.5-0.5-0.9
	c-0.6,2.8-1.1,5.3-1.6,7.9c-0.1,0.3,0.4,0.9,0.7,1c1.2,0.5,2.4,0.9,3.6,1.3c1.3,0.4,1.8,1.2,1.7,2.4c0,0.7-0.2,1.3-0.3,2
	c-1.2,4.7-2.1,9.6-3.7,14.1c-1.1,3.2-0.3,5.8,1,8.6c0.1,0.2,0.2,0.4,0.3,0.6c3,6.7,6.1,13.5,9.1,20.2c0.1,0.3,0.4,0.7,0.7,0.8
	c1.2,0.5,1.3,1.4,1.4,2.5c0.1,1.5,0.2,3.1,0.7,4.5c1.7,4.6,3.6,9.1,5.4,13.7c0.3,0.7,0.6,1,1.3,1c3.5,0,7,0,10.5,0.1
	C409.9,190.5,412.4,190.6,415.3,190.7 M421.8,27.4c-0.1,0-0.1,0.1-0.2,0.2c9.8,15.8,19.7,31.7,29.6,47.6c1.8-0.5,3.7-1.1,5.6-1.7
	c1.6-0.5,2.6,0.2,2.8,1.9c0,0.4,0.1,0.8,0.1,1.2c-0.1,0.8,0.4,1.1,1.1,1.1c1.1-0.1,2.3-0.1,3.4,0c1.5,0.1,2.3,0.8,2.4,2.4
	c0,0.6-0.1,1.3-0.2,1.9c-0.4,3.3-0.8,6.6-1.2,9.9c-0.2,1.4-0.4,2.7-0.7,4.3c0.3,0.1,0.9,0.3,1.5,0.2c3.7-0.2,7.5-0.5,11.2-0.8
	c1-0.1,2-0.1,3.2-0.1c-0.2-0.3-0.3-0.6-0.4-0.8c-3.7-5.8-7.3-11.7-11.1-17.5c-9.7-14.7-19.5-29.3-28.4-44.5
	c-0.9-1.6-2.1-2.5-3.7-3.2c-0.6-0.2-1.3-0.5-1.9-0.8c-2.5-1-2.5-1-4.3,1c-1.2,1.3-1.8,1.4-3.4,0.5C425.3,29.4,423.6,28.4,421.8,27.4
	 M65.3,165.8c0.4,1.1,0.6,2.1,1,3c1.1,2.7,2.3,5.4,3.5,8.1c2.8,6.5,5.6,13.1,8.4,19.6c1.9,4.4,3.8,8.9,5.7,13.3
	c0.5,1.2,0.9,2.5,1.3,3.8c1.4-2.5,2.9-5.2,4.3-7.9c2.2-4.2,4.2-8.5,6.3-12.7c1.1-2.1,2.5-4.1,3.5-6.3c2-4.5,3.7-9,5.5-13.5
	c0.2-0.6,0.4-1.3,0.4-2c0.1-5.2,0.1-10.5,0.1-15.7c0-0.6-0.1-1.1-0.2-1.7c-0.1,0-0.2,0-0.4,0c-0.8,2.1-1.6,4.1-2.4,6.2
	c-0.6,1.6-1.5,3.1-3.3,3.5c-1.2,0.3-1.5,0.9-1.7,1.9c-0.4,1.9-0.8,3.7-1.2,5.5c-0.3,1.5-1.2,2.1-2.7,2.1c-0.7,0-1.5,0.1-2.2,0.2
	c0.3,3.8,0.6,7.4,0.9,11c0.1,1.5-0.3,2.6-1.7,3.4c-2.1,1.1-4.1,2.3-6.1,3.6c-0.7,0.4-1,0.3-1.4-0.3c-1-1.7-2-3.4-3-5.1
	c-1.3-2.3-1.7-2.4-3.7-0.9c-1,0.7-2.1,0.7-2.5,0c-0.5-0.8-0.1-1.5,1.1-2.2c2.9-1.6,5.7-3.2,8.6-4.9c0.4-0.3,0.9-1,0.9-1.5
	c0-2.1-0.1-4.2-0.3-6.3c-0.2-1.7-0.5-3.3-0.8-5.1C77.5,165.2,71.5,165.5,65.3,165.8 M360.3,88c-0.7-1.7-1.3-3.1-2-4.6
	c-5.2-11.9-10.3-23.8-15.5-35.7c-0.2-0.5-0.6-1-1-1.2c-3.1-1.1-6.3-2.1-9.5-3.1c-1.6-0.5-2-1-1.9-2.6c0.1-1.9,0.2-3.9,0.4-5.8
	c0.1-0.9-0.3-1.4-1-1.9c-2.3-1.3-4.6-2.7-6.9-4c-1-0.6-2-1.1-3.4-1.8c0.3,0.8,0.4,1.2,0.5,1.6c1.4,3.5,2.7,7.1,4.2,10.6
	c6.8,15.9,13.6,31.8,20.3,47.7c0.4,0.8,0.9,1,1.7,1c3.9-0.1,7.8-0.1,11.8-0.1C358.7,88,359.4,88,360.3,88 M211,42.8
	c-2.5,0.7-4.4-0.5-6.3-1.5c-1.2-0.6-1.7-0.5-2.4,0.7c-3.8,6.3-7.8,12.6-10.9,19.3c-0.2,0.5-0.7,0.9-1,1.4c-0.5,0.6-1.1,1-1.5,1.6
	c-3.6,6-7.1,11.9-10.6,17.9c-0.2,0.4-0.3,1-0.3,1.5c-0.1,3.2,0,6.4-0.1,9.6c-0.2,8.1-0.3,16.1-0.5,24.2c0,0.2,0.1,0.4,0.2,0.9
	c1.1-2.8,2-5.4,3.2-7.8c4.8-9.4,8.6-19.3,12.4-29.1c4.3-11.1,9.4-21.9,14.8-32.4C209,47.1,210,45,211,42.8 M330.8,90.2
	c-0.1,0-0.2,0-0.3,0.1c0,0.2-0.1,0.3-0.1,0.5c-0.1,4.8-0.3,9.5-0.4,14.3c-0.2,9.6-0.3,19.1-0.5,28.7c-0.1,2.5-0.6,4.8-3,6.4
	c-2.3,1.6-4.4,3.5-6.5,5.3c-1.5,1.2-1.4,1.3-0.2,2.9c3.8,4.7,7.6,9.4,11.3,14.2c0.6,0.8,1,1.8,1,2.8c0.1,2.8,0,5.7,0,8.5
	c-0.1,4.4-0.2,8.8-0.3,13.2c-0.1,2-0.4,3.9,0.5,5.9c1.3,2.6,2.1,5.4,3.2,8.2c0.3,0.9,0.7,1.7,1.1,2.5c0.3-0.5,0.4-0.9,0.4-1.4
	c0-6.4,0.2-12.7-0.1-19.1c-0.4-8.6-1.3-17.1-1.6-25.7c-0.4-16.2-1-32.4-0.2-48.6c0.2-3.7,1.3-7.6-1-11.3
	C332.5,95.5,331.8,92.7,330.8,90.2 M455.7,222.6c-0.2-27.4,1.1-54.8-0.6-82.4c-2,0.8-3.7,1.5-5.6,2.3c0.1,2.6,0.2,5.3,0.1,8.1
	c0,0.8-0.3,1.9-0.8,2.4c-1.6,1.7-3.4,3.2-5.1,4.8c-1.1,1-1.4,3.6-0.5,4.8c1.6,2,3.3,3.9,4.8,5.9c0.6,0.8,1.1,1.9,1.2,2.9
	c0.4,4.9,0.7,9.9,0.9,14.9c0.2,6.3,0.2,12.6,0.4,18.9c0,0.9,0.1,1.9,0.3,2.8c1,3.2,2,6.4,3.1,9.6
	C454.4,219.2,455.1,220.9,455.7,222.6 M455.7,107.1c1.3-3,2.6-5.7,3.8-8.4c0.4-1,0.3-1.9-0.4-2.9c-1.7-2.3-3.2-4.7-4.7-7.1
	c-8.6-14.2-17.1-28.3-25.7-42.5c-4-6.6-8.2-13.1-12.3-19.6c-0.2-0.3-0.7-0.7-1-0.6c-1.4,0.4-2.8,1-4.2,1.5c0.3,0.6,0.5,1,0.7,1.3
	c3.2,5.5,6.4,11,9.8,16.4c9.2,14.8,18.3,29.5,26.7,44.7c0.6,1.2,1.2,2.5,1.2,3.8c-0.1,2.2,0.7,4,1.9,5.8
	C452.8,101.8,454.2,104.3,455.7,107.1 M540.8,99.8c-0.5-0.7-0.8-1.1-1.2-1.5c-1.2-1.6-2.5-3.2-3.5-5c-3-5.2-5.9-10.4-9-15.6
	c-1.4-2.5-3-4.8-4.5-7.3c-3.3-5.4-6.6-10.9-9.9-16.3c-0.2-0.3-0.4-0.5-0.8-0.9c-0.4,3-0.8,5.8-1.2,8.6c-0.1,0.9,0.4,0.9,1,1
	c3.3,0.4,4.3,0.2,3.5,4.9c0,0.2-0.1,0.4-0.1,0.7c-0.6,3.8-1.2,7.7-1.9,11.5c-0.2,1.5,0.1,2.9,1,4.2c3.4,5,6.8,10,10.2,15
	c0.3,0.5,1.1,0.9,1.6,0.9c3.5,0.1,6.9,0,10.4,0C537.9,99.8,539.2,99.8,540.8,99.8 M365.5,113.5c-0.1,0-0.2,0-0.3,0
	c0,1.8,0.1,3.7,0.1,5.5c0,0.4,0.1,0.9,0.3,1.3c1.2,2.2,2.5,4.3,3.7,6.4c0.5,0.9,1,1.1,1.9,0.7c2.1-0.9,4.2-1.8,6.1-2.8
	c0.5-0.3,0.7-1.2,0.8-1.8c0-0.2-0.6-0.7-1-0.8c-1.2-0.5-2.5-0.9-3.7-1.4c-1.2-0.5-1.6-1.4-1.3-2.7c0.8-3.9,1.6-7.8,2.1-11.7
	c0.2-1.3-0.1-2.9-0.6-4.2c-2.6-6.3-5.4-12.5-8.1-18.8c-2.1-4.8-3.9-9.8-6.2-14.6c-3.2-6.6-6.3-13.2-9-19.9
	c-3.6-8.9-8.3-17.2-11.1-26.4c-0.7-2.2-0.5-1.9-2.6-1.2c-0.9,0.3-1.1,0.7-0.7,1.6c1.8,4.1,3.6,8.3,5.4,12.4
	c3.8,8.5,7.8,17,11.5,25.5c3.4,7.8,6.5,15.8,10,23.6c1.4,3.3,2.1,6.5,2.2,10C365.2,100.7,365.4,107.1,365.5,113.5 M436.5,18.4
	c7.9,13.8,16.1,27.3,25.1,40.8c0.1-1,0.2-1.7,0.3-2.3c0.1-1.7,0.1-3.3,0.4-5c0.4-2.5,0.9-4.9,1.4-7.4c0.2-0.8-0.1-1.2-0.9-1.3
	c-1-0.1-2-0.3-3-0.4c-2.7-0.3-3-0.6-2.7-3.3c0.5-4.9,1-9.8,1.4-14.7c0-0.5,0-1.2-0.3-1.5c-3-2.8-5.4-6.3-8.7-8.9
	c-1.2-0.9-2.1-1.5-3.4-0.4c-0.2,0.1-0.4,0.2-0.6,0.3C442.6,15.7,439.6,17,436.5,18.4 M280.9,16.3c-0.3,0.6-0.5,0.9-0.7,1.3
	c-2.1,4.2-4.1,8.6-6.3,12.7c-9.8,18.6-17.9,37.9-26.5,57.1c-0.2,0.4-0.3,1-0.1,1.2c1.2,1.5,2.5,2.9,4,4.5c0.7-1.9,1.3-3.5,2-5.1
	c1.9-4.5,3.9-9,5.9-13.4c0.8-1.9,1.5-3.9,2.5-5.7c5-10.1,10.1-20.1,15.1-30.2c2.9-5.9,5.7-11.8,8.5-17.7c0.2-0.5,0.8-1.1-0.1-1.6
	C283.8,18.3,282.4,17.3,280.9,16.3 M253.6,187.9c0.1,0,0.2,0.1,0.2,0.1c1.2-2.1,2.4-4.2,3.5-6.4c0.2-0.4,0.2-0.9,0.3-1.3
	c0.1-6.3,0.4-12.6,0.2-18.9c-0.1-3.2,0.9-5.3,3.4-7.1c1.9-1.4,3.7-3,5.5-4.5c0.7-0.6,0.7-1.1,0.1-1.8c-2.1-2.8-4.1-5.6-6.3-8.3
	c-1.9-2.3-2.8-4.8-2.8-7.8c0-5.1-0.1-10.3-0.1-15.4c0-8.9,0-17.9,0-26.8c0-0.5,0-0.9,0-1.4c-0.1,0-0.2,0-0.3,0
	c-0.7,1.8-1.5,3.6-2.1,5.5c-0.7,1.9-1.3,3.8-1.3,6c0.1,12.4,0.1,24.9,0,37.3c-0.1,13.9-0.4,27.8-0.5,41.7
	C253.4,181.7,253.6,184.8,253.6,187.9 M136.2,201.3c0.1,0,0.3,0,0.4,0.1c0.2-0.2,0.5-0.5,0.7-0.7c4-6.2,8.1-12.4,12.1-18.6
	c0.2-0.3,0.3-0.8,0.3-1.3c-0.2-4.6-0.4-9.3-0.6-13.9c-0.1-1.5-2-3.1-3.4-3c-2,0.1-4,0.2-5.9,0.2c-2.4,0.1-2.5,0.1-2.6,2.5
	c-0.4,8.4-0.8,16.8-1.1,25.3C135.9,195.1,136.1,198.2,136.2,201.3 M225.8,35c-2.4,1.1-4.4,2.2-6.5,3c-2.5,1-3.4,3.1-4.4,5.3
	c-1.2,2.9-2.7,5.6-4,8.4c-3.4,7-7,14-10.1,21.1c-3.1,6.9-5.7,13.9-8.5,20.9c-0.5,1.3-1,2.7-1.5,4c0.2,0.1,0.3,0.2,0.5,0.3
	c2.8-3.2,5.7-6.5,8.5-9.7c0.2-0.3,0.3-0.6,0.4-1c0.3-1,0.4-2,0.8-2.9c2.4-4.9,4.8-9.9,7.3-14.8c4.9-9.6,9.9-19.2,14.8-28.8
	C223.9,39.1,224.7,37.2,225.8,35 M383.3,168c-3.1-6.6-6.3-13-9.1-19.6c-2.8-6.6-5-13.4-8.4-20.1c-0.1,0.5-0.2,0.7-0.2,0.8
	c0.2,11.7,0.3,23.3,0.5,35c0,1.5,0.3,2.9,0.4,4.2C372.2,168.2,377.5,168.1,383.3,168 M259.7,50.2c0.3-0.5,0.4-0.8,0.6-1.1
	c2.5-5.1,5-10.1,7.5-15.2c3.1-6.3,6.2-12.5,9.3-18.8c0.4-0.8,0.4-1.3-0.5-1.7c-1.3-0.6-2.6-1.5-4-2c-0.7-0.3-1.7-0.2-2.4,0.1
	c-2.2,1.1-4.4,2.3-6.6,3.5c-0.7,0.4-1,0.8-0.9,1.6c0.4,3.4,0.6,6.7,1.2,10.1c0.4,2.2,0,4-1.5,5.6c-2,2-3.9,4-5.7,6.1
	c-0.3,0.4-0.7,1.1-0.5,1.5C257.2,43.3,258.4,46.6,259.7,50.2 M510.7,77.9c0.1,0,0.2,0,0.3,0c0.1-0.3,0.2-0.7,0.2-1
	c0.5-2.9,1-5.8,1.5-8.7c0.5-2.8,0.5-2.8-2.3-3.2c-2.1-0.3-2.5-0.8-2.2-2.8c0.4-2.6,0.8-5.3,1.1-7.9c0.5-3.6,0.4-3.5-2.7-5.3
	c-1.4-0.8-2.6-2.1-4-2.5c-3.2-0.9-6.1-2.5-8.7-4.5c-1.6-1.2-2.9-1.2-4.7-0.2C496.5,53.9,503.6,65.9,510.7,77.9 M444.6,91.2
	c-5.4-9.5-10.4-18.9-16.4-28c-0.3,1.3-0.7,2.3-0.7,3.2c-0.1,2.3-0.2,4.6-0.1,6.9c0,1.5-0.5,2.3-1.9,2.9c-2.8,1.1-2.5,0.7-1.7,3.4
	c1,3.5,2.1,6.9,3,10.4c0.2,0.9,0.6,1.1,1.4,1.1c3.7,0,7.4,0.1,11.1,0.2C440.9,91.3,442.6,91.2,444.6,91.2 M379.4,61.8
	c0.2-0.5,0.2-0.6,0.3-0.8c0.5-5.2,1-10.4,1.4-15.6c0-0.4-0.4-1-0.8-1.1c-1.5-0.7-3-1.2-4.5-1.7c-1.9-0.7-2.1-1.1-1.8-3
	c0.5-3.2,1-6.4,1.6-9.6c0.2-1,0-1.6-0.9-2.2c-4-2.5-7.9-5.1-11.8-7.7c-1-0.6-1.8-1.4-2.7-2.1C365.7,32.9,372.2,47.3,379.4,61.8
	 M313.3,29.1c0.2,0.6,0.4,1.1,0.6,1.7c0.7,1.9,1.4,3.9,2.2,5.8c5,12.8,10,25.5,14.9,38.3c0.2,0.6,0.3,1.4,0.1,2.1
	c-0.6,2-1.3,3.9,0.7,5.5c0.3,0.3,0.4,0.9,0.6,1.3c0.2,0.5,0.3,1.1,0.6,1.7c1.1,2.8,2.3,5.6,3.5,8.4c0.2,0.5,0.5,1,0.8,1.7
	c1.1-1.6,2-3.1,3.2-4.4c0.8-1,0.9-1.8,0.4-2.9c-1.6-3.7-3.2-7.4-4.8-11.2c-6.6-15.7-13.2-31.4-19.8-47.1
	C315.4,28,315.4,27.9,313.3,29.1 M189.9,100.4c-1.5,3.2-3.1,6.1-4.4,9.1c-2.2,5.1-4.3,10.2-6.4,15.3c-1,2.4-2.2,4.7-1.1,7.4
	c0.4,0.9,0.2,2.5,1.9,2.3c1.6-0.2,2.6,0.6,3.2,2c0.5,1.1,1,2.2,1.7,3.5c0.4-0.9,0.7-1.5,1-2.2c1.1-3.2,1.9-6.6,3.4-9.7
	c1.3-2.8,1-5.5,1-8.3c0-5.5-0.1-11-0.2-16.5C189.9,102.5,189.9,101.6,189.9,100.4 M507.3,207c0.4-1.8,0.7-3.3,1-4.7
	c0.3-1.3,1-2.2,2.3-2.6c1.3-0.4,2.5-1,3.8-1.5c0.8-0.3,1.3-0.8,1.3-1.8c0.2-5,0.5-10,0.7-15c0-0.6,0-1.2,0-1.8
	c-0.1,0-0.2-0.1-0.3-0.1c-1.1,1.9-2.4,3.8-3.2,5.8c-1.3,3-3.6,4.1-6.6,4.1c-2.1,0-4.2,0-6.4,0c-1.3,0-2.5,0.2-4,0.3
	C498.9,196.1,503.3,201.2,507.3,207 M115,46.4c-1.4,0.2-2.6,0.4-3.7,0.5c-2.1,0.1-2.7-0.4-2.8-2.5c0-0.7,0-1.5-0.2-2.2
	c-0.1-0.3-0.6-0.8-0.9-0.7c-2,0.4-4,0.9-5.9,1.4c-0.5,0.1-1,0.7-1.2,1.2c-0.7,1.6-1.3,3.2-1.8,4.8c-1.1,3.4-1.1,3.5,2.4,4.4
	c1.2,0.3,1.8,1,1.8,2.2c0,0.8,0,1.5-0.1,2.3c-0.5,3.5-1,7.1-1.5,10.6c-0.3,1.7-0.5,3.4-0.8,5.2c0.1,0,0.2,0.1,0.3,0.1
	C105.3,64.6,110.1,55.6,115,46.4 M175.3,132.6c-3.3,1.1-9,5.6-10.8,8.3c-0.5,0.8-0.4,1.2,0.5,1.6c1.3,0.6,2.6,1.3,3.8,2.1
	c3,2.1,6,4.3,9,6.5c0.6,0.5,1.3,0.9,2.2,1.5c1.2-3.2,2.3-6.2,3.4-9.2c0.1-0.2,0.1-0.5,0-0.8c-0.6-1.4-1.3-2.7-1.9-4
	c-0.5-1.1-1.1-1.8-2.5-1.6c-1.2,0.2-2-0.4-2.5-1.6C176.1,134.4,175.7,133.6,175.3,132.6 M182.9,187.3c0.2-0.8,0.4-1.3,0.5-1.8
	c1.3-5.4,2.6-10.9,4-16.2c1.2-4.5,2.7-9,2-13.8c0-0.1,0-0.3,0-0.4c0.2-5.3,0.4-10.6,0.7-15.9c0-0.3-0.1-0.6-0.1-0.9
	c-1.5,2.9-2.7,5.9-3.9,8.8c-1.2,2.9-2.4,5.7-3.6,8.6c-0.2,0.4-0.3,0.9-0.3,1.3c0,2,0.1,4,0.1,5.9c0.1,5.5,0.3,11,0.4,16.5
	C182.8,181.9,182.8,184.5,182.9,187.3 M449.2,140c1.8-0.8,3.3-1.5,4.8-2.1c0.7-0.3,1-0.7,1-1.5c0-1.8,0.1-3.7,0.1-5.5
	c0-6.1,0.1-12.2,0.1-18.4c0-0.4-0.2-1.1-0.4-1.2c-2-0.5-2.5-2.3-3.3-3.8c-0.4-0.8-0.8-1.5-1.3-2.2c-0.2,0-0.3,0.1-0.5,0.1
	C448.7,116.8,449.5,128.2,449.2,140 M407.2,123.9c-0.1,0.1-0.2,0.3-0.3,0.4c3.8,6.1,7.5,12.3,11.4,18.5c1.1-1.3,2.1-2.5,2.9-3.7
	c0.3-0.4,0.4-0.9,0.4-1.4c-0.1-2.7-0.4-5.4-0.3-8.1c0-2-0.5-3.4-2.3-4.5c-0.9-0.5-1.7-0.9-2.7-0.8c-1.5,0.1-3.1,0-4.6-0.1
	C410.2,124.2,408.7,124,407.2,123.9 M162.4,41c1.6,4.6,3,9,4.6,13.3c0.1,0.3,0.8,0.6,1.1,0.6c0.9-0.1,1.9-0.4,2.8-0.5
	c1.2-0.1,1.7-0.6,2-1.7c1.1-3.7,2.4-7.4,3.5-11.1c0.2-0.5,0.3-1,0.5-1.7C172,40.3,167.3,40.6,162.4,41 M419.4,190c0.2,0,0.5,0,0.7,0
	c0.6-1.3,1.6-2.6,1.7-3.9c0.2-2.7,0-5.5-0.1-8.2c0-0.4,0-0.9-0.2-1.2c-1.8-2.1-3.5-4.4-6.6-4.7c-2-0.2-4.1-0.5-6.3-0.7
	C412.3,177.7,415.9,183.8,419.4,190 M515.4,200.7c-0.2,0-0.3-0.1-0.4-0.1c-0.9,0.3-1.8,0.8-2.8,1c-1.2,0.3-1.7,1-1.8,2.2
	c0,0.4-0.1,0.9-0.2,1.3c-1.2,3.4-0.6,6.6,1.3,9.6c1.3,2.1,2.3,4.4,3.5,6.6c0.1,0,0.2,0,0.3-0.1C515.3,214.4,515.3,207.6,515.4,200.7
	 M267.6,65.4c4.3-0.6,6.8,1.5,8.5,5.1c1.3-1.1,2.3-2.1,3.1-2.8c-0.4-1.3-0.7-2.2-1-3.2c-0.2-0.7-0.2-1.3-0.2-2
	c0-0.9-0.4-1.3-1.3-1.4c-2-0.2-4.1-0.6-6.3-0.9C269.6,61.7,268.8,63.4,267.6,65.4 M95.3,164.4c-3.5,0.1-6.7,0.2-9.9,0.2
	c0.4,2,0.7,3.9,1.2,5.7c0.1,0.4,0.7,0.9,1,0.9c1.8-0.1,3.6-0.2,5.4-0.5c0.4,0,0.9-0.4,1-0.7C94.5,168.2,94.9,166.3,95.3,164.4"/>
<path fill-rule="evenodd" clip-rule="evenodd" fill="#FFFFFF" d="M546.8,145.7c0,1.2,0.1,2.1,0.1,2.9c-0.1,2.7-0.2,5.3-0.2,8
	c-0.2,7.4-0.4,14.9-0.4,22.3c0,7.8-0.4,15.7,0.3,23.5c0.6,6.6,0.2,13.3,0.1,20c0,0.3-0.5,1-0.8,1c-3.3,0.1-6.7,0.2-9.9,0.3
	c-0.5-1.2-1-2.2-1.5-3.4c0.7-0.3,1.4-0.5,2-0.8c0.6-0.2,1.2-0.5,1.7-0.8c0.8-0.4,1.1-1.1,0.8-1.9c-0.4-0.9-1.2-1-2-0.7
	c-1.1,0.4-2.2,0.9-3.3,1.2c-0.4,0.1-1-0.2-1.3-0.5c-1-1.5-2.1-3-2.9-4.6c-0.8-1.6-2-2.2-3.7-2.1c-1.9,0.1-1.9,0-1.9-1.9
	c0.1-10.3,0.3-20.7,0.4-31c0-3.6-0.2-7.3-0.3-10.9c0-1-0.5-1.7-1.6-1.8c-2.1-0.2-4.2-0.4-6.3-0.5c-1.1-0.1-1.9,0.4-2.5,1.3
	c-1.9,3.2-3.8,6.4-5.7,9.7c-0.8,1.4-1.5,3-2.4,4.4c-0.3,0.4-1,0.9-1.5,0.9c-1.8,0.1-3.5,0.1-5.3,0c-0.6,0-1.4-0.5-1.6-1
	c-2.1-4.2-4.2-8.4-6.2-12.6c-0.9-1.8-1.4-1.9-3.3-1.6c-1.5,0.2-3.1,0.2-4.6,0.2c-2.5,0-3.2,0.7-3.1,3.3c0.3,7.7,0.7,15.4,1,23.1
	c0.1,1.3,0.1,2.7,0.1,4c-0.2,0-0.3,0.1-0.5,0.1c-0.3-0.5-0.7-1.1-1-1.6c-2.1-2.9-4.1-5.8-6.2-8.6c-0.9-1.2-2.2-1.7-3.7-1.1
	c-0.9,0.3-1.5,0.2-2-0.8c-0.8-1.5-1.7-2.9-2.7-4.2c-0.9-1.1-1.1-2.2-1.1-3.5c0-6.7-0.2-13.3-0.2-20c-0.1-6.5,0-13.1-0.1-19.6
	c-0.1-8-0.1-16.1-0.3-24.1c0-2.2,0.6-3.9,1.7-5.8c1.3-2.2,2.9-2.9,5.4-2.8c3,0.2,6,0,9.1,0c0.4,0,0.8,0.3,1,0.6
	c1.2,1.4,2.4,2.9,3.6,4.4c0.5,0.6,1,1.2,1.5,1.9c3.2,4.5,6.3,9,9.5,13.5c1.7,2.4,3.6,4.6,5.5,6.9c2.5,3,3.8,2,6-0.1
	c1.8-1.7,3.3-3.7,5-5.5c0.3-0.3,0.5-0.7,0.9-1.3c2.2,2.3,4.1,4.3,6,6.4c1.2,1.3,2.1,2.8,3.1,4.2c1,1.4,1.7,1.8,3.3,1.3
	c1.2-0.4,2.4-0.9,3.6-1.6c0.8-0.4,1.2-0.4,1.6,0.4c2.8,4,5.6,8,8.3,12c1.4,2.1,2.3,2.4,4.5,1.1C544.1,147.3,545.3,146.6,546.8,145.7
	"/>
<path fill-rule="evenodd" clip-rule="evenodd" fill="#FFFFFF" d="M532.7,133.2c-0.4-0.6-0.8-1.1-1.2-1.6c-1.1-1.4-2-1.5-3.5-0.6
	c-1,0.6-2,1.2-3.1,1.7c-0.3,0.1-1,0-1.2-0.3c-3-3.3-6-6.7-8.9-10.1c-0.1-0.1-0.1-0.2-0.3-0.6c1.8-1.8,3.6-3.7,5.4-5.5
	c2.4-2.4,4.9-4.8,7.3-7.3c1.1-1.2,2.3-1.7,3.9-1.6c3.3,0.1,6.7,0.1,10,0.2c0.4,0,1,0.3,1.3,0.7c1.4,2.2,2.7,4.4,4,6.6
	c0.3,0.5,0.5,1.2,0.5,1.8c0,2.3-0.1,4.5-0.1,6.8c0,5.2-0.1,10.4,0.1,15.5c0.1,2.3-0.8,3.6-2.7,4.6c-0.2,0.1-0.4,0.2-0.6,0.3
	c-2.5,1.6-2.5,1.6-4.1-1c-1.3-2-2.6-4-4-6c-0.5-0.7-0.5-1.2,0.1-1.7c1-1,2-2.1,3.1-3c1.6-1.3,2-2.9,1.4-4.8c-1-3.1-2-6.2-3-9.2
	c-0.3-0.9-0.9-1.4-1.8-1.2c-0.9,0.2-1.4,0.9-1.2,1.8c0.2,1.2,0.5,2.4,0.8,3.5c0.6,1.9,1.3,3.8,2,5.6c0.3,0.9,0.2,1.5-0.6,2.1
	C535.1,130.8,534,132,532.7,133.2"/>
<path fill-rule="evenodd" clip-rule="evenodd" fill="#FFFFFF" d="M464.2,184.6c0.3,0.4,0.5,0.9,0.8,1.3c1.2,2.1,2,2.6,4.3,2.1
	c1.1-0.2,1.8,0,2.4,0.9c1.8,2.6,3.5,5.1,5.3,7.7c0.5,0.8,0.9,1.7,1.5,2.4c1.9,2.3,2.5,4.9,2.6,7.9c0.1,6.2,0.4,12.4,0.6,18.5
	c0,0.7,0,1.2-0.9,1.2c-4.7,0-9.5,0.1-14.2,0c-1.9,0-1.9-0.1-1.9-2c0-7.4,0.1-14.9,0-22.3c-0.1-5.5-0.4-11-0.6-16.5
	c0-0.4,0-0.8,0-1.1C464,184.7,464.1,184.7,464.2,184.6"/>
<path fill-rule="evenodd" clip-rule="evenodd" fill="#FFFFFF" d="M532.7,223.9c-2.8,0.1-5.3,0.1-7.8,0.2c-0.3,0-0.8-0.4-0.8-0.6
	c-0.1-3.4-0.2-6.7-0.3-10c2.5-0.5,2.6-0.5,3.8,1.4c1.6,2.6,3.2,5.3,4.7,8C532.5,223.1,532.5,223.4,532.7,223.9"/>
<path fill-rule="evenodd" clip-rule="evenodd" fill="#FFFFFF" d="M323.6,82.6c0,4.2,0.1,8.4,0,12.6c-0.5,12.5-1.9,24.9-1.5,37.4
	c0,0.5-0.3,1.2-0.7,1.6c-0.8,0.8-1.8,1.5-2.9,2.3c-1.1-1.1-2.1-2.2-3.1-3.4c-1.4-1.6-2.1-1.8-4-1c-1.1,0.4-1.8,0.3-2.5-0.6
	c-0.7-1-1.6-1.8-2.5-2.7c-0.1-0.1-0.1-0.2-0.1-0.3c0.1-0.2,0.2-0.4,0.3-0.5c2.5-2.2,2.6-5.1,2.6-8.1c0-4.9-0.1-9.7-0.2-14.6
	c0-1.7-0.8-2.4-2.7-2.4c-3.1,0-6.2,0.2-9.3,0.2c-4.7,0.1-9.5,0.2-14.2,0.3c-1.7,0-3.4,0-4.5,1.6c-0.4,0.7-0.9,1.4-0.9,2.2
	c-0.1,4.6-0.2,9.1-0.1,13.7c0,1,0.6,2.2,1.2,3.1c3.8,5.4,8.4,10.1,13,14.8c1.5,1.5,2.8,1.5,4.3-0.1c2.1-2.1,4.2-4.2,6.3-6.3
	c0.5-0.5,1-0.9,1.6-1.5c1.1,1.2,2.2,2.3,3.3,3.5c1.6,1.8,2.4,2.1,4.6,1.3c0.9-0.3,1.5-0.2,2.1,0.5c0.7,0.9,1.5,1.7,2.3,2.6
	c-1.5,1.2-3,2.4-4.6,3.4c-2,1.4-2.4,3.9-0.7,6.1c4.2,5.2,8.3,10.5,12.4,15.9c0.5,0.7,0.9,1.8,0.9,2.7c0.5,9.3-0.4,18.5-0.7,27.7
	c-0.3,7.7-0.3,15.3-0.4,23c0,1.2-0.4,1.5-1.5,1.5c-10.7-0.3-21.4-0.6-32.1-0.9c-1.4,0-2.3-0.5-3.1-1.8c-1-1.6-2.2-3-3.2-4.5
	c-0.4-0.5-0.6-1.2-1.1-2c1.7-0.4,3.1-0.7,4.5-1c2.3-0.5,2.7-1,2.5-3.3c-0.2-2.6-0.4-5.1-0.5-7.8c0.7,0,1.2,0,1.7,0
	c5.4,0.2,10.8,0.4,16.2,0.5c2.6,0,3.2-0.7,3.3-3.3c0.3-6.3,0.5-12.5,0.7-18.8c0-0.9-0.4-2-1-2.7c-3.7-4.5-7.5-8.9-11.3-13.3
	c-0.2-0.3-0.5-0.5-0.8-0.8c-1.4-1.3-2.6-1.3-4.1-0.1c-0.8,0.7-1.5,1.4-2.3,2.1c-3.4,3.4-6.9,6.7-10.3,10.2c-0.4,0.4-0.7,1.2-0.8,1.8
	c-0.2,6.8-0.4,13.6-0.6,20.4c-0.1,2.3,1,3.5,3.3,3.6c0.4,0,0.8,0,1.2,0c0.9,0,1.3,0.4,1.4,1.3c0.1,1.9,0.3,3.9,0.4,5.8
	c0.1,0.8-0.2,1.3-1,1.4c-0.6,0.1-1.2,0.4-1.8,0.4c-2.8,0.3-4.5,2-5.8,4.3c-1,1.9-2.3,3.7-3.5,5.5c-0.3,0.4-1,0.8-1.5,0.8
	c-1.4,0.1-2.9-0.1-4.3-0.1c-0.9,0-1.2-0.4-1.2-1.2c-0.1-6.2-0.4-12.4-0.4-18.7c0-7.3,0.3-14.5,0.5-21.8c0.1-4.9,0.3-9.8,0.4-14.7
	c0-0.5,0.3-1,0.7-1.3c3.3-3.1,6.6-6.2,9.8-9.3c1.1-1,1-2.1-0.1-3.3c-3.3-3.6-6.6-7.3-9.9-10.9c-0.5-0.5-0.8-1.3-0.8-2
	c-0.7-16.5-1.3-33.1-2-49.6c-0.1-1.8-0.1-1.9,1.7-1.9c4.5,0,8.9,0,13.4,0c8.6,0,17.2,0,25.9,0.1c5.9,0.1,11.7,0.4,17.6,0.6
	C323.4,82.5,323.5,82.6,323.6,82.6"/>
<path fill-rule="evenodd" clip-rule="evenodd" fill="#FFFFFF" d="M301.8,195.1c-5-0.3-10.1-0.7-15.1-1c-1.1-0.1-2.2-0.1-3.2-0.1
	c-1,0-1.3-0.3-1.3-1.3c0.1-4.7,0.1-9.5,0.1-14.2c0-0.4,0.1-0.8,0-1.2c-0.5-2.6,1-4.3,2.6-5.9c2.7-2.7,5.5-5.3,8.3-7.9
	c2.3-2.1,1.7-1.9,3.5,0.1c0.9,1,1.6,2.1,2.5,3c1.4,1.6,2.9,3.2,4.3,4.8c1.1,1.2,2.2,2.5,3.3,3.7c0.3,0.4,0.4,1,0.4,1.5
	c-0.3,5.7-0.6,11.4-0.8,17.2c0,0.8-0.4,1-1.1,1c-1.1,0-2.3,0-3.4,0.1C301.8,195,301.8,195,301.8,195.1 M294.1,176.8
	c-1.8,4.8-3.6,9.3-5.3,13.9c3.4,0.2,6.5,0.3,10,0.5C297.1,186.3,295.7,181.7,294.1,176.8 M302.1,189.3c0.1,0,0.3-0.1,0.4-0.1
	c-0.1-3.5-0.1-7-0.3-10.5c0-0.8-0.2-1.6-0.7-2.3c-1.3-2-2.8-3.9-4.2-5.8c-0.3-0.4-0.7-0.7-1-1.1c-0.1,0.1-0.3,0.1-0.4,0.2
	C298,176.3,300.1,182.8,302.1,189.3 M285.9,186.4c2.3-5.1,4.6-10.2,5.5-15.7c-1.6,1.4-3,2.8-4.4,4.4c-0.3,0.3-0.4,0.8-0.5,1.2
	c-0.3,2.8-0.5,5.6-0.7,8.4C285.8,185.2,285.9,185.8,285.9,186.4"/>
<path fill-rule="evenodd" clip-rule="evenodd" fill="#FFFFFF" d="M293.2,136.3c-0.7-0.8-1.4-1.5-2-2.3c-3.4-3.9-6.8-7.8-10.1-11.8
	c-0.4-0.5-0.8-1.3-0.8-1.9c0-4.1,0.1-8.1,0-12.2c0-1.2,0.5-1.5,1.6-1.5c3.9,0,7.8,0.1,11.6,0c3.6-0.1,7.1-0.3,10.7-0.5
	c1-0.1,1.4,0.2,1.4,1.3c0,4.6,0.1,9.2,0.2,13.8c0,1.8-0.4,3.2-1.7,4.5C300.5,129.2,297,132.6,293.2,136.3 M294.2,110.8
	c0.1,6,0.3,12,0.4,18.3c2-2.1,3.9-4,5.8-5.9c0.6-0.6,0.6-1.2,0.3-1.9c-1.5-3.2-2.9-6.4-4.3-9.6C296,110.7,295.4,110.4,294.2,110.8
	 M290.1,110.4c-0.3,0.3-0.6,0.4-0.6,0.6c-1,2.9-1.8,5.9-3,8.6c-0.8,1.8-0.8,3.1,0.8,4.5c1.1,1,2,2.3,3,3.4c0.1,0,0.2-0.1,0.3-0.1
	C290.4,121.8,290.3,116.2,290.1,110.4 M301.8,114.2c0.1,0,0.2,0,0.3,0c0-0.7,0.1-1.3,0.1-2c0.1-1.6-0.2-1.7-1.9-1.1
	C300.8,112.2,301.3,113.2,301.8,114.2 M284.8,113.1c0.3-0.8,0.6-1.5,0.9-2.3C284.4,110.6,284.3,110.9,284.8,113.1"/>
<path fill-rule="evenodd" clip-rule="evenodd" fill="#FFFFFF" d="M283.1,217.6c-2.3-0.2-4.3-0.3-6.5-0.5c1-1.6,1.9-3,2.8-4.5
	C280.7,214.3,281.8,215.8,283.1,217.6"/>
<path fill-rule="evenodd" clip-rule="evenodd" fill="#FFFFFF" d="M58.2,51.7c1.2,1.7,2.3,3.4,3.6,5.3c-1.2,0.4-2.3,0.8-3.5,1.2
	c-0.2-2.2-0.4-4.3-0.6-6.4C57.9,51.8,58,51.7,58.2,51.7"/>
<path fill-rule="evenodd" clip-rule="evenodd" fill="#FFFFFF" d="M112,134.2c2.1-0.8,3.8-1.4,5.4-2.1c1.2-0.5,1.7-1.4,1.7-2.6
	c0-1.8,0-3.7-0.1-5.5c0-0.9,0.2-1.5,1.1-1.8c1.6-0.6,2.4-1.7,2.7-3.4c0.2-1.2,0.6-2.3,1-3.5c0.1-0.2,0.3-0.5,0.5-0.5
	c1.7-0.4,3.4-0.7,5.3-1.1c0,1.3,0.1,2.4,0.1,3.6c-0.1,3.1-0.3,6.2-0.5,9.3c-0.1,1.8,0.2,3.3,1.7,4.5c0.8,0.7,1.4,1.7,2.1,2.4
	c1.2,1.2,2.4,1.5,3.8,0.5c4.2-3.2,9.2-5.1,13.8-7.8c1.6-1,3.4-1.7,5.1-2.5c1.3-0.6,1.8-1.5,1.9-2.9c0.1-5.3,0.2-10.6,0.2-15.9
	c0-2.4-1.3-3.9-3.7-4c-6.8-0.2-13.6-0.4-20.4-0.4c-2.4,0-3.6,1.3-3.8,3.7c-0.1,1.8-0.2,3.5-0.1,5.3c0,0.8-0.3,1.2-1.1,1.4
	c-1.3,0.3-2.7,0.5-4,0.9c-1.5,0.5-2.6,0-3.5-1.2c-0.2-0.3-0.5-0.6-0.8-0.9c-1-1.1-1.9-1.2-3.1-0.4c-1.5,0.9-3.1,1.8-4.8,2.8
	c-0.1-2.6-0.2-5-0.1-7.3c0.2-5,0.6-9.9,0.9-14.8c0.1-1,0.3-1.4,1.4-1.4c9.5-0.7,19-0.8,28.5-0.4c8.6,0.4,17.3,0.2,26,0.1
	c1.3,0,1.7,0.2,1.6,1.6c-0.4,8.9-0.7,17.8-1,26.6c-0.1,2.7,0.1,5.3,0.2,8c0,0.9-0.1,1.5-0.9,2.1c-4.1,3.1-8.1,6.3-12.2,9.5
	c-1.4,1-1.9,2.2-1.8,3.9c0.1,2.8,0.1,2.8-2.7,3.5c-3.6,0.9-7.2,1.7-10.8,2.7c-2.4,0.7-2.8,1.3-2.7,3.8c0,1.6,0.2,3.2,0.1,4.7
	c0,0.9-0.4,1.8-0.7,2.7c-0.1,0.2-0.6,0.4-0.9,0.4c-1.2,0.2-2.5,0.3-3.8,0.4c-1.7,0.2-2.4,0.7-2.5,2.5c-0.3,3.7-0.6,7.5-0.6,11.2
	c-0.2,9.9-0.2,19.8-0.2,29.8c0,1.2-0.5,1.4-1.5,1.3c-4.8-0.4-9.5-0.8-14.3-1.1c-0.9-0.1-1.1-0.4-1.1-1.2c0.1-6.4,0.2-12.8,0.1-19.2
	c0-4.2-0.5-8.5-0.6-12.7c-0.2-9.5-0.4-19-0.6-28.5C112.1,137.9,112,136,112,134.2"/>
<path fill-rule="evenodd" clip-rule="evenodd" fill="#FFFFFF" d="M142.8,148.5c0.9-0.2,1.5-0.4,2.2-0.6c3.3-0.8,6.6-1.5,9.9-2.4
	c1.2-0.3,2.1-0.1,3.1,0.6c4.4,3.2,8.9,6.2,13.4,9.3c0.3,0.2,0.5,0.4,0.8,0.5c2.3,0.7,2.8,2.2,2.8,4.6c-0.1,8.9,0.1,17.9,0.2,26.8
	c0,3.6,0,7.1,0,10.7c0,0.3,0,0.5-0.1,0.8c-6,0.4-11.9,0.9-18,1.3c-0.1-3.3-0.1-6.3-0.2-9.3c-0.2-6.7-0.5-13.4-0.7-20.2
	c0-1.7,0-3.4,0.1-5.1c0.1-1.3-0.4-2.2-1.2-3.1c-3.9-4.3-7.8-8.6-11.7-12.9C143.3,149.2,143.1,148.9,142.8,148.5"/>
<path fill-rule="evenodd" clip-rule="evenodd" fill="#FFFFFF" d="M155.1,108.9c-0.2,3.8-0.5,7.6-0.8,11.4c0,0.3-0.5,0.7-0.8,0.9
	c-4.5,2.3-9.1,4.6-13.6,7c-1.3,0.7-2.6,1.6-3.8,2.6c-0.7,0.5-1.2,0.6-1.8-0.2c-0.4-0.6-1.1-1.1-1.5-1.8c-0.4-0.6-0.8-1.4-0.8-2.1
	c0.1-7.3,0.3-14.7,0.5-22c0-1.3,0.8-1.5,1.8-1.5c4.1,0,8.2,0,12.3,0.1c1.4,0,2.9,0,4.3,0c0.6,0,1.2,0,1.7,0.1c1.5,0.1,2.1,0.9,2,2.4
	c-0.1,1,0,2.1,0,3.1C154.9,108.9,155,108.9,155.1,108.9 M139.1,123.2c0.1,0.1,0.2,0.3,0.3,0.4c3.7-1.9,7.4-3.7,11.1-5.7
	c0.3-0.1,0.5-0.7,0.5-1.1c0-2.8,0-5.6,0-8.4c0-2.2-0.1-2.3-2.3-1.9c-0.4,0.1-0.8,0.7-1.1,1.1c-0.3,0.4-0.5,0.9-0.7,1.3
	C144.4,113.6,141.7,118.4,139.1,123.2 M143.7,106.6c-2.3,0.1-4.4,0.1-6.4,0.1c-1,0-1.3,0.5-1.3,1.4c0,3.8,0,7.6-0.1,11.3
	c0,0.3,0.1,0.6,0.2,1.3C138.7,115.9,141.2,111.3,143.7,106.6"/>
<path fill-rule="evenodd" clip-rule="evenodd" fill="#FFFFFF" d="M111.8,131.1c0.1-5.4,0.1-10.4,0.2-15.3c0-0.3,0.3-0.7,0.6-0.9
	c1.6-0.9,3.2-1.6,4.8-2.5c0.7-0.4,1-0.3,1.6,0.2c1.7,1.3,2.3,2.6,1.2,4.8c-0.6,1.1-1.1,2.1-2.2,2.6c-1.5,0.7-2,1.9-1.9,3.5
	c0.1,1.6,0.1,3.2,0.1,4.9c0,0.8-0.2,1.3-1,1.5C114.2,130.3,113.2,130.6,111.8,131.1"/>
<path fill-rule="evenodd" clip-rule="evenodd" fill="#FFFFFF" d="M141.9,157.4c0-1.8-0.1-3.4-0.1-5c0.1-0.1,0.2-0.1,0.4-0.2
	c1.4,1.7,2.7,3.3,4.1,5c0,0.1-0.1,0.2-0.1,0.3C144.7,157.5,143.3,157.5,141.9,157.4"/>
<path fill-rule="evenodd" clip-rule="evenodd" fill="#FFFFFF" d="M47.1,193.1c-1.7-1.6-3.4-3.1-5-4.7c-1.6-1.6-3.3-2.1-5.5-1.5
	c-2,0.6-4.1,0.9-6.2,1.3c-1.6,0.3-1.8,0.1-1.7-1.5c0.1-2.3,0.3-4.6,0.5-6.9c0.7-7.3,1.4-14.6,2-22c0.1-1.1,0.1-2.2,0.1-3.2
	c-0.5-7.8,0.1-15.5,0.5-23.3c0.5-7.9,0.8-15.8,1.1-23.8c0.1-1.4,0.4-2.5,1.3-3.6c2.6-3.5,5.1-7,7.5-10.5c0.6-0.8,1.3-1.1,2.3-1.1
	c8.3,0,16.7-0.1,25-0.2c1.9,0,3.8-0.1,6.1-0.1c-0.7,2.3-1.3,4.5-2.1,6.6c-0.1,0.4-0.7,0.6-1.1,0.9c-1.2,0.7-2.5,1.4-3.8,2.1
	c-1.1,0.7-1.5,1.7-1.5,3c0,3.7,0,3.9-3.7,3.7c-3.6-0.2-6.2,0.9-8,4c-0.2,0.3-0.5,0.7-0.8,0.9c-2.2,1.5-2.6,3.6-2.5,6
	c0.4,7.3,0.7,14.6,1,21.9c0.1,2,1.4,3.6,3.4,4.1c1,0.3,2.1,0.4,3.1,0.4c7.3-0.3,14.5-0.5,21.8-0.9c2.2-0.1,3.5-1.5,3.5-3.5
	c0-5.7,0.1-11.4,0-17c-0.1-3.8-0.3-7.6-0.4-11.4c-0.1-2.9-1.5-4.4-4.4-4.4c-2.7-0.1-5.4,0-8.1,0c-1.9,0-1.8,0-1.9-1.9
	c-0.2-1.8,0.6-2.9,2.2-3.5c0.7-0.3,1.4-0.5,1.9-0.9c0.8-0.6,1.6-1.4,2.2-2.3c0.4-0.7,0.8-1.1,1.7-1.1c0.2,0,0.4,0,0.5,0
	c4.7,0.6,7.3-2.4,9.4-5.9c0.5-0.8,0.9-1.2,1.8-1.1c0.7,0.1,1.4,0,2.2,0c1.2,0,1.9,0.5,1.8,1.9c0,2.9,0,5.8,0.1,8.7
	c0.1,5.4,0.2,10.8,0.4,16.2c0.4,10.9,0.8,21.7,1.2,32.6c0.1,1.6,0.2,3.2,0.3,4.9c0.1,0.8-0.2,1.2-1.2,1.2
	c-8.5,0.3-16.9,0.7-25.4,0.9c-2.1,0.1-4.2-0.1-6.3-0.2c-0.2,0-0.5,0-0.7,0c-4.3,0.2-5.8,2.4-4.2,6.4c2.1,5.3,4.5,10.5,6.8,15.8
	c3.4,7.8,6.7,15.6,10.1,23.3c0.8,1.9,1.8,3.7,2.7,5.6c0.7,1.4,1,2.8,0.6,4.4c-0.4,1.6-0.6,3.2-0.9,4.8c-0.1,0.9-0.5,1.2-1.4,1.2
	c-6,0-12.1,0-18.1,0.1c-1.2,0-1.3-0.9-1.9-1.5c-2.3-2.4-4.6-4.9-7.1-7.2c-2-1.8-2.2-1.7-0.5-3.8c1.3-1.6,2.8-3.2,4.1-4.9
	c1.2-1.5,1.2-2.5-0.1-4c-0.6-0.7-1.1-1.3-1.7-1.9c-0.6-0.6-0.7-1,0-1.6c3.1-2.6,6.2-5.3,9.3-7.8c0.7-0.6,1.2-1.2,0.7-2.1
	c-0.5-0.9-1.4-1.1-2.2-0.5c-2.2,1.7-4.4,3.4-6.6,5.2C49.7,190.5,48.5,191.8,47.1,193.1"/>
<path fill-rule="evenodd" clip-rule="evenodd" fill="#FFFFFF" d="M52,219.3c-8.6-0.2-17.3-0.4-26.1-0.5c0.1-2,0.2-4,0.4-5.9
	c0.7-6.4,1.5-12.9,2.1-19.3c0.1-1.4,0.7-2,2.1-2.3c2.4-0.4,4.8-1.1,7.3-1.5c0.6-0.1,1.5,0,1.9,0.4c3.1,3,6.2,6.2,9.2,9.3
	c0.6,0.6,0.3,1-0.1,1.5c-1.7,2-3.4,4.1-5.1,6.1c-1.3,1.6-1.3,2.5,0.3,3.9c1.4,1.3,3,2.4,4.4,3.7c1.4,1.3,2.6,2.7,3.9,4
	C52.2,219,52.1,219.1,52,219.3"/>
<path fill-rule="evenodd" clip-rule="evenodd" fill="#FFFFFF" d="M81.5,126.9c0,4.6-0.1,9.2-0.1,13.8c0,0.9-0.3,1.2-1.2,1.2
	c-7.2,0.3-14.4,0.6-21.6,0.8c-2.5,0.1-3-0.5-3.1-3.1c-0.3-7-0.6-14-0.9-20.9c-0.1-1.2,0.3-2.1,1.2-2.9c1.1-0.9,1.8-2.2,2.8-3.3
	c0.5-0.5,1.2-1,1.8-1c6.3-0.1,12.5-0.1,18.8-0.1c1.3,0,1.8,0.5,1.8,1.9c0,4.6,0.2,9.1,0.3,13.7C81.4,126.9,81.4,126.9,81.5,126.9
	 M62.9,138.2c0.4,0.1,0.6,0.1,0.7,0.1c4.5-0.3,8.9-0.5,13.4-0.8c1-0.1,1-0.6,1-1.4c-0.2-6.7-0.4-13.3-0.6-20c0-0.4-0.5-0.9-0.9-1
	c-0.7-0.1-1.5-0.5-2,0.5c-1.7,3.3-3.4,6.7-5.1,10C67.3,129.8,65.1,133.9,62.9,138.2 M70.8,114.8c-2.1,0-3.8,0.3-5.5,0.1
	c-2.4-0.3-4,0.8-5.7,2.1c-0.8,0.6-1.1,1.3-1,2.3c0.4,4.4,0.7,8.8,1.1,13.2c0.1,0.8,0.2,1.7,0.4,2.7C63.6,128.5,67,121.9,70.8,114.8"
	/>
<path fill-rule="evenodd" clip-rule="evenodd" fill="#FFFFFF" d="M84.3,91.6c-2.1,3.5-3.4,4.5-7.2,3.9c0.3-1.1,0.5-2.2,0.8-3.2
	c0.1-0.2,0.4-0.5,0.7-0.5C80.5,91.7,82.3,91.7,84.3,91.6"/>
<path fill-rule="evenodd" clip-rule="evenodd" fill="#FFFFFF" d="M246.9,116c-1.2-0.2-2.5-0.4-3.7-0.6c-1.4-0.3-2.5,0.2-3.5,1.3
	c-1.4,1.5-3,2.7-4.5,4.1c-0.6,0.5-1.1,0.5-1.6-0.1c-0.7-0.6-1.5-1.1-2.1-1.7c-1.5-1.6-3.3-2.2-5.4-2.1c-3.4,0.2-6.8,0.3-10.2,0.5
	c-0.1,0-0.2,0-0.3,0c-2,1.5-4.2,3-6,4.7c-0.7,0.7-0.9,2.1-0.9,3.1c0,6,0.3,12.1,0.4,18.1c0.1,6.4,0.1,12.9,0.2,19.3
	c0,1.1,0.3,2.2,0.9,3.1c1.1,1.9,2.4,3.7,3.7,5.5c0.7,1,1.7,1.7,2.7,2.7c-0.2,0.2-0.6,0.5-1.1,0.8c-1.3,0.9-2.7,1.6-4,2.6
	c-0.9,0.6-1.5,0.8-2.3,0c-0.7-0.6-1.5-1.1-2.2-1.5c-1.2-0.7-2.3-0.5-3.3,0.4c-1.9,1.7-3.8,3.3-5.7,5c-0.3,0.3-0.7,0.5-1.3,1
	c0-1.8-0.1-3.2-0.1-4.7c0-1.9,0.1-3.8,0-5.7c-0.1-7.8-0.3-15.6-0.2-23.4c0-5.7,0.7-11.5,0.3-17.2c-0.6-8.5-0.3-17-0.2-25.6
	c0-1.8,0.6-3,2-4.3c1.9-1.7,3.5-3.8,5.1-5.8c0.9-1.2,1.9-1.8,3.4-1.8c7.7-0.1,15.3-0.4,23-0.5c3.8-0.1,7.7,0.2,11.5,0.2
	c1,0,1.7,0.3,2.3,1.1c1,1.4,2.2,2.6,3.2,4c0.3,0.4,0.5,0.9,0.5,1.3c-0.1,5.2-0.2,10.5-0.3,15.7C247.1,115.7,247,115.8,246.9,116"/>
<path fill-rule="evenodd" clip-rule="evenodd" fill="#FFFFFF" d="M214.5,178.9c2.8,1.9,5.4,3.7,8.1,5.4c0.8,0.5,1.3,1.1,1.4,2.1
	c0.3,2.5,0.7,5,1.1,7.5c0,0.2,0.1,0.4,0.1,0.5c0.2,0.9,0.7,1.5,1.7,1.4c1-0.1,1.4-0.9,1.2-1.8c-0.5-3.3-0.9-6.5-1.6-9.7
	c-0.2-1-1.4-1.8-2.3-2.5c-1.8-1.3-3.8-2.5-5.6-3.7c-0.4-0.2-0.7-0.5-1.1-0.9c1.4-1.4,2.7-2.7,4.1-4c0.3-0.2,0.8-0.3,1.2-0.3
	c2.4-0.2,4.8-0.2,7.2-0.5c0.9-0.1,1.9-0.5,2.7-1.1c3.5-2.2,4.7-5.2,4.5-9.5c-0.7-11.7-0.8-23.5-1.3-35.3c-0.1-1.7,0.3-2.9,1.8-3.9
	c1.5-0.9,2.7-2.2,3.9-3.5c0.6-0.7,1.2-0.9,2.1-0.7c3.4,0.6,3.4,0.6,3.5,4.1c0.2,9.3,0.5,18.7,0.6,28c0.1,8.2-0.2,16.3-0.2,24.5
	c0,6.5,0.1,13.1,0.3,19.6c0,1-0.3,1.7-1,2.5c-1.4,1.3-2.7,2.7-3.7,4.3c-1.5,2.4-3.7,3.1-6.4,3c-2.8-0.2-5.7-0.4-8.5-0.5
	c-7.3-0.3-14.7-0.6-22-0.9c-5.1-0.1-4.9-0.2-7.9-4.2c-1.6-2.2-2.4-4.3-1.9-7c0.2-1.1,0.3-2.3,0.1-3.4c-0.2-1.7,0.6-2.8,1.7-3.8
	c2.2-1.8,4.3-3.6,6.4-5.4c0.6-0.5,1.1-0.7,1.9-0.2c4,3.1,3.8,2.8,7.5,0.1C214.3,179,214.5,178.9,214.5,178.9"/>
<path fill-rule="evenodd" clip-rule="evenodd" fill="#FFFFFF" d="M233.1,130.4c0.6,10.9,1.1,21.9,1.7,32.8c0.1,1.6-0.1,2.8-1.7,3.5
	c-0.6,0.3-1.1,0.8-1.6,1.3c-1.4,1.6-3.1,2.1-5.2,2.1c-2.6-0.1-5.2,0-7.8,0.1c-0.9,0-1.7-0.2-2.2-1c-1.2-1.7-2.5-3.4-3.7-5.2
	c-0.3-0.4-0.5-1-0.5-1.5c-0.2-12.3-0.4-24.7-0.5-37c0-0.6,0.6-1.3,1-1.9c0.1-0.2,0.4-0.2,0.5-0.4c2.8-3.3,6.6-3.2,10.4-3.3
	c0.2,0,0.5,0.1,0.7,0c3.3-0.5,5.6,1.3,7.7,3.4c0.4,0.4,0.7,1.2,0.7,1.8c0.1,1.7,0.1,3.5,0.2,5.3
	C232.8,130.4,232.9,130.4,233.1,130.4 M215.8,157.7c0.1,0,0.2,0,0.4,0.1c0.6-1.4,1.1-2.9,1.7-4.3c3.6-8.3,7.3-16.7,10.9-25
	c1.2-2.7-0.3-4.7-3.3-4.6c-1.9,0.1-3.9,0.1-5.8,0.1c-3,0.1-5,2.1-4.9,5c0.2,8.2,0.5,16.3,0.8,24.5
	C215.5,154.8,215.7,156.2,215.8,157.7 M229.6,137.6c-0.3,0.3-0.5,0.4-0.5,0.5c-3.9,7.2-6.9,14.8-9.8,22.4c-0.4,1-0.6,2.2-0.8,3.3
	c-0.2,1.6,0.8,2.6,2.4,2.5c1.4-0.1,2.7-0.3,4-0.2c1.8,0.1,2.9-0.7,3.9-2c0.8-1,1.3-2,1.2-3.3c-0.1-2.3,0-4.6-0.1-6.9
	C229.9,148.5,229.7,143.2,229.6,137.6"/>
<path fill-rule="evenodd" clip-rule="evenodd" fill="#FFFFFF" d="M432.8,202.2c-0.3-0.7-0.6-1.4-0.8-2c-0.6-1.6-1.2-2-2.9-2
	c-2,0-3.3-0.9-3.8-2.8c-0.2-0.5-0.1-1.3,0.1-1.8c0.8-1.4,1.9-2.8,2.7-4.2c0.5-0.8,1-1.8,0.9-2.7c-0.1-4-0.3-8-0.6-12
	c0-0.6-0.4-1.4-0.8-1.8c-2.7-2.5-5.3-5-8.2-7.3c-1-0.8-2.4-1.3-3.7-1.4c-2.8-0.2-5.7-0.1-8.5-0.1c-1.2,0-2.4-0.2-3.6-0.3
	c-0.7,0-1-0.3-1-1.1c0-2.8,0-5.7-0.1-8.5c0-0.9,0.4-1.2,1.2-1.2c3,0,5.9-0.1,8.9-0.2c1.8,0,3.7-0.1,5.5-0.2c1.7-0.1,3.1-0.8,4.1-2.3
	c1.8-2.9,3.8-5.7,5.6-8.6c0.5-0.9,0.8-2,0.8-3.1c-0.2-4-0.8-8-0.8-12c0-2.6-0.7-4.4-2.9-5.6c-0.2-0.1-0.5-0.3-0.6-0.5
	c-1.9-2.7-4.7-3.2-7.8-3.2c-6.1-0.1-12.2-0.6-18.4-0.8c-1.2,0-1.5-0.5-1.4-1.6c0.2-5.1,0.3-10.2,0.4-15.3c0-1.3,0.5-1.7,1.6-1.6
	c3.9,0.2,7.7,0.3,11.6,0.5c4.7,0.2,9.5,0.6,14.2,0.8c1.2,0.1,1.7,0.5,1.8,1.6c0.1,1.4,0.3,2.9,0.3,4.3c0,1.5,0.5,2.6,2,3.2
	c2.5,0.9,5,2,7.6,2.8c1,0.3,1.6,0.8,1.8,1.9c0.1,0.6,0.4,1.2,0.5,1.8c0.4,1.7,1.3,2.8,3.2,3c0.3,0,0.8,0.7,0.9,1
	c0.3,6.9,0.5,13.7,0.6,20.6c0.1,3,0.1,6,0.1,9.1c0,0.6-0.4,1.3-0.8,1.7c-1.7,1.4-3.4,2.7-5.1,4c-1.2,0.8-1.7,2-1.7,3.3
	c-0.1,2-0.1,4,0.1,5.9c0.1,1,0.7,2.3,1.4,2.9c3.6,2.9,5.5,6.3,5.4,11.1c-0.2,6.4,0.2,12.8,0.4,19.2c0,0.9-0.3,1.5-1.1,1.8
	C438.8,199.7,435.9,200.9,432.8,202.2"/>
<path fill-rule="evenodd" clip-rule="evenodd" fill="#FFFFFF" d="M432.3,211.3c-3.7,0.1-7.3,0.3-10.8,0.2
	c-6.9-0.1-13.9-0.3-20.8-0.5c-0.4,0-1.1-0.5-1.1-0.7c-0.1-4.2-0.1-8.4-0.1-12.6c0-0.9,0.4-1.1,1.2-1.2c6.8,0,13.5-0.1,20.3-0.1
	c0.4,0,1,0.3,1.3,0.7c0.5,0.6,0.9,1.2,1.3,1.9c1,1.7,2.4,2.8,4.5,2.5c0.4,0,1,0.4,1.2,0.8C430.3,205.3,431.3,208.4,432.3,211.3"/>
<path fill-rule="evenodd" clip-rule="evenodd" fill="#FFFFFF" d="M442.5,115.3c-0.6-0.6-1.1-0.9-1.3-1.3c-0.4-0.9-0.7-1.9-0.9-2.8
	c-0.3-1.4-1.2-2.2-2.6-2.6c-2.4-0.8-4.9-1.7-7.3-2.5c-0.8-0.3-1.1-0.9-1.1-1.8c0-1.3-0.1-2.5-0.2-3.8c-0.1-0.8,0.2-1.2,1-1.1
	c4,0.1,7.9,0.1,11.9,0.1c0.9,0,1.3,0.4,1.2,1.3c-0.2,3-0.3,5.9-0.4,8.9C442.7,111.4,442.6,113.1,442.5,115.3"/>
<path fill-rule="evenodd" clip-rule="evenodd" fill="#FFFFFF" d="M442.8,201.8c0.1,3,0.2,6,0.2,9c0,0.3-0.5,0.8-0.9,0.8
	c-1.7,0.1-3.4,0.1-5.1,0c-0.4,0-1-0.4-1.1-0.7c-0.7-1.6-1.2-3.2-1.8-4.8c-0.1-0.2,0.1-0.8,0.3-0.9c2.6-1.3,5.3-2.6,8-3.8
	C442.5,201.6,442.7,201.7,442.8,201.8"/>
<path fill-rule="evenodd" clip-rule="evenodd" fill="#FFFFFF" d="M342.2,189.1c-0.1-5.5-0.2-11.1-0.4-16.6c-0.2-9-0.4-17.9-0.7-26.9
	c0-1.3,0.8-1.6,1.6-2c1.8-0.9,3.7-1.7,5.5-2.5c1.1-0.4,1.6-1.2,1.9-2.3c0.7-2.8,1.4-5.7,2.2-8.5c0.3-1.2,1.3-1.6,2.2-0.6
	c1.2,1.2,2.1,2.7,3.2,4c1.5,1.5,1.2,3.3,1.2,5.1c0,2.3,0.3,4.5,0.3,6.8c0,6.8-0.1,13.6-0.3,20.4c0,1.8-0.2,3.3,1.6,4.5
	c1,0.7,1.6,1.8,2.4,2.8c0.8,1,1.7,1.3,3,1.2c1.8-0.1,3.6-0.1,5.4,0c3.3,0.1,6.6,0.2,9.9,0.3c0.9,0,1.3,0.3,1.3,1.2
	c0.4,6.1,0.8,12.2,1.2,18.2c0.2,3.3,0.8,6.6,0.8,10c0,1.4-0.8,2.8-1.4,4.1c-0.1,0.2-0.7,0.3-1.1,0.3c-6,0.1-12,0.2-18,0.2
	c-0.1,0-0.3,0-0.4,0c-5.8-0.1-11.5-0.2-17.3-0.3c-1.1,0-2.6,0.3-3.1-0.2c-0.6-0.7-0.3-2.1-0.4-3.2c-0.1-5.3-0.3-10.6-0.4-15.8
	C342.4,189.1,342.3,189.1,342.2,189.1"/>
<path fill-rule="evenodd" clip-rule="evenodd" fill="#FFFFFF" d="M359.4,93.3c-0.1,12-0.3,23.9-0.4,35.8c-0.1,0-0.3,0-0.4,0.1
	c-0.2-0.1-0.5-0.3-0.6-0.5c-1.1-1.6-2.4-2.6-4.4-2.9c-0.4-0.1-0.8-0.6-0.9-1c-0.3-0.9-0.4-1.8-0.5-2.8c-0.5-3-1.5-5.7-3.3-8.2
	c-0.7-1-1.7-1.4-2.9-1.5c-1.5,0-3.1-0.1-4.6-0.3c-0.3,0-0.8-0.5-0.9-0.8c-0.1-3.1-0.1-6.1-0.1-9.2c0-0.4,0.2-0.8,0.4-1.1
	c1.6-2.2,3.2-4.4,4.8-6.5c0.2-0.3,0.7-0.6,1.1-0.6c4-0.2,7.9-0.4,11.9-0.6C358.8,93.1,359,93.2,359.4,93.3"/>
<path fill-rule="evenodd" clip-rule="evenodd" fill="#FFFFFF" d="M341.1,140.8c-0.1-1.1-0.2-1.8-0.2-2.5c-0.1-7.3-0.2-14.5-0.3-21.8
	c0-0.8,0.2-1.2,1-1.1c1.3,0.1,2.6,0.1,3.9,0.3c0.4,0.1,1,0.5,1.2,0.9c0.8,1.9,1.6,3.9,2.2,5.9c0.4,1.1,0.5,2.3,0.7,3.4
	c0.1,0.3,0.2,0.7,0.1,1.1c-0.9,3.5-1.8,7-2.7,10.4c-0.1,0.2-0.2,0.5-0.3,0.6C344.9,138.9,343.1,139.8,341.1,140.8"/>
</svg>
